G04 #@! TF.GenerationSoftware,KiCad,Pcbnew,5.0.2-bee76a0~70~ubuntu18.04.1*
G04 #@! TF.CreationDate,2018-12-10T16:15:13+09:00*
G04 #@! TF.ProjectId,2019_01,32303139-5f30-4312-9e6b-696361645f70,rev?*
G04 #@! TF.SameCoordinates,Original*
G04 #@! TF.FileFunction,Paste,Top*
G04 #@! TF.FilePolarity,Positive*
%FSLAX46Y46*%
G04 Gerber Fmt 4.6, Leading zero omitted, Abs format (unit mm)*
G04 Created by KiCad (PCBNEW 5.0.2-bee76a0~70~ubuntu18.04.1) date 2018年12月10日 16時15分13秒*
%MOMM*%
%LPD*%
G01*
G04 APERTURE LIST*
%ADD10C,0.100000*%
%ADD11C,1.524000*%
%ADD12C,0.875000*%
%ADD13C,0.975000*%
%ADD14C,0.318000*%
%ADD15C,0.950000*%
%ADD16C,0.830000*%
%ADD17C,0.250000*%
%ADD18R,1.200000X1.400000*%
G04 APERTURE END LIST*
D10*
G04 #@! TO.C,J3*
G36*
X151483345Y-54947435D02*
X151520329Y-54952921D01*
X151556598Y-54962006D01*
X151591802Y-54974602D01*
X151625602Y-54990588D01*
X151657672Y-55009810D01*
X151687704Y-55032083D01*
X151715408Y-55057192D01*
X151740517Y-55084896D01*
X151762790Y-55114928D01*
X151782012Y-55146998D01*
X151797998Y-55180798D01*
X151810594Y-55216002D01*
X151819679Y-55252271D01*
X151825165Y-55289255D01*
X151827000Y-55326600D01*
X151827000Y-104564600D01*
X151825165Y-104601945D01*
X151819679Y-104638929D01*
X151810594Y-104675198D01*
X151797998Y-104710402D01*
X151782012Y-104744202D01*
X151762790Y-104776272D01*
X151740517Y-104806304D01*
X151715408Y-104834008D01*
X151687704Y-104859117D01*
X151657672Y-104881390D01*
X151625602Y-104900612D01*
X151591802Y-104916598D01*
X151556598Y-104929194D01*
X151520329Y-104938279D01*
X151483345Y-104943765D01*
X151446000Y-104945600D01*
X150684000Y-104945600D01*
X150646655Y-104943765D01*
X150609671Y-104938279D01*
X150573402Y-104929194D01*
X150538198Y-104916598D01*
X150504398Y-104900612D01*
X150472328Y-104881390D01*
X150442296Y-104859117D01*
X150414592Y-104834008D01*
X150389483Y-104806304D01*
X150367210Y-104776272D01*
X150347988Y-104744202D01*
X150332002Y-104710402D01*
X150319406Y-104675198D01*
X150310321Y-104638929D01*
X150304835Y-104601945D01*
X150303000Y-104564600D01*
X150303000Y-55326600D01*
X150304835Y-55289255D01*
X150310321Y-55252271D01*
X150319406Y-55216002D01*
X150332002Y-55180798D01*
X150347988Y-55146998D01*
X150367210Y-55114928D01*
X150389483Y-55084896D01*
X150414592Y-55057192D01*
X150442296Y-55032083D01*
X150472328Y-55009810D01*
X150504398Y-54990588D01*
X150538198Y-54974602D01*
X150573402Y-54962006D01*
X150609671Y-54952921D01*
X150646655Y-54947435D01*
X150684000Y-54945600D01*
X151446000Y-54945600D01*
X151483345Y-54947435D01*
X151483345Y-54947435D01*
G37*
D11*
X151065000Y-79945600D03*
G04 #@! TD*
D10*
G04 #@! TO.C,J4*
G36*
X165683345Y-54947435D02*
X165720329Y-54952921D01*
X165756598Y-54962006D01*
X165791802Y-54974602D01*
X165825602Y-54990588D01*
X165857672Y-55009810D01*
X165887704Y-55032083D01*
X165915408Y-55057192D01*
X165940517Y-55084896D01*
X165962790Y-55114928D01*
X165982012Y-55146998D01*
X165997998Y-55180798D01*
X166010594Y-55216002D01*
X166019679Y-55252271D01*
X166025165Y-55289255D01*
X166027000Y-55326600D01*
X166027000Y-104564600D01*
X166025165Y-104601945D01*
X166019679Y-104638929D01*
X166010594Y-104675198D01*
X165997998Y-104710402D01*
X165982012Y-104744202D01*
X165962790Y-104776272D01*
X165940517Y-104806304D01*
X165915408Y-104834008D01*
X165887704Y-104859117D01*
X165857672Y-104881390D01*
X165825602Y-104900612D01*
X165791802Y-104916598D01*
X165756598Y-104929194D01*
X165720329Y-104938279D01*
X165683345Y-104943765D01*
X165646000Y-104945600D01*
X164884000Y-104945600D01*
X164846655Y-104943765D01*
X164809671Y-104938279D01*
X164773402Y-104929194D01*
X164738198Y-104916598D01*
X164704398Y-104900612D01*
X164672328Y-104881390D01*
X164642296Y-104859117D01*
X164614592Y-104834008D01*
X164589483Y-104806304D01*
X164567210Y-104776272D01*
X164547988Y-104744202D01*
X164532002Y-104710402D01*
X164519406Y-104675198D01*
X164510321Y-104638929D01*
X164504835Y-104601945D01*
X164503000Y-104564600D01*
X164503000Y-55326600D01*
X164504835Y-55289255D01*
X164510321Y-55252271D01*
X164519406Y-55216002D01*
X164532002Y-55180798D01*
X164547988Y-55146998D01*
X164567210Y-55114928D01*
X164589483Y-55084896D01*
X164614592Y-55057192D01*
X164642296Y-55032083D01*
X164672328Y-55009810D01*
X164704398Y-54990588D01*
X164738198Y-54974602D01*
X164773402Y-54962006D01*
X164809671Y-54952921D01*
X164846655Y-54947435D01*
X164884000Y-54945600D01*
X165646000Y-54945600D01*
X165683345Y-54947435D01*
X165683345Y-54947435D01*
G37*
D11*
X165265000Y-79945600D03*
G04 #@! TD*
D10*
G04 #@! TO.C,J5*
G36*
X179883345Y-54947435D02*
X179920329Y-54952921D01*
X179956598Y-54962006D01*
X179991802Y-54974602D01*
X180025602Y-54990588D01*
X180057672Y-55009810D01*
X180087704Y-55032083D01*
X180115408Y-55057192D01*
X180140517Y-55084896D01*
X180162790Y-55114928D01*
X180182012Y-55146998D01*
X180197998Y-55180798D01*
X180210594Y-55216002D01*
X180219679Y-55252271D01*
X180225165Y-55289255D01*
X180227000Y-55326600D01*
X180227000Y-104564600D01*
X180225165Y-104601945D01*
X180219679Y-104638929D01*
X180210594Y-104675198D01*
X180197998Y-104710402D01*
X180182012Y-104744202D01*
X180162790Y-104776272D01*
X180140517Y-104806304D01*
X180115408Y-104834008D01*
X180087704Y-104859117D01*
X180057672Y-104881390D01*
X180025602Y-104900612D01*
X179991802Y-104916598D01*
X179956598Y-104929194D01*
X179920329Y-104938279D01*
X179883345Y-104943765D01*
X179846000Y-104945600D01*
X179084000Y-104945600D01*
X179046655Y-104943765D01*
X179009671Y-104938279D01*
X178973402Y-104929194D01*
X178938198Y-104916598D01*
X178904398Y-104900612D01*
X178872328Y-104881390D01*
X178842296Y-104859117D01*
X178814592Y-104834008D01*
X178789483Y-104806304D01*
X178767210Y-104776272D01*
X178747988Y-104744202D01*
X178732002Y-104710402D01*
X178719406Y-104675198D01*
X178710321Y-104638929D01*
X178704835Y-104601945D01*
X178703000Y-104564600D01*
X178703000Y-55326600D01*
X178704835Y-55289255D01*
X178710321Y-55252271D01*
X178719406Y-55216002D01*
X178732002Y-55180798D01*
X178747988Y-55146998D01*
X178767210Y-55114928D01*
X178789483Y-55084896D01*
X178814592Y-55057192D01*
X178842296Y-55032083D01*
X178872328Y-55009810D01*
X178904398Y-54990588D01*
X178938198Y-54974602D01*
X178973402Y-54962006D01*
X179009671Y-54952921D01*
X179046655Y-54947435D01*
X179084000Y-54945600D01*
X179846000Y-54945600D01*
X179883345Y-54947435D01*
X179883345Y-54947435D01*
G37*
D11*
X179465000Y-79945600D03*
G04 #@! TD*
D10*
G04 #@! TO.C,J6*
G36*
X194083345Y-54947435D02*
X194120329Y-54952921D01*
X194156598Y-54962006D01*
X194191802Y-54974602D01*
X194225602Y-54990588D01*
X194257672Y-55009810D01*
X194287704Y-55032083D01*
X194315408Y-55057192D01*
X194340517Y-55084896D01*
X194362790Y-55114928D01*
X194382012Y-55146998D01*
X194397998Y-55180798D01*
X194410594Y-55216002D01*
X194419679Y-55252271D01*
X194425165Y-55289255D01*
X194427000Y-55326600D01*
X194427000Y-104564600D01*
X194425165Y-104601945D01*
X194419679Y-104638929D01*
X194410594Y-104675198D01*
X194397998Y-104710402D01*
X194382012Y-104744202D01*
X194362790Y-104776272D01*
X194340517Y-104806304D01*
X194315408Y-104834008D01*
X194287704Y-104859117D01*
X194257672Y-104881390D01*
X194225602Y-104900612D01*
X194191802Y-104916598D01*
X194156598Y-104929194D01*
X194120329Y-104938279D01*
X194083345Y-104943765D01*
X194046000Y-104945600D01*
X193284000Y-104945600D01*
X193246655Y-104943765D01*
X193209671Y-104938279D01*
X193173402Y-104929194D01*
X193138198Y-104916598D01*
X193104398Y-104900612D01*
X193072328Y-104881390D01*
X193042296Y-104859117D01*
X193014592Y-104834008D01*
X192989483Y-104806304D01*
X192967210Y-104776272D01*
X192947988Y-104744202D01*
X192932002Y-104710402D01*
X192919406Y-104675198D01*
X192910321Y-104638929D01*
X192904835Y-104601945D01*
X192903000Y-104564600D01*
X192903000Y-55326600D01*
X192904835Y-55289255D01*
X192910321Y-55252271D01*
X192919406Y-55216002D01*
X192932002Y-55180798D01*
X192947988Y-55146998D01*
X192967210Y-55114928D01*
X192989483Y-55084896D01*
X193014592Y-55057192D01*
X193042296Y-55032083D01*
X193072328Y-55009810D01*
X193104398Y-54990588D01*
X193138198Y-54974602D01*
X193173402Y-54962006D01*
X193209671Y-54952921D01*
X193246655Y-54947435D01*
X193284000Y-54945600D01*
X194046000Y-54945600D01*
X194083345Y-54947435D01*
X194083345Y-54947435D01*
G37*
D11*
X193665000Y-79945600D03*
G04 #@! TD*
D10*
G04 #@! TO.C,J7*
G36*
X208283345Y-54947435D02*
X208320329Y-54952921D01*
X208356598Y-54962006D01*
X208391802Y-54974602D01*
X208425602Y-54990588D01*
X208457672Y-55009810D01*
X208487704Y-55032083D01*
X208515408Y-55057192D01*
X208540517Y-55084896D01*
X208562790Y-55114928D01*
X208582012Y-55146998D01*
X208597998Y-55180798D01*
X208610594Y-55216002D01*
X208619679Y-55252271D01*
X208625165Y-55289255D01*
X208627000Y-55326600D01*
X208627000Y-104564600D01*
X208625165Y-104601945D01*
X208619679Y-104638929D01*
X208610594Y-104675198D01*
X208597998Y-104710402D01*
X208582012Y-104744202D01*
X208562790Y-104776272D01*
X208540517Y-104806304D01*
X208515408Y-104834008D01*
X208487704Y-104859117D01*
X208457672Y-104881390D01*
X208425602Y-104900612D01*
X208391802Y-104916598D01*
X208356598Y-104929194D01*
X208320329Y-104938279D01*
X208283345Y-104943765D01*
X208246000Y-104945600D01*
X207484000Y-104945600D01*
X207446655Y-104943765D01*
X207409671Y-104938279D01*
X207373402Y-104929194D01*
X207338198Y-104916598D01*
X207304398Y-104900612D01*
X207272328Y-104881390D01*
X207242296Y-104859117D01*
X207214592Y-104834008D01*
X207189483Y-104806304D01*
X207167210Y-104776272D01*
X207147988Y-104744202D01*
X207132002Y-104710402D01*
X207119406Y-104675198D01*
X207110321Y-104638929D01*
X207104835Y-104601945D01*
X207103000Y-104564600D01*
X207103000Y-55326600D01*
X207104835Y-55289255D01*
X207110321Y-55252271D01*
X207119406Y-55216002D01*
X207132002Y-55180798D01*
X207147988Y-55146998D01*
X207167210Y-55114928D01*
X207189483Y-55084896D01*
X207214592Y-55057192D01*
X207242296Y-55032083D01*
X207272328Y-55009810D01*
X207304398Y-54990588D01*
X207338198Y-54974602D01*
X207373402Y-54962006D01*
X207409671Y-54952921D01*
X207446655Y-54947435D01*
X207484000Y-54945600D01*
X208246000Y-54945600D01*
X208283345Y-54947435D01*
X208283345Y-54947435D01*
G37*
D11*
X207865000Y-79945600D03*
G04 #@! TD*
D10*
G04 #@! TO.C,J8*
G36*
X222483345Y-54947435D02*
X222520329Y-54952921D01*
X222556598Y-54962006D01*
X222591802Y-54974602D01*
X222625602Y-54990588D01*
X222657672Y-55009810D01*
X222687704Y-55032083D01*
X222715408Y-55057192D01*
X222740517Y-55084896D01*
X222762790Y-55114928D01*
X222782012Y-55146998D01*
X222797998Y-55180798D01*
X222810594Y-55216002D01*
X222819679Y-55252271D01*
X222825165Y-55289255D01*
X222827000Y-55326600D01*
X222827000Y-104564600D01*
X222825165Y-104601945D01*
X222819679Y-104638929D01*
X222810594Y-104675198D01*
X222797998Y-104710402D01*
X222782012Y-104744202D01*
X222762790Y-104776272D01*
X222740517Y-104806304D01*
X222715408Y-104834008D01*
X222687704Y-104859117D01*
X222657672Y-104881390D01*
X222625602Y-104900612D01*
X222591802Y-104916598D01*
X222556598Y-104929194D01*
X222520329Y-104938279D01*
X222483345Y-104943765D01*
X222446000Y-104945600D01*
X221684000Y-104945600D01*
X221646655Y-104943765D01*
X221609671Y-104938279D01*
X221573402Y-104929194D01*
X221538198Y-104916598D01*
X221504398Y-104900612D01*
X221472328Y-104881390D01*
X221442296Y-104859117D01*
X221414592Y-104834008D01*
X221389483Y-104806304D01*
X221367210Y-104776272D01*
X221347988Y-104744202D01*
X221332002Y-104710402D01*
X221319406Y-104675198D01*
X221310321Y-104638929D01*
X221304835Y-104601945D01*
X221303000Y-104564600D01*
X221303000Y-55326600D01*
X221304835Y-55289255D01*
X221310321Y-55252271D01*
X221319406Y-55216002D01*
X221332002Y-55180798D01*
X221347988Y-55146998D01*
X221367210Y-55114928D01*
X221389483Y-55084896D01*
X221414592Y-55057192D01*
X221442296Y-55032083D01*
X221472328Y-55009810D01*
X221504398Y-54990588D01*
X221538198Y-54974602D01*
X221573402Y-54962006D01*
X221609671Y-54952921D01*
X221646655Y-54947435D01*
X221684000Y-54945600D01*
X222446000Y-54945600D01*
X222483345Y-54947435D01*
X222483345Y-54947435D01*
G37*
D11*
X222065000Y-79945600D03*
G04 #@! TD*
D10*
G04 #@! TO.C,C1*
G36*
X226665691Y-50351453D02*
X226686926Y-50354603D01*
X226707750Y-50359819D01*
X226727962Y-50367051D01*
X226747368Y-50376230D01*
X226765781Y-50387266D01*
X226783024Y-50400054D01*
X226798930Y-50414470D01*
X226813346Y-50430376D01*
X226826134Y-50447619D01*
X226837170Y-50466032D01*
X226846349Y-50485438D01*
X226853581Y-50505650D01*
X226858797Y-50526474D01*
X226861947Y-50547709D01*
X226863000Y-50569150D01*
X226863000Y-51081650D01*
X226861947Y-51103091D01*
X226858797Y-51124326D01*
X226853581Y-51145150D01*
X226846349Y-51165362D01*
X226837170Y-51184768D01*
X226826134Y-51203181D01*
X226813346Y-51220424D01*
X226798930Y-51236330D01*
X226783024Y-51250746D01*
X226765781Y-51263534D01*
X226747368Y-51274570D01*
X226727962Y-51283749D01*
X226707750Y-51290981D01*
X226686926Y-51296197D01*
X226665691Y-51299347D01*
X226644250Y-51300400D01*
X226206750Y-51300400D01*
X226185309Y-51299347D01*
X226164074Y-51296197D01*
X226143250Y-51290981D01*
X226123038Y-51283749D01*
X226103632Y-51274570D01*
X226085219Y-51263534D01*
X226067976Y-51250746D01*
X226052070Y-51236330D01*
X226037654Y-51220424D01*
X226024866Y-51203181D01*
X226013830Y-51184768D01*
X226004651Y-51165362D01*
X225997419Y-51145150D01*
X225992203Y-51124326D01*
X225989053Y-51103091D01*
X225988000Y-51081650D01*
X225988000Y-50569150D01*
X225989053Y-50547709D01*
X225992203Y-50526474D01*
X225997419Y-50505650D01*
X226004651Y-50485438D01*
X226013830Y-50466032D01*
X226024866Y-50447619D01*
X226037654Y-50430376D01*
X226052070Y-50414470D01*
X226067976Y-50400054D01*
X226085219Y-50387266D01*
X226103632Y-50376230D01*
X226123038Y-50367051D01*
X226143250Y-50359819D01*
X226164074Y-50354603D01*
X226185309Y-50351453D01*
X226206750Y-50350400D01*
X226644250Y-50350400D01*
X226665691Y-50351453D01*
X226665691Y-50351453D01*
G37*
D12*
X226425500Y-50825400D03*
D10*
G36*
X225090691Y-50351453D02*
X225111926Y-50354603D01*
X225132750Y-50359819D01*
X225152962Y-50367051D01*
X225172368Y-50376230D01*
X225190781Y-50387266D01*
X225208024Y-50400054D01*
X225223930Y-50414470D01*
X225238346Y-50430376D01*
X225251134Y-50447619D01*
X225262170Y-50466032D01*
X225271349Y-50485438D01*
X225278581Y-50505650D01*
X225283797Y-50526474D01*
X225286947Y-50547709D01*
X225288000Y-50569150D01*
X225288000Y-51081650D01*
X225286947Y-51103091D01*
X225283797Y-51124326D01*
X225278581Y-51145150D01*
X225271349Y-51165362D01*
X225262170Y-51184768D01*
X225251134Y-51203181D01*
X225238346Y-51220424D01*
X225223930Y-51236330D01*
X225208024Y-51250746D01*
X225190781Y-51263534D01*
X225172368Y-51274570D01*
X225152962Y-51283749D01*
X225132750Y-51290981D01*
X225111926Y-51296197D01*
X225090691Y-51299347D01*
X225069250Y-51300400D01*
X224631750Y-51300400D01*
X224610309Y-51299347D01*
X224589074Y-51296197D01*
X224568250Y-51290981D01*
X224548038Y-51283749D01*
X224528632Y-51274570D01*
X224510219Y-51263534D01*
X224492976Y-51250746D01*
X224477070Y-51236330D01*
X224462654Y-51220424D01*
X224449866Y-51203181D01*
X224438830Y-51184768D01*
X224429651Y-51165362D01*
X224422419Y-51145150D01*
X224417203Y-51124326D01*
X224414053Y-51103091D01*
X224413000Y-51081650D01*
X224413000Y-50569150D01*
X224414053Y-50547709D01*
X224417203Y-50526474D01*
X224422419Y-50505650D01*
X224429651Y-50485438D01*
X224438830Y-50466032D01*
X224449866Y-50447619D01*
X224462654Y-50430376D01*
X224477070Y-50414470D01*
X224492976Y-50400054D01*
X224510219Y-50387266D01*
X224528632Y-50376230D01*
X224548038Y-50367051D01*
X224568250Y-50359819D01*
X224589074Y-50354603D01*
X224610309Y-50351453D01*
X224631750Y-50350400D01*
X225069250Y-50350400D01*
X225090691Y-50351453D01*
X225090691Y-50351453D01*
G37*
D12*
X224850500Y-50825400D03*
G04 #@! TD*
D10*
G04 #@! TO.C,C2*
G36*
X224762142Y-51940174D02*
X224785803Y-51943684D01*
X224809007Y-51949496D01*
X224831529Y-51957554D01*
X224853153Y-51967782D01*
X224873670Y-51980079D01*
X224892883Y-51994329D01*
X224910607Y-52010393D01*
X224926671Y-52028117D01*
X224940921Y-52047330D01*
X224953218Y-52067847D01*
X224963446Y-52089471D01*
X224971504Y-52111993D01*
X224977316Y-52135197D01*
X224980826Y-52158858D01*
X224982000Y-52182750D01*
X224982000Y-53095250D01*
X224980826Y-53119142D01*
X224977316Y-53142803D01*
X224971504Y-53166007D01*
X224963446Y-53188529D01*
X224953218Y-53210153D01*
X224940921Y-53230670D01*
X224926671Y-53249883D01*
X224910607Y-53267607D01*
X224892883Y-53283671D01*
X224873670Y-53297921D01*
X224853153Y-53310218D01*
X224831529Y-53320446D01*
X224809007Y-53328504D01*
X224785803Y-53334316D01*
X224762142Y-53337826D01*
X224738250Y-53339000D01*
X224250750Y-53339000D01*
X224226858Y-53337826D01*
X224203197Y-53334316D01*
X224179993Y-53328504D01*
X224157471Y-53320446D01*
X224135847Y-53310218D01*
X224115330Y-53297921D01*
X224096117Y-53283671D01*
X224078393Y-53267607D01*
X224062329Y-53249883D01*
X224048079Y-53230670D01*
X224035782Y-53210153D01*
X224025554Y-53188529D01*
X224017496Y-53166007D01*
X224011684Y-53142803D01*
X224008174Y-53119142D01*
X224007000Y-53095250D01*
X224007000Y-52182750D01*
X224008174Y-52158858D01*
X224011684Y-52135197D01*
X224017496Y-52111993D01*
X224025554Y-52089471D01*
X224035782Y-52067847D01*
X224048079Y-52047330D01*
X224062329Y-52028117D01*
X224078393Y-52010393D01*
X224096117Y-51994329D01*
X224115330Y-51980079D01*
X224135847Y-51967782D01*
X224157471Y-51957554D01*
X224179993Y-51949496D01*
X224203197Y-51943684D01*
X224226858Y-51940174D01*
X224250750Y-51939000D01*
X224738250Y-51939000D01*
X224762142Y-51940174D01*
X224762142Y-51940174D01*
G37*
D13*
X224494500Y-52639000D03*
D10*
G36*
X226637142Y-51940174D02*
X226660803Y-51943684D01*
X226684007Y-51949496D01*
X226706529Y-51957554D01*
X226728153Y-51967782D01*
X226748670Y-51980079D01*
X226767883Y-51994329D01*
X226785607Y-52010393D01*
X226801671Y-52028117D01*
X226815921Y-52047330D01*
X226828218Y-52067847D01*
X226838446Y-52089471D01*
X226846504Y-52111993D01*
X226852316Y-52135197D01*
X226855826Y-52158858D01*
X226857000Y-52182750D01*
X226857000Y-53095250D01*
X226855826Y-53119142D01*
X226852316Y-53142803D01*
X226846504Y-53166007D01*
X226838446Y-53188529D01*
X226828218Y-53210153D01*
X226815921Y-53230670D01*
X226801671Y-53249883D01*
X226785607Y-53267607D01*
X226767883Y-53283671D01*
X226748670Y-53297921D01*
X226728153Y-53310218D01*
X226706529Y-53320446D01*
X226684007Y-53328504D01*
X226660803Y-53334316D01*
X226637142Y-53337826D01*
X226613250Y-53339000D01*
X226125750Y-53339000D01*
X226101858Y-53337826D01*
X226078197Y-53334316D01*
X226054993Y-53328504D01*
X226032471Y-53320446D01*
X226010847Y-53310218D01*
X225990330Y-53297921D01*
X225971117Y-53283671D01*
X225953393Y-53267607D01*
X225937329Y-53249883D01*
X225923079Y-53230670D01*
X225910782Y-53210153D01*
X225900554Y-53188529D01*
X225892496Y-53166007D01*
X225886684Y-53142803D01*
X225883174Y-53119142D01*
X225882000Y-53095250D01*
X225882000Y-52182750D01*
X225883174Y-52158858D01*
X225886684Y-52135197D01*
X225892496Y-52111993D01*
X225900554Y-52089471D01*
X225910782Y-52067847D01*
X225923079Y-52047330D01*
X225937329Y-52028117D01*
X225953393Y-52010393D01*
X225971117Y-51994329D01*
X225990330Y-51980079D01*
X226010847Y-51967782D01*
X226032471Y-51957554D01*
X226054993Y-51949496D01*
X226078197Y-51943684D01*
X226101858Y-51940174D01*
X226125750Y-51939000D01*
X226613250Y-51939000D01*
X226637142Y-51940174D01*
X226637142Y-51940174D01*
G37*
D13*
X226369500Y-52639000D03*
G04 #@! TD*
D10*
G04 #@! TO.C,C3*
G36*
X214047292Y-50712483D02*
X214055010Y-50713628D01*
X214062578Y-50715523D01*
X214069923Y-50718152D01*
X214076976Y-50721487D01*
X214083668Y-50725498D01*
X214089934Y-50730146D01*
X214095715Y-50735385D01*
X214100954Y-50741166D01*
X214105602Y-50747432D01*
X214109613Y-50754124D01*
X214112948Y-50761177D01*
X214115577Y-50768522D01*
X214117472Y-50776090D01*
X214118617Y-50783808D01*
X214119000Y-50791600D01*
X214119000Y-50950600D01*
X214118617Y-50958392D01*
X214117472Y-50966110D01*
X214115577Y-50973678D01*
X214112948Y-50981023D01*
X214109613Y-50988076D01*
X214105602Y-50994768D01*
X214100954Y-51001034D01*
X214095715Y-51006815D01*
X214089934Y-51012054D01*
X214083668Y-51016702D01*
X214076976Y-51020713D01*
X214069923Y-51024048D01*
X214062578Y-51026677D01*
X214055010Y-51028572D01*
X214047292Y-51029717D01*
X214039500Y-51030100D01*
X213838500Y-51030100D01*
X213830708Y-51029717D01*
X213822990Y-51028572D01*
X213815422Y-51026677D01*
X213808077Y-51024048D01*
X213801024Y-51020713D01*
X213794332Y-51016702D01*
X213788066Y-51012054D01*
X213782285Y-51006815D01*
X213777046Y-51001034D01*
X213772398Y-50994768D01*
X213768387Y-50988076D01*
X213765052Y-50981023D01*
X213762423Y-50973678D01*
X213760528Y-50966110D01*
X213759383Y-50958392D01*
X213759000Y-50950600D01*
X213759000Y-50791600D01*
X213759383Y-50783808D01*
X213760528Y-50776090D01*
X213762423Y-50768522D01*
X213765052Y-50761177D01*
X213768387Y-50754124D01*
X213772398Y-50747432D01*
X213777046Y-50741166D01*
X213782285Y-50735385D01*
X213788066Y-50730146D01*
X213794332Y-50725498D01*
X213801024Y-50721487D01*
X213808077Y-50718152D01*
X213815422Y-50715523D01*
X213822990Y-50713628D01*
X213830708Y-50712483D01*
X213838500Y-50712100D01*
X214039500Y-50712100D01*
X214047292Y-50712483D01*
X214047292Y-50712483D01*
G37*
D14*
X213939000Y-50871100D03*
D10*
G36*
X214047292Y-50022483D02*
X214055010Y-50023628D01*
X214062578Y-50025523D01*
X214069923Y-50028152D01*
X214076976Y-50031487D01*
X214083668Y-50035498D01*
X214089934Y-50040146D01*
X214095715Y-50045385D01*
X214100954Y-50051166D01*
X214105602Y-50057432D01*
X214109613Y-50064124D01*
X214112948Y-50071177D01*
X214115577Y-50078522D01*
X214117472Y-50086090D01*
X214118617Y-50093808D01*
X214119000Y-50101600D01*
X214119000Y-50260600D01*
X214118617Y-50268392D01*
X214117472Y-50276110D01*
X214115577Y-50283678D01*
X214112948Y-50291023D01*
X214109613Y-50298076D01*
X214105602Y-50304768D01*
X214100954Y-50311034D01*
X214095715Y-50316815D01*
X214089934Y-50322054D01*
X214083668Y-50326702D01*
X214076976Y-50330713D01*
X214069923Y-50334048D01*
X214062578Y-50336677D01*
X214055010Y-50338572D01*
X214047292Y-50339717D01*
X214039500Y-50340100D01*
X213838500Y-50340100D01*
X213830708Y-50339717D01*
X213822990Y-50338572D01*
X213815422Y-50336677D01*
X213808077Y-50334048D01*
X213801024Y-50330713D01*
X213794332Y-50326702D01*
X213788066Y-50322054D01*
X213782285Y-50316815D01*
X213777046Y-50311034D01*
X213772398Y-50304768D01*
X213768387Y-50298076D01*
X213765052Y-50291023D01*
X213762423Y-50283678D01*
X213760528Y-50276110D01*
X213759383Y-50268392D01*
X213759000Y-50260600D01*
X213759000Y-50101600D01*
X213759383Y-50093808D01*
X213760528Y-50086090D01*
X213762423Y-50078522D01*
X213765052Y-50071177D01*
X213768387Y-50064124D01*
X213772398Y-50057432D01*
X213777046Y-50051166D01*
X213782285Y-50045385D01*
X213788066Y-50040146D01*
X213794332Y-50035498D01*
X213801024Y-50031487D01*
X213808077Y-50028152D01*
X213815422Y-50025523D01*
X213822990Y-50023628D01*
X213830708Y-50022483D01*
X213838500Y-50022100D01*
X214039500Y-50022100D01*
X214047292Y-50022483D01*
X214047292Y-50022483D01*
G37*
D14*
X213939000Y-50181100D03*
G04 #@! TD*
D10*
G04 #@! TO.C,C4*
G36*
X214027292Y-52277583D02*
X214035010Y-52278728D01*
X214042578Y-52280623D01*
X214049923Y-52283252D01*
X214056976Y-52286587D01*
X214063668Y-52290598D01*
X214069934Y-52295246D01*
X214075715Y-52300485D01*
X214080954Y-52306266D01*
X214085602Y-52312532D01*
X214089613Y-52319224D01*
X214092948Y-52326277D01*
X214095577Y-52333622D01*
X214097472Y-52341190D01*
X214098617Y-52348908D01*
X214099000Y-52356700D01*
X214099000Y-52515700D01*
X214098617Y-52523492D01*
X214097472Y-52531210D01*
X214095577Y-52538778D01*
X214092948Y-52546123D01*
X214089613Y-52553176D01*
X214085602Y-52559868D01*
X214080954Y-52566134D01*
X214075715Y-52571915D01*
X214069934Y-52577154D01*
X214063668Y-52581802D01*
X214056976Y-52585813D01*
X214049923Y-52589148D01*
X214042578Y-52591777D01*
X214035010Y-52593672D01*
X214027292Y-52594817D01*
X214019500Y-52595200D01*
X213818500Y-52595200D01*
X213810708Y-52594817D01*
X213802990Y-52593672D01*
X213795422Y-52591777D01*
X213788077Y-52589148D01*
X213781024Y-52585813D01*
X213774332Y-52581802D01*
X213768066Y-52577154D01*
X213762285Y-52571915D01*
X213757046Y-52566134D01*
X213752398Y-52559868D01*
X213748387Y-52553176D01*
X213745052Y-52546123D01*
X213742423Y-52538778D01*
X213740528Y-52531210D01*
X213739383Y-52523492D01*
X213739000Y-52515700D01*
X213739000Y-52356700D01*
X213739383Y-52348908D01*
X213740528Y-52341190D01*
X213742423Y-52333622D01*
X213745052Y-52326277D01*
X213748387Y-52319224D01*
X213752398Y-52312532D01*
X213757046Y-52306266D01*
X213762285Y-52300485D01*
X213768066Y-52295246D01*
X213774332Y-52290598D01*
X213781024Y-52286587D01*
X213788077Y-52283252D01*
X213795422Y-52280623D01*
X213802990Y-52278728D01*
X213810708Y-52277583D01*
X213818500Y-52277200D01*
X214019500Y-52277200D01*
X214027292Y-52277583D01*
X214027292Y-52277583D01*
G37*
D14*
X213919000Y-52436200D03*
D10*
G36*
X214027292Y-52967583D02*
X214035010Y-52968728D01*
X214042578Y-52970623D01*
X214049923Y-52973252D01*
X214056976Y-52976587D01*
X214063668Y-52980598D01*
X214069934Y-52985246D01*
X214075715Y-52990485D01*
X214080954Y-52996266D01*
X214085602Y-53002532D01*
X214089613Y-53009224D01*
X214092948Y-53016277D01*
X214095577Y-53023622D01*
X214097472Y-53031190D01*
X214098617Y-53038908D01*
X214099000Y-53046700D01*
X214099000Y-53205700D01*
X214098617Y-53213492D01*
X214097472Y-53221210D01*
X214095577Y-53228778D01*
X214092948Y-53236123D01*
X214089613Y-53243176D01*
X214085602Y-53249868D01*
X214080954Y-53256134D01*
X214075715Y-53261915D01*
X214069934Y-53267154D01*
X214063668Y-53271802D01*
X214056976Y-53275813D01*
X214049923Y-53279148D01*
X214042578Y-53281777D01*
X214035010Y-53283672D01*
X214027292Y-53284817D01*
X214019500Y-53285200D01*
X213818500Y-53285200D01*
X213810708Y-53284817D01*
X213802990Y-53283672D01*
X213795422Y-53281777D01*
X213788077Y-53279148D01*
X213781024Y-53275813D01*
X213774332Y-53271802D01*
X213768066Y-53267154D01*
X213762285Y-53261915D01*
X213757046Y-53256134D01*
X213752398Y-53249868D01*
X213748387Y-53243176D01*
X213745052Y-53236123D01*
X213742423Y-53228778D01*
X213740528Y-53221210D01*
X213739383Y-53213492D01*
X213739000Y-53205700D01*
X213739000Y-53046700D01*
X213739383Y-53038908D01*
X213740528Y-53031190D01*
X213742423Y-53023622D01*
X213745052Y-53016277D01*
X213748387Y-53009224D01*
X213752398Y-53002532D01*
X213757046Y-52996266D01*
X213762285Y-52990485D01*
X213768066Y-52985246D01*
X213774332Y-52980598D01*
X213781024Y-52976587D01*
X213788077Y-52973252D01*
X213795422Y-52970623D01*
X213802990Y-52968728D01*
X213810708Y-52967583D01*
X213818500Y-52967200D01*
X214019500Y-52967200D01*
X214027292Y-52967583D01*
X214027292Y-52967583D01*
G37*
D14*
X213919000Y-53126200D03*
G04 #@! TD*
D10*
G04 #@! TO.C,R1*
G36*
X206054779Y-50468344D02*
X206077834Y-50471763D01*
X206100443Y-50477427D01*
X206122387Y-50485279D01*
X206143457Y-50495244D01*
X206163448Y-50507226D01*
X206182168Y-50521110D01*
X206199438Y-50536762D01*
X206215090Y-50554032D01*
X206228974Y-50572752D01*
X206240956Y-50592743D01*
X206250921Y-50613813D01*
X206258773Y-50635757D01*
X206264437Y-50658366D01*
X206267856Y-50681421D01*
X206269000Y-50704700D01*
X206269000Y-51179700D01*
X206267856Y-51202979D01*
X206264437Y-51226034D01*
X206258773Y-51248643D01*
X206250921Y-51270587D01*
X206240956Y-51291657D01*
X206228974Y-51311648D01*
X206215090Y-51330368D01*
X206199438Y-51347638D01*
X206182168Y-51363290D01*
X206163448Y-51377174D01*
X206143457Y-51389156D01*
X206122387Y-51399121D01*
X206100443Y-51406973D01*
X206077834Y-51412637D01*
X206054779Y-51416056D01*
X206031500Y-51417200D01*
X205456500Y-51417200D01*
X205433221Y-51416056D01*
X205410166Y-51412637D01*
X205387557Y-51406973D01*
X205365613Y-51399121D01*
X205344543Y-51389156D01*
X205324552Y-51377174D01*
X205305832Y-51363290D01*
X205288562Y-51347638D01*
X205272910Y-51330368D01*
X205259026Y-51311648D01*
X205247044Y-51291657D01*
X205237079Y-51270587D01*
X205229227Y-51248643D01*
X205223563Y-51226034D01*
X205220144Y-51202979D01*
X205219000Y-51179700D01*
X205219000Y-50704700D01*
X205220144Y-50681421D01*
X205223563Y-50658366D01*
X205229227Y-50635757D01*
X205237079Y-50613813D01*
X205247044Y-50592743D01*
X205259026Y-50572752D01*
X205272910Y-50554032D01*
X205288562Y-50536762D01*
X205305832Y-50521110D01*
X205324552Y-50507226D01*
X205344543Y-50495244D01*
X205365613Y-50485279D01*
X205387557Y-50477427D01*
X205410166Y-50471763D01*
X205433221Y-50468344D01*
X205456500Y-50467200D01*
X206031500Y-50467200D01*
X206054779Y-50468344D01*
X206054779Y-50468344D01*
G37*
D15*
X205744000Y-50942200D03*
D10*
G36*
X207804779Y-50468344D02*
X207827834Y-50471763D01*
X207850443Y-50477427D01*
X207872387Y-50485279D01*
X207893457Y-50495244D01*
X207913448Y-50507226D01*
X207932168Y-50521110D01*
X207949438Y-50536762D01*
X207965090Y-50554032D01*
X207978974Y-50572752D01*
X207990956Y-50592743D01*
X208000921Y-50613813D01*
X208008773Y-50635757D01*
X208014437Y-50658366D01*
X208017856Y-50681421D01*
X208019000Y-50704700D01*
X208019000Y-51179700D01*
X208017856Y-51202979D01*
X208014437Y-51226034D01*
X208008773Y-51248643D01*
X208000921Y-51270587D01*
X207990956Y-51291657D01*
X207978974Y-51311648D01*
X207965090Y-51330368D01*
X207949438Y-51347638D01*
X207932168Y-51363290D01*
X207913448Y-51377174D01*
X207893457Y-51389156D01*
X207872387Y-51399121D01*
X207850443Y-51406973D01*
X207827834Y-51412637D01*
X207804779Y-51416056D01*
X207781500Y-51417200D01*
X207206500Y-51417200D01*
X207183221Y-51416056D01*
X207160166Y-51412637D01*
X207137557Y-51406973D01*
X207115613Y-51399121D01*
X207094543Y-51389156D01*
X207074552Y-51377174D01*
X207055832Y-51363290D01*
X207038562Y-51347638D01*
X207022910Y-51330368D01*
X207009026Y-51311648D01*
X206997044Y-51291657D01*
X206987079Y-51270587D01*
X206979227Y-51248643D01*
X206973563Y-51226034D01*
X206970144Y-51202979D01*
X206969000Y-51179700D01*
X206969000Y-50704700D01*
X206970144Y-50681421D01*
X206973563Y-50658366D01*
X206979227Y-50635757D01*
X206987079Y-50613813D01*
X206997044Y-50592743D01*
X207009026Y-50572752D01*
X207022910Y-50554032D01*
X207038562Y-50536762D01*
X207055832Y-50521110D01*
X207074552Y-50507226D01*
X207094543Y-50495244D01*
X207115613Y-50485279D01*
X207137557Y-50477427D01*
X207160166Y-50471763D01*
X207183221Y-50468344D01*
X207206500Y-50467200D01*
X207781500Y-50467200D01*
X207804779Y-50468344D01*
X207804779Y-50468344D01*
G37*
D15*
X207494000Y-50942200D03*
G04 #@! TD*
D10*
G04 #@! TO.C,R2*
G36*
X207792779Y-52129544D02*
X207815834Y-52132963D01*
X207838443Y-52138627D01*
X207860387Y-52146479D01*
X207881457Y-52156444D01*
X207901448Y-52168426D01*
X207920168Y-52182310D01*
X207937438Y-52197962D01*
X207953090Y-52215232D01*
X207966974Y-52233952D01*
X207978956Y-52253943D01*
X207988921Y-52275013D01*
X207996773Y-52296957D01*
X208002437Y-52319566D01*
X208005856Y-52342621D01*
X208007000Y-52365900D01*
X208007000Y-52840900D01*
X208005856Y-52864179D01*
X208002437Y-52887234D01*
X207996773Y-52909843D01*
X207988921Y-52931787D01*
X207978956Y-52952857D01*
X207966974Y-52972848D01*
X207953090Y-52991568D01*
X207937438Y-53008838D01*
X207920168Y-53024490D01*
X207901448Y-53038374D01*
X207881457Y-53050356D01*
X207860387Y-53060321D01*
X207838443Y-53068173D01*
X207815834Y-53073837D01*
X207792779Y-53077256D01*
X207769500Y-53078400D01*
X207194500Y-53078400D01*
X207171221Y-53077256D01*
X207148166Y-53073837D01*
X207125557Y-53068173D01*
X207103613Y-53060321D01*
X207082543Y-53050356D01*
X207062552Y-53038374D01*
X207043832Y-53024490D01*
X207026562Y-53008838D01*
X207010910Y-52991568D01*
X206997026Y-52972848D01*
X206985044Y-52952857D01*
X206975079Y-52931787D01*
X206967227Y-52909843D01*
X206961563Y-52887234D01*
X206958144Y-52864179D01*
X206957000Y-52840900D01*
X206957000Y-52365900D01*
X206958144Y-52342621D01*
X206961563Y-52319566D01*
X206967227Y-52296957D01*
X206975079Y-52275013D01*
X206985044Y-52253943D01*
X206997026Y-52233952D01*
X207010910Y-52215232D01*
X207026562Y-52197962D01*
X207043832Y-52182310D01*
X207062552Y-52168426D01*
X207082543Y-52156444D01*
X207103613Y-52146479D01*
X207125557Y-52138627D01*
X207148166Y-52132963D01*
X207171221Y-52129544D01*
X207194500Y-52128400D01*
X207769500Y-52128400D01*
X207792779Y-52129544D01*
X207792779Y-52129544D01*
G37*
D15*
X207482000Y-52603400D03*
D10*
G36*
X206042779Y-52129544D02*
X206065834Y-52132963D01*
X206088443Y-52138627D01*
X206110387Y-52146479D01*
X206131457Y-52156444D01*
X206151448Y-52168426D01*
X206170168Y-52182310D01*
X206187438Y-52197962D01*
X206203090Y-52215232D01*
X206216974Y-52233952D01*
X206228956Y-52253943D01*
X206238921Y-52275013D01*
X206246773Y-52296957D01*
X206252437Y-52319566D01*
X206255856Y-52342621D01*
X206257000Y-52365900D01*
X206257000Y-52840900D01*
X206255856Y-52864179D01*
X206252437Y-52887234D01*
X206246773Y-52909843D01*
X206238921Y-52931787D01*
X206228956Y-52952857D01*
X206216974Y-52972848D01*
X206203090Y-52991568D01*
X206187438Y-53008838D01*
X206170168Y-53024490D01*
X206151448Y-53038374D01*
X206131457Y-53050356D01*
X206110387Y-53060321D01*
X206088443Y-53068173D01*
X206065834Y-53073837D01*
X206042779Y-53077256D01*
X206019500Y-53078400D01*
X205444500Y-53078400D01*
X205421221Y-53077256D01*
X205398166Y-53073837D01*
X205375557Y-53068173D01*
X205353613Y-53060321D01*
X205332543Y-53050356D01*
X205312552Y-53038374D01*
X205293832Y-53024490D01*
X205276562Y-53008838D01*
X205260910Y-52991568D01*
X205247026Y-52972848D01*
X205235044Y-52952857D01*
X205225079Y-52931787D01*
X205217227Y-52909843D01*
X205211563Y-52887234D01*
X205208144Y-52864179D01*
X205207000Y-52840900D01*
X205207000Y-52365900D01*
X205208144Y-52342621D01*
X205211563Y-52319566D01*
X205217227Y-52296957D01*
X205225079Y-52275013D01*
X205235044Y-52253943D01*
X205247026Y-52233952D01*
X205260910Y-52215232D01*
X205276562Y-52197962D01*
X205293832Y-52182310D01*
X205312552Y-52168426D01*
X205332543Y-52156444D01*
X205353613Y-52146479D01*
X205375557Y-52138627D01*
X205398166Y-52132963D01*
X205421221Y-52129544D01*
X205444500Y-52128400D01*
X206019500Y-52128400D01*
X206042779Y-52129544D01*
X206042779Y-52129544D01*
G37*
D15*
X205732000Y-52603400D03*
G04 #@! TD*
D10*
G04 #@! TO.C,U1*
G36*
X217927839Y-50524399D02*
X217947981Y-50527387D01*
X217967734Y-50532335D01*
X217986907Y-50539195D01*
X218005315Y-50547901D01*
X218022781Y-50558370D01*
X218039137Y-50570500D01*
X218054225Y-50584175D01*
X218067900Y-50599263D01*
X218080030Y-50615619D01*
X218090499Y-50633085D01*
X218099205Y-50651493D01*
X218106065Y-50670666D01*
X218111013Y-50690419D01*
X218114001Y-50710561D01*
X218115000Y-50730900D01*
X218115000Y-51145900D01*
X218114001Y-51166239D01*
X218111013Y-51186381D01*
X218106065Y-51206134D01*
X218099205Y-51225307D01*
X218090499Y-51243715D01*
X218080030Y-51261181D01*
X218067900Y-51277537D01*
X218054225Y-51292625D01*
X218039137Y-51306300D01*
X218022781Y-51318430D01*
X218005315Y-51328899D01*
X217986907Y-51337605D01*
X217967734Y-51344465D01*
X217947981Y-51349413D01*
X217927839Y-51352401D01*
X217907500Y-51353400D01*
X217492500Y-51353400D01*
X217472161Y-51352401D01*
X217452019Y-51349413D01*
X217432266Y-51344465D01*
X217413093Y-51337605D01*
X217394685Y-51328899D01*
X217377219Y-51318430D01*
X217360863Y-51306300D01*
X217345775Y-51292625D01*
X217332100Y-51277537D01*
X217319970Y-51261181D01*
X217309501Y-51243715D01*
X217300795Y-51225307D01*
X217293935Y-51206134D01*
X217288987Y-51186381D01*
X217285999Y-51166239D01*
X217285000Y-51145900D01*
X217285000Y-50730900D01*
X217285999Y-50710561D01*
X217288987Y-50690419D01*
X217293935Y-50670666D01*
X217300795Y-50651493D01*
X217309501Y-50633085D01*
X217319970Y-50615619D01*
X217332100Y-50599263D01*
X217345775Y-50584175D01*
X217360863Y-50570500D01*
X217377219Y-50558370D01*
X217394685Y-50547901D01*
X217413093Y-50539195D01*
X217432266Y-50532335D01*
X217452019Y-50527387D01*
X217472161Y-50524399D01*
X217492500Y-50523400D01*
X217907500Y-50523400D01*
X217927839Y-50524399D01*
X217927839Y-50524399D01*
G37*
D16*
X217700000Y-50938400D03*
D10*
G36*
X217927839Y-51554399D02*
X217947981Y-51557387D01*
X217967734Y-51562335D01*
X217986907Y-51569195D01*
X218005315Y-51577901D01*
X218022781Y-51588370D01*
X218039137Y-51600500D01*
X218054225Y-51614175D01*
X218067900Y-51629263D01*
X218080030Y-51645619D01*
X218090499Y-51663085D01*
X218099205Y-51681493D01*
X218106065Y-51700666D01*
X218111013Y-51720419D01*
X218114001Y-51740561D01*
X218115000Y-51760900D01*
X218115000Y-52175900D01*
X218114001Y-52196239D01*
X218111013Y-52216381D01*
X218106065Y-52236134D01*
X218099205Y-52255307D01*
X218090499Y-52273715D01*
X218080030Y-52291181D01*
X218067900Y-52307537D01*
X218054225Y-52322625D01*
X218039137Y-52336300D01*
X218022781Y-52348430D01*
X218005315Y-52358899D01*
X217986907Y-52367605D01*
X217967734Y-52374465D01*
X217947981Y-52379413D01*
X217927839Y-52382401D01*
X217907500Y-52383400D01*
X217492500Y-52383400D01*
X217472161Y-52382401D01*
X217452019Y-52379413D01*
X217432266Y-52374465D01*
X217413093Y-52367605D01*
X217394685Y-52358899D01*
X217377219Y-52348430D01*
X217360863Y-52336300D01*
X217345775Y-52322625D01*
X217332100Y-52307537D01*
X217319970Y-52291181D01*
X217309501Y-52273715D01*
X217300795Y-52255307D01*
X217293935Y-52236134D01*
X217288987Y-52216381D01*
X217285999Y-52196239D01*
X217285000Y-52175900D01*
X217285000Y-51760900D01*
X217285999Y-51740561D01*
X217288987Y-51720419D01*
X217293935Y-51700666D01*
X217300795Y-51681493D01*
X217309501Y-51663085D01*
X217319970Y-51645619D01*
X217332100Y-51629263D01*
X217345775Y-51614175D01*
X217360863Y-51600500D01*
X217377219Y-51588370D01*
X217394685Y-51577901D01*
X217413093Y-51569195D01*
X217432266Y-51562335D01*
X217452019Y-51557387D01*
X217472161Y-51554399D01*
X217492500Y-51553400D01*
X217907500Y-51553400D01*
X217927839Y-51554399D01*
X217927839Y-51554399D01*
G37*
D16*
X217700000Y-51968400D03*
D10*
G36*
X217927839Y-52584399D02*
X217947981Y-52587387D01*
X217967734Y-52592335D01*
X217986907Y-52599195D01*
X218005315Y-52607901D01*
X218022781Y-52618370D01*
X218039137Y-52630500D01*
X218054225Y-52644175D01*
X218067900Y-52659263D01*
X218080030Y-52675619D01*
X218090499Y-52693085D01*
X218099205Y-52711493D01*
X218106065Y-52730666D01*
X218111013Y-52750419D01*
X218114001Y-52770561D01*
X218115000Y-52790900D01*
X218115000Y-53205900D01*
X218114001Y-53226239D01*
X218111013Y-53246381D01*
X218106065Y-53266134D01*
X218099205Y-53285307D01*
X218090499Y-53303715D01*
X218080030Y-53321181D01*
X218067900Y-53337537D01*
X218054225Y-53352625D01*
X218039137Y-53366300D01*
X218022781Y-53378430D01*
X218005315Y-53388899D01*
X217986907Y-53397605D01*
X217967734Y-53404465D01*
X217947981Y-53409413D01*
X217927839Y-53412401D01*
X217907500Y-53413400D01*
X217492500Y-53413400D01*
X217472161Y-53412401D01*
X217452019Y-53409413D01*
X217432266Y-53404465D01*
X217413093Y-53397605D01*
X217394685Y-53388899D01*
X217377219Y-53378430D01*
X217360863Y-53366300D01*
X217345775Y-53352625D01*
X217332100Y-53337537D01*
X217319970Y-53321181D01*
X217309501Y-53303715D01*
X217300795Y-53285307D01*
X217293935Y-53266134D01*
X217288987Y-53246381D01*
X217285999Y-53226239D01*
X217285000Y-53205900D01*
X217285000Y-52790900D01*
X217285999Y-52770561D01*
X217288987Y-52750419D01*
X217293935Y-52730666D01*
X217300795Y-52711493D01*
X217309501Y-52693085D01*
X217319970Y-52675619D01*
X217332100Y-52659263D01*
X217345775Y-52644175D01*
X217360863Y-52630500D01*
X217377219Y-52618370D01*
X217394685Y-52607901D01*
X217413093Y-52599195D01*
X217432266Y-52592335D01*
X217452019Y-52587387D01*
X217472161Y-52584399D01*
X217492500Y-52583400D01*
X217907500Y-52583400D01*
X217927839Y-52584399D01*
X217927839Y-52584399D01*
G37*
D16*
X217700000Y-52998400D03*
D10*
G36*
X218957839Y-50524399D02*
X218977981Y-50527387D01*
X218997734Y-50532335D01*
X219016907Y-50539195D01*
X219035315Y-50547901D01*
X219052781Y-50558370D01*
X219069137Y-50570500D01*
X219084225Y-50584175D01*
X219097900Y-50599263D01*
X219110030Y-50615619D01*
X219120499Y-50633085D01*
X219129205Y-50651493D01*
X219136065Y-50670666D01*
X219141013Y-50690419D01*
X219144001Y-50710561D01*
X219145000Y-50730900D01*
X219145000Y-51145900D01*
X219144001Y-51166239D01*
X219141013Y-51186381D01*
X219136065Y-51206134D01*
X219129205Y-51225307D01*
X219120499Y-51243715D01*
X219110030Y-51261181D01*
X219097900Y-51277537D01*
X219084225Y-51292625D01*
X219069137Y-51306300D01*
X219052781Y-51318430D01*
X219035315Y-51328899D01*
X219016907Y-51337605D01*
X218997734Y-51344465D01*
X218977981Y-51349413D01*
X218957839Y-51352401D01*
X218937500Y-51353400D01*
X218522500Y-51353400D01*
X218502161Y-51352401D01*
X218482019Y-51349413D01*
X218462266Y-51344465D01*
X218443093Y-51337605D01*
X218424685Y-51328899D01*
X218407219Y-51318430D01*
X218390863Y-51306300D01*
X218375775Y-51292625D01*
X218362100Y-51277537D01*
X218349970Y-51261181D01*
X218339501Y-51243715D01*
X218330795Y-51225307D01*
X218323935Y-51206134D01*
X218318987Y-51186381D01*
X218315999Y-51166239D01*
X218315000Y-51145900D01*
X218315000Y-50730900D01*
X218315999Y-50710561D01*
X218318987Y-50690419D01*
X218323935Y-50670666D01*
X218330795Y-50651493D01*
X218339501Y-50633085D01*
X218349970Y-50615619D01*
X218362100Y-50599263D01*
X218375775Y-50584175D01*
X218390863Y-50570500D01*
X218407219Y-50558370D01*
X218424685Y-50547901D01*
X218443093Y-50539195D01*
X218462266Y-50532335D01*
X218482019Y-50527387D01*
X218502161Y-50524399D01*
X218522500Y-50523400D01*
X218937500Y-50523400D01*
X218957839Y-50524399D01*
X218957839Y-50524399D01*
G37*
D16*
X218730000Y-50938400D03*
D10*
G36*
X218957839Y-51554399D02*
X218977981Y-51557387D01*
X218997734Y-51562335D01*
X219016907Y-51569195D01*
X219035315Y-51577901D01*
X219052781Y-51588370D01*
X219069137Y-51600500D01*
X219084225Y-51614175D01*
X219097900Y-51629263D01*
X219110030Y-51645619D01*
X219120499Y-51663085D01*
X219129205Y-51681493D01*
X219136065Y-51700666D01*
X219141013Y-51720419D01*
X219144001Y-51740561D01*
X219145000Y-51760900D01*
X219145000Y-52175900D01*
X219144001Y-52196239D01*
X219141013Y-52216381D01*
X219136065Y-52236134D01*
X219129205Y-52255307D01*
X219120499Y-52273715D01*
X219110030Y-52291181D01*
X219097900Y-52307537D01*
X219084225Y-52322625D01*
X219069137Y-52336300D01*
X219052781Y-52348430D01*
X219035315Y-52358899D01*
X219016907Y-52367605D01*
X218997734Y-52374465D01*
X218977981Y-52379413D01*
X218957839Y-52382401D01*
X218937500Y-52383400D01*
X218522500Y-52383400D01*
X218502161Y-52382401D01*
X218482019Y-52379413D01*
X218462266Y-52374465D01*
X218443093Y-52367605D01*
X218424685Y-52358899D01*
X218407219Y-52348430D01*
X218390863Y-52336300D01*
X218375775Y-52322625D01*
X218362100Y-52307537D01*
X218349970Y-52291181D01*
X218339501Y-52273715D01*
X218330795Y-52255307D01*
X218323935Y-52236134D01*
X218318987Y-52216381D01*
X218315999Y-52196239D01*
X218315000Y-52175900D01*
X218315000Y-51760900D01*
X218315999Y-51740561D01*
X218318987Y-51720419D01*
X218323935Y-51700666D01*
X218330795Y-51681493D01*
X218339501Y-51663085D01*
X218349970Y-51645619D01*
X218362100Y-51629263D01*
X218375775Y-51614175D01*
X218390863Y-51600500D01*
X218407219Y-51588370D01*
X218424685Y-51577901D01*
X218443093Y-51569195D01*
X218462266Y-51562335D01*
X218482019Y-51557387D01*
X218502161Y-51554399D01*
X218522500Y-51553400D01*
X218937500Y-51553400D01*
X218957839Y-51554399D01*
X218957839Y-51554399D01*
G37*
D16*
X218730000Y-51968400D03*
D10*
G36*
X218957839Y-52584399D02*
X218977981Y-52587387D01*
X218997734Y-52592335D01*
X219016907Y-52599195D01*
X219035315Y-52607901D01*
X219052781Y-52618370D01*
X219069137Y-52630500D01*
X219084225Y-52644175D01*
X219097900Y-52659263D01*
X219110030Y-52675619D01*
X219120499Y-52693085D01*
X219129205Y-52711493D01*
X219136065Y-52730666D01*
X219141013Y-52750419D01*
X219144001Y-52770561D01*
X219145000Y-52790900D01*
X219145000Y-53205900D01*
X219144001Y-53226239D01*
X219141013Y-53246381D01*
X219136065Y-53266134D01*
X219129205Y-53285307D01*
X219120499Y-53303715D01*
X219110030Y-53321181D01*
X219097900Y-53337537D01*
X219084225Y-53352625D01*
X219069137Y-53366300D01*
X219052781Y-53378430D01*
X219035315Y-53388899D01*
X219016907Y-53397605D01*
X218997734Y-53404465D01*
X218977981Y-53409413D01*
X218957839Y-53412401D01*
X218937500Y-53413400D01*
X218522500Y-53413400D01*
X218502161Y-53412401D01*
X218482019Y-53409413D01*
X218462266Y-53404465D01*
X218443093Y-53397605D01*
X218424685Y-53388899D01*
X218407219Y-53378430D01*
X218390863Y-53366300D01*
X218375775Y-53352625D01*
X218362100Y-53337537D01*
X218349970Y-53321181D01*
X218339501Y-53303715D01*
X218330795Y-53285307D01*
X218323935Y-53266134D01*
X218318987Y-53246381D01*
X218315999Y-53226239D01*
X218315000Y-53205900D01*
X218315000Y-52790900D01*
X218315999Y-52770561D01*
X218318987Y-52750419D01*
X218323935Y-52730666D01*
X218330795Y-52711493D01*
X218339501Y-52693085D01*
X218349970Y-52675619D01*
X218362100Y-52659263D01*
X218375775Y-52644175D01*
X218390863Y-52630500D01*
X218407219Y-52618370D01*
X218424685Y-52607901D01*
X218443093Y-52599195D01*
X218462266Y-52592335D01*
X218482019Y-52587387D01*
X218502161Y-52584399D01*
X218522500Y-52583400D01*
X218937500Y-52583400D01*
X218957839Y-52584399D01*
X218957839Y-52584399D01*
G37*
D16*
X218730000Y-52998400D03*
D10*
G36*
X219987839Y-50524399D02*
X220007981Y-50527387D01*
X220027734Y-50532335D01*
X220046907Y-50539195D01*
X220065315Y-50547901D01*
X220082781Y-50558370D01*
X220099137Y-50570500D01*
X220114225Y-50584175D01*
X220127900Y-50599263D01*
X220140030Y-50615619D01*
X220150499Y-50633085D01*
X220159205Y-50651493D01*
X220166065Y-50670666D01*
X220171013Y-50690419D01*
X220174001Y-50710561D01*
X220175000Y-50730900D01*
X220175000Y-51145900D01*
X220174001Y-51166239D01*
X220171013Y-51186381D01*
X220166065Y-51206134D01*
X220159205Y-51225307D01*
X220150499Y-51243715D01*
X220140030Y-51261181D01*
X220127900Y-51277537D01*
X220114225Y-51292625D01*
X220099137Y-51306300D01*
X220082781Y-51318430D01*
X220065315Y-51328899D01*
X220046907Y-51337605D01*
X220027734Y-51344465D01*
X220007981Y-51349413D01*
X219987839Y-51352401D01*
X219967500Y-51353400D01*
X219552500Y-51353400D01*
X219532161Y-51352401D01*
X219512019Y-51349413D01*
X219492266Y-51344465D01*
X219473093Y-51337605D01*
X219454685Y-51328899D01*
X219437219Y-51318430D01*
X219420863Y-51306300D01*
X219405775Y-51292625D01*
X219392100Y-51277537D01*
X219379970Y-51261181D01*
X219369501Y-51243715D01*
X219360795Y-51225307D01*
X219353935Y-51206134D01*
X219348987Y-51186381D01*
X219345999Y-51166239D01*
X219345000Y-51145900D01*
X219345000Y-50730900D01*
X219345999Y-50710561D01*
X219348987Y-50690419D01*
X219353935Y-50670666D01*
X219360795Y-50651493D01*
X219369501Y-50633085D01*
X219379970Y-50615619D01*
X219392100Y-50599263D01*
X219405775Y-50584175D01*
X219420863Y-50570500D01*
X219437219Y-50558370D01*
X219454685Y-50547901D01*
X219473093Y-50539195D01*
X219492266Y-50532335D01*
X219512019Y-50527387D01*
X219532161Y-50524399D01*
X219552500Y-50523400D01*
X219967500Y-50523400D01*
X219987839Y-50524399D01*
X219987839Y-50524399D01*
G37*
D16*
X219760000Y-50938400D03*
D10*
G36*
X219987839Y-51554399D02*
X220007981Y-51557387D01*
X220027734Y-51562335D01*
X220046907Y-51569195D01*
X220065315Y-51577901D01*
X220082781Y-51588370D01*
X220099137Y-51600500D01*
X220114225Y-51614175D01*
X220127900Y-51629263D01*
X220140030Y-51645619D01*
X220150499Y-51663085D01*
X220159205Y-51681493D01*
X220166065Y-51700666D01*
X220171013Y-51720419D01*
X220174001Y-51740561D01*
X220175000Y-51760900D01*
X220175000Y-52175900D01*
X220174001Y-52196239D01*
X220171013Y-52216381D01*
X220166065Y-52236134D01*
X220159205Y-52255307D01*
X220150499Y-52273715D01*
X220140030Y-52291181D01*
X220127900Y-52307537D01*
X220114225Y-52322625D01*
X220099137Y-52336300D01*
X220082781Y-52348430D01*
X220065315Y-52358899D01*
X220046907Y-52367605D01*
X220027734Y-52374465D01*
X220007981Y-52379413D01*
X219987839Y-52382401D01*
X219967500Y-52383400D01*
X219552500Y-52383400D01*
X219532161Y-52382401D01*
X219512019Y-52379413D01*
X219492266Y-52374465D01*
X219473093Y-52367605D01*
X219454685Y-52358899D01*
X219437219Y-52348430D01*
X219420863Y-52336300D01*
X219405775Y-52322625D01*
X219392100Y-52307537D01*
X219379970Y-52291181D01*
X219369501Y-52273715D01*
X219360795Y-52255307D01*
X219353935Y-52236134D01*
X219348987Y-52216381D01*
X219345999Y-52196239D01*
X219345000Y-52175900D01*
X219345000Y-51760900D01*
X219345999Y-51740561D01*
X219348987Y-51720419D01*
X219353935Y-51700666D01*
X219360795Y-51681493D01*
X219369501Y-51663085D01*
X219379970Y-51645619D01*
X219392100Y-51629263D01*
X219405775Y-51614175D01*
X219420863Y-51600500D01*
X219437219Y-51588370D01*
X219454685Y-51577901D01*
X219473093Y-51569195D01*
X219492266Y-51562335D01*
X219512019Y-51557387D01*
X219532161Y-51554399D01*
X219552500Y-51553400D01*
X219967500Y-51553400D01*
X219987839Y-51554399D01*
X219987839Y-51554399D01*
G37*
D16*
X219760000Y-51968400D03*
D10*
G36*
X219987839Y-52584399D02*
X220007981Y-52587387D01*
X220027734Y-52592335D01*
X220046907Y-52599195D01*
X220065315Y-52607901D01*
X220082781Y-52618370D01*
X220099137Y-52630500D01*
X220114225Y-52644175D01*
X220127900Y-52659263D01*
X220140030Y-52675619D01*
X220150499Y-52693085D01*
X220159205Y-52711493D01*
X220166065Y-52730666D01*
X220171013Y-52750419D01*
X220174001Y-52770561D01*
X220175000Y-52790900D01*
X220175000Y-53205900D01*
X220174001Y-53226239D01*
X220171013Y-53246381D01*
X220166065Y-53266134D01*
X220159205Y-53285307D01*
X220150499Y-53303715D01*
X220140030Y-53321181D01*
X220127900Y-53337537D01*
X220114225Y-53352625D01*
X220099137Y-53366300D01*
X220082781Y-53378430D01*
X220065315Y-53388899D01*
X220046907Y-53397605D01*
X220027734Y-53404465D01*
X220007981Y-53409413D01*
X219987839Y-53412401D01*
X219967500Y-53413400D01*
X219552500Y-53413400D01*
X219532161Y-53412401D01*
X219512019Y-53409413D01*
X219492266Y-53404465D01*
X219473093Y-53397605D01*
X219454685Y-53388899D01*
X219437219Y-53378430D01*
X219420863Y-53366300D01*
X219405775Y-53352625D01*
X219392100Y-53337537D01*
X219379970Y-53321181D01*
X219369501Y-53303715D01*
X219360795Y-53285307D01*
X219353935Y-53266134D01*
X219348987Y-53246381D01*
X219345999Y-53226239D01*
X219345000Y-53205900D01*
X219345000Y-52790900D01*
X219345999Y-52770561D01*
X219348987Y-52750419D01*
X219353935Y-52730666D01*
X219360795Y-52711493D01*
X219369501Y-52693085D01*
X219379970Y-52675619D01*
X219392100Y-52659263D01*
X219405775Y-52644175D01*
X219420863Y-52630500D01*
X219437219Y-52618370D01*
X219454685Y-52607901D01*
X219473093Y-52599195D01*
X219492266Y-52592335D01*
X219512019Y-52587387D01*
X219532161Y-52584399D01*
X219552500Y-52583400D01*
X219967500Y-52583400D01*
X219987839Y-52584399D01*
X219987839Y-52584399D01*
G37*
D16*
X219760000Y-52998400D03*
D10*
G36*
X216673626Y-50093701D02*
X216679693Y-50094601D01*
X216685643Y-50096091D01*
X216691418Y-50098158D01*
X216696962Y-50100780D01*
X216702223Y-50103933D01*
X216707150Y-50107587D01*
X216711694Y-50111706D01*
X216715813Y-50116250D01*
X216719467Y-50121177D01*
X216722620Y-50126438D01*
X216725242Y-50131982D01*
X216727309Y-50137757D01*
X216728799Y-50143707D01*
X216729699Y-50149774D01*
X216730000Y-50155900D01*
X216730000Y-50280900D01*
X216729699Y-50287026D01*
X216728799Y-50293093D01*
X216727309Y-50299043D01*
X216725242Y-50304818D01*
X216722620Y-50310362D01*
X216719467Y-50315623D01*
X216715813Y-50320550D01*
X216711694Y-50325094D01*
X216707150Y-50329213D01*
X216702223Y-50332867D01*
X216696962Y-50336020D01*
X216691418Y-50338642D01*
X216685643Y-50340709D01*
X216679693Y-50342199D01*
X216673626Y-50343099D01*
X216667500Y-50343400D01*
X215917500Y-50343400D01*
X215911374Y-50343099D01*
X215905307Y-50342199D01*
X215899357Y-50340709D01*
X215893582Y-50338642D01*
X215888038Y-50336020D01*
X215882777Y-50332867D01*
X215877850Y-50329213D01*
X215873306Y-50325094D01*
X215869187Y-50320550D01*
X215865533Y-50315623D01*
X215862380Y-50310362D01*
X215859758Y-50304818D01*
X215857691Y-50299043D01*
X215856201Y-50293093D01*
X215855301Y-50287026D01*
X215855000Y-50280900D01*
X215855000Y-50155900D01*
X215855301Y-50149774D01*
X215856201Y-50143707D01*
X215857691Y-50137757D01*
X215859758Y-50131982D01*
X215862380Y-50126438D01*
X215865533Y-50121177D01*
X215869187Y-50116250D01*
X215873306Y-50111706D01*
X215877850Y-50107587D01*
X215882777Y-50103933D01*
X215888038Y-50100780D01*
X215893582Y-50098158D01*
X215899357Y-50096091D01*
X215905307Y-50094601D01*
X215911374Y-50093701D01*
X215917500Y-50093400D01*
X216667500Y-50093400D01*
X216673626Y-50093701D01*
X216673626Y-50093701D01*
G37*
D17*
X216292500Y-50218400D03*
D10*
G36*
X216673626Y-50593701D02*
X216679693Y-50594601D01*
X216685643Y-50596091D01*
X216691418Y-50598158D01*
X216696962Y-50600780D01*
X216702223Y-50603933D01*
X216707150Y-50607587D01*
X216711694Y-50611706D01*
X216715813Y-50616250D01*
X216719467Y-50621177D01*
X216722620Y-50626438D01*
X216725242Y-50631982D01*
X216727309Y-50637757D01*
X216728799Y-50643707D01*
X216729699Y-50649774D01*
X216730000Y-50655900D01*
X216730000Y-50780900D01*
X216729699Y-50787026D01*
X216728799Y-50793093D01*
X216727309Y-50799043D01*
X216725242Y-50804818D01*
X216722620Y-50810362D01*
X216719467Y-50815623D01*
X216715813Y-50820550D01*
X216711694Y-50825094D01*
X216707150Y-50829213D01*
X216702223Y-50832867D01*
X216696962Y-50836020D01*
X216691418Y-50838642D01*
X216685643Y-50840709D01*
X216679693Y-50842199D01*
X216673626Y-50843099D01*
X216667500Y-50843400D01*
X215917500Y-50843400D01*
X215911374Y-50843099D01*
X215905307Y-50842199D01*
X215899357Y-50840709D01*
X215893582Y-50838642D01*
X215888038Y-50836020D01*
X215882777Y-50832867D01*
X215877850Y-50829213D01*
X215873306Y-50825094D01*
X215869187Y-50820550D01*
X215865533Y-50815623D01*
X215862380Y-50810362D01*
X215859758Y-50804818D01*
X215857691Y-50799043D01*
X215856201Y-50793093D01*
X215855301Y-50787026D01*
X215855000Y-50780900D01*
X215855000Y-50655900D01*
X215855301Y-50649774D01*
X215856201Y-50643707D01*
X215857691Y-50637757D01*
X215859758Y-50631982D01*
X215862380Y-50626438D01*
X215865533Y-50621177D01*
X215869187Y-50616250D01*
X215873306Y-50611706D01*
X215877850Y-50607587D01*
X215882777Y-50603933D01*
X215888038Y-50600780D01*
X215893582Y-50598158D01*
X215899357Y-50596091D01*
X215905307Y-50594601D01*
X215911374Y-50593701D01*
X215917500Y-50593400D01*
X216667500Y-50593400D01*
X216673626Y-50593701D01*
X216673626Y-50593701D01*
G37*
D17*
X216292500Y-50718400D03*
D10*
G36*
X216673626Y-51093701D02*
X216679693Y-51094601D01*
X216685643Y-51096091D01*
X216691418Y-51098158D01*
X216696962Y-51100780D01*
X216702223Y-51103933D01*
X216707150Y-51107587D01*
X216711694Y-51111706D01*
X216715813Y-51116250D01*
X216719467Y-51121177D01*
X216722620Y-51126438D01*
X216725242Y-51131982D01*
X216727309Y-51137757D01*
X216728799Y-51143707D01*
X216729699Y-51149774D01*
X216730000Y-51155900D01*
X216730000Y-51280900D01*
X216729699Y-51287026D01*
X216728799Y-51293093D01*
X216727309Y-51299043D01*
X216725242Y-51304818D01*
X216722620Y-51310362D01*
X216719467Y-51315623D01*
X216715813Y-51320550D01*
X216711694Y-51325094D01*
X216707150Y-51329213D01*
X216702223Y-51332867D01*
X216696962Y-51336020D01*
X216691418Y-51338642D01*
X216685643Y-51340709D01*
X216679693Y-51342199D01*
X216673626Y-51343099D01*
X216667500Y-51343400D01*
X215917500Y-51343400D01*
X215911374Y-51343099D01*
X215905307Y-51342199D01*
X215899357Y-51340709D01*
X215893582Y-51338642D01*
X215888038Y-51336020D01*
X215882777Y-51332867D01*
X215877850Y-51329213D01*
X215873306Y-51325094D01*
X215869187Y-51320550D01*
X215865533Y-51315623D01*
X215862380Y-51310362D01*
X215859758Y-51304818D01*
X215857691Y-51299043D01*
X215856201Y-51293093D01*
X215855301Y-51287026D01*
X215855000Y-51280900D01*
X215855000Y-51155900D01*
X215855301Y-51149774D01*
X215856201Y-51143707D01*
X215857691Y-51137757D01*
X215859758Y-51131982D01*
X215862380Y-51126438D01*
X215865533Y-51121177D01*
X215869187Y-51116250D01*
X215873306Y-51111706D01*
X215877850Y-51107587D01*
X215882777Y-51103933D01*
X215888038Y-51100780D01*
X215893582Y-51098158D01*
X215899357Y-51096091D01*
X215905307Y-51094601D01*
X215911374Y-51093701D01*
X215917500Y-51093400D01*
X216667500Y-51093400D01*
X216673626Y-51093701D01*
X216673626Y-51093701D01*
G37*
D17*
X216292500Y-51218400D03*
D10*
G36*
X216673626Y-51593701D02*
X216679693Y-51594601D01*
X216685643Y-51596091D01*
X216691418Y-51598158D01*
X216696962Y-51600780D01*
X216702223Y-51603933D01*
X216707150Y-51607587D01*
X216711694Y-51611706D01*
X216715813Y-51616250D01*
X216719467Y-51621177D01*
X216722620Y-51626438D01*
X216725242Y-51631982D01*
X216727309Y-51637757D01*
X216728799Y-51643707D01*
X216729699Y-51649774D01*
X216730000Y-51655900D01*
X216730000Y-51780900D01*
X216729699Y-51787026D01*
X216728799Y-51793093D01*
X216727309Y-51799043D01*
X216725242Y-51804818D01*
X216722620Y-51810362D01*
X216719467Y-51815623D01*
X216715813Y-51820550D01*
X216711694Y-51825094D01*
X216707150Y-51829213D01*
X216702223Y-51832867D01*
X216696962Y-51836020D01*
X216691418Y-51838642D01*
X216685643Y-51840709D01*
X216679693Y-51842199D01*
X216673626Y-51843099D01*
X216667500Y-51843400D01*
X215917500Y-51843400D01*
X215911374Y-51843099D01*
X215905307Y-51842199D01*
X215899357Y-51840709D01*
X215893582Y-51838642D01*
X215888038Y-51836020D01*
X215882777Y-51832867D01*
X215877850Y-51829213D01*
X215873306Y-51825094D01*
X215869187Y-51820550D01*
X215865533Y-51815623D01*
X215862380Y-51810362D01*
X215859758Y-51804818D01*
X215857691Y-51799043D01*
X215856201Y-51793093D01*
X215855301Y-51787026D01*
X215855000Y-51780900D01*
X215855000Y-51655900D01*
X215855301Y-51649774D01*
X215856201Y-51643707D01*
X215857691Y-51637757D01*
X215859758Y-51631982D01*
X215862380Y-51626438D01*
X215865533Y-51621177D01*
X215869187Y-51616250D01*
X215873306Y-51611706D01*
X215877850Y-51607587D01*
X215882777Y-51603933D01*
X215888038Y-51600780D01*
X215893582Y-51598158D01*
X215899357Y-51596091D01*
X215905307Y-51594601D01*
X215911374Y-51593701D01*
X215917500Y-51593400D01*
X216667500Y-51593400D01*
X216673626Y-51593701D01*
X216673626Y-51593701D01*
G37*
D17*
X216292500Y-51718400D03*
D10*
G36*
X216673626Y-52093701D02*
X216679693Y-52094601D01*
X216685643Y-52096091D01*
X216691418Y-52098158D01*
X216696962Y-52100780D01*
X216702223Y-52103933D01*
X216707150Y-52107587D01*
X216711694Y-52111706D01*
X216715813Y-52116250D01*
X216719467Y-52121177D01*
X216722620Y-52126438D01*
X216725242Y-52131982D01*
X216727309Y-52137757D01*
X216728799Y-52143707D01*
X216729699Y-52149774D01*
X216730000Y-52155900D01*
X216730000Y-52280900D01*
X216729699Y-52287026D01*
X216728799Y-52293093D01*
X216727309Y-52299043D01*
X216725242Y-52304818D01*
X216722620Y-52310362D01*
X216719467Y-52315623D01*
X216715813Y-52320550D01*
X216711694Y-52325094D01*
X216707150Y-52329213D01*
X216702223Y-52332867D01*
X216696962Y-52336020D01*
X216691418Y-52338642D01*
X216685643Y-52340709D01*
X216679693Y-52342199D01*
X216673626Y-52343099D01*
X216667500Y-52343400D01*
X215917500Y-52343400D01*
X215911374Y-52343099D01*
X215905307Y-52342199D01*
X215899357Y-52340709D01*
X215893582Y-52338642D01*
X215888038Y-52336020D01*
X215882777Y-52332867D01*
X215877850Y-52329213D01*
X215873306Y-52325094D01*
X215869187Y-52320550D01*
X215865533Y-52315623D01*
X215862380Y-52310362D01*
X215859758Y-52304818D01*
X215857691Y-52299043D01*
X215856201Y-52293093D01*
X215855301Y-52287026D01*
X215855000Y-52280900D01*
X215855000Y-52155900D01*
X215855301Y-52149774D01*
X215856201Y-52143707D01*
X215857691Y-52137757D01*
X215859758Y-52131982D01*
X215862380Y-52126438D01*
X215865533Y-52121177D01*
X215869187Y-52116250D01*
X215873306Y-52111706D01*
X215877850Y-52107587D01*
X215882777Y-52103933D01*
X215888038Y-52100780D01*
X215893582Y-52098158D01*
X215899357Y-52096091D01*
X215905307Y-52094601D01*
X215911374Y-52093701D01*
X215917500Y-52093400D01*
X216667500Y-52093400D01*
X216673626Y-52093701D01*
X216673626Y-52093701D01*
G37*
D17*
X216292500Y-52218400D03*
D10*
G36*
X216673626Y-52593701D02*
X216679693Y-52594601D01*
X216685643Y-52596091D01*
X216691418Y-52598158D01*
X216696962Y-52600780D01*
X216702223Y-52603933D01*
X216707150Y-52607587D01*
X216711694Y-52611706D01*
X216715813Y-52616250D01*
X216719467Y-52621177D01*
X216722620Y-52626438D01*
X216725242Y-52631982D01*
X216727309Y-52637757D01*
X216728799Y-52643707D01*
X216729699Y-52649774D01*
X216730000Y-52655900D01*
X216730000Y-52780900D01*
X216729699Y-52787026D01*
X216728799Y-52793093D01*
X216727309Y-52799043D01*
X216725242Y-52804818D01*
X216722620Y-52810362D01*
X216719467Y-52815623D01*
X216715813Y-52820550D01*
X216711694Y-52825094D01*
X216707150Y-52829213D01*
X216702223Y-52832867D01*
X216696962Y-52836020D01*
X216691418Y-52838642D01*
X216685643Y-52840709D01*
X216679693Y-52842199D01*
X216673626Y-52843099D01*
X216667500Y-52843400D01*
X215917500Y-52843400D01*
X215911374Y-52843099D01*
X215905307Y-52842199D01*
X215899357Y-52840709D01*
X215893582Y-52838642D01*
X215888038Y-52836020D01*
X215882777Y-52832867D01*
X215877850Y-52829213D01*
X215873306Y-52825094D01*
X215869187Y-52820550D01*
X215865533Y-52815623D01*
X215862380Y-52810362D01*
X215859758Y-52804818D01*
X215857691Y-52799043D01*
X215856201Y-52793093D01*
X215855301Y-52787026D01*
X215855000Y-52780900D01*
X215855000Y-52655900D01*
X215855301Y-52649774D01*
X215856201Y-52643707D01*
X215857691Y-52637757D01*
X215859758Y-52631982D01*
X215862380Y-52626438D01*
X215865533Y-52621177D01*
X215869187Y-52616250D01*
X215873306Y-52611706D01*
X215877850Y-52607587D01*
X215882777Y-52603933D01*
X215888038Y-52600780D01*
X215893582Y-52598158D01*
X215899357Y-52596091D01*
X215905307Y-52594601D01*
X215911374Y-52593701D01*
X215917500Y-52593400D01*
X216667500Y-52593400D01*
X216673626Y-52593701D01*
X216673626Y-52593701D01*
G37*
D17*
X216292500Y-52718400D03*
D10*
G36*
X216673626Y-53093701D02*
X216679693Y-53094601D01*
X216685643Y-53096091D01*
X216691418Y-53098158D01*
X216696962Y-53100780D01*
X216702223Y-53103933D01*
X216707150Y-53107587D01*
X216711694Y-53111706D01*
X216715813Y-53116250D01*
X216719467Y-53121177D01*
X216722620Y-53126438D01*
X216725242Y-53131982D01*
X216727309Y-53137757D01*
X216728799Y-53143707D01*
X216729699Y-53149774D01*
X216730000Y-53155900D01*
X216730000Y-53280900D01*
X216729699Y-53287026D01*
X216728799Y-53293093D01*
X216727309Y-53299043D01*
X216725242Y-53304818D01*
X216722620Y-53310362D01*
X216719467Y-53315623D01*
X216715813Y-53320550D01*
X216711694Y-53325094D01*
X216707150Y-53329213D01*
X216702223Y-53332867D01*
X216696962Y-53336020D01*
X216691418Y-53338642D01*
X216685643Y-53340709D01*
X216679693Y-53342199D01*
X216673626Y-53343099D01*
X216667500Y-53343400D01*
X215917500Y-53343400D01*
X215911374Y-53343099D01*
X215905307Y-53342199D01*
X215899357Y-53340709D01*
X215893582Y-53338642D01*
X215888038Y-53336020D01*
X215882777Y-53332867D01*
X215877850Y-53329213D01*
X215873306Y-53325094D01*
X215869187Y-53320550D01*
X215865533Y-53315623D01*
X215862380Y-53310362D01*
X215859758Y-53304818D01*
X215857691Y-53299043D01*
X215856201Y-53293093D01*
X215855301Y-53287026D01*
X215855000Y-53280900D01*
X215855000Y-53155900D01*
X215855301Y-53149774D01*
X215856201Y-53143707D01*
X215857691Y-53137757D01*
X215859758Y-53131982D01*
X215862380Y-53126438D01*
X215865533Y-53121177D01*
X215869187Y-53116250D01*
X215873306Y-53111706D01*
X215877850Y-53107587D01*
X215882777Y-53103933D01*
X215888038Y-53100780D01*
X215893582Y-53098158D01*
X215899357Y-53096091D01*
X215905307Y-53094601D01*
X215911374Y-53093701D01*
X215917500Y-53093400D01*
X216667500Y-53093400D01*
X216673626Y-53093701D01*
X216673626Y-53093701D01*
G37*
D17*
X216292500Y-53218400D03*
D10*
G36*
X216673626Y-53593701D02*
X216679693Y-53594601D01*
X216685643Y-53596091D01*
X216691418Y-53598158D01*
X216696962Y-53600780D01*
X216702223Y-53603933D01*
X216707150Y-53607587D01*
X216711694Y-53611706D01*
X216715813Y-53616250D01*
X216719467Y-53621177D01*
X216722620Y-53626438D01*
X216725242Y-53631982D01*
X216727309Y-53637757D01*
X216728799Y-53643707D01*
X216729699Y-53649774D01*
X216730000Y-53655900D01*
X216730000Y-53780900D01*
X216729699Y-53787026D01*
X216728799Y-53793093D01*
X216727309Y-53799043D01*
X216725242Y-53804818D01*
X216722620Y-53810362D01*
X216719467Y-53815623D01*
X216715813Y-53820550D01*
X216711694Y-53825094D01*
X216707150Y-53829213D01*
X216702223Y-53832867D01*
X216696962Y-53836020D01*
X216691418Y-53838642D01*
X216685643Y-53840709D01*
X216679693Y-53842199D01*
X216673626Y-53843099D01*
X216667500Y-53843400D01*
X215917500Y-53843400D01*
X215911374Y-53843099D01*
X215905307Y-53842199D01*
X215899357Y-53840709D01*
X215893582Y-53838642D01*
X215888038Y-53836020D01*
X215882777Y-53832867D01*
X215877850Y-53829213D01*
X215873306Y-53825094D01*
X215869187Y-53820550D01*
X215865533Y-53815623D01*
X215862380Y-53810362D01*
X215859758Y-53804818D01*
X215857691Y-53799043D01*
X215856201Y-53793093D01*
X215855301Y-53787026D01*
X215855000Y-53780900D01*
X215855000Y-53655900D01*
X215855301Y-53649774D01*
X215856201Y-53643707D01*
X215857691Y-53637757D01*
X215859758Y-53631982D01*
X215862380Y-53626438D01*
X215865533Y-53621177D01*
X215869187Y-53616250D01*
X215873306Y-53611706D01*
X215877850Y-53607587D01*
X215882777Y-53603933D01*
X215888038Y-53600780D01*
X215893582Y-53598158D01*
X215899357Y-53596091D01*
X215905307Y-53594601D01*
X215911374Y-53593701D01*
X215917500Y-53593400D01*
X216667500Y-53593400D01*
X216673626Y-53593701D01*
X216673626Y-53593701D01*
G37*
D17*
X216292500Y-53718400D03*
D10*
G36*
X217048626Y-53968701D02*
X217054693Y-53969601D01*
X217060643Y-53971091D01*
X217066418Y-53973158D01*
X217071962Y-53975780D01*
X217077223Y-53978933D01*
X217082150Y-53982587D01*
X217086694Y-53986706D01*
X217090813Y-53991250D01*
X217094467Y-53996177D01*
X217097620Y-54001438D01*
X217100242Y-54006982D01*
X217102309Y-54012757D01*
X217103799Y-54018707D01*
X217104699Y-54024774D01*
X217105000Y-54030900D01*
X217105000Y-54780900D01*
X217104699Y-54787026D01*
X217103799Y-54793093D01*
X217102309Y-54799043D01*
X217100242Y-54804818D01*
X217097620Y-54810362D01*
X217094467Y-54815623D01*
X217090813Y-54820550D01*
X217086694Y-54825094D01*
X217082150Y-54829213D01*
X217077223Y-54832867D01*
X217071962Y-54836020D01*
X217066418Y-54838642D01*
X217060643Y-54840709D01*
X217054693Y-54842199D01*
X217048626Y-54843099D01*
X217042500Y-54843400D01*
X216917500Y-54843400D01*
X216911374Y-54843099D01*
X216905307Y-54842199D01*
X216899357Y-54840709D01*
X216893582Y-54838642D01*
X216888038Y-54836020D01*
X216882777Y-54832867D01*
X216877850Y-54829213D01*
X216873306Y-54825094D01*
X216869187Y-54820550D01*
X216865533Y-54815623D01*
X216862380Y-54810362D01*
X216859758Y-54804818D01*
X216857691Y-54799043D01*
X216856201Y-54793093D01*
X216855301Y-54787026D01*
X216855000Y-54780900D01*
X216855000Y-54030900D01*
X216855301Y-54024774D01*
X216856201Y-54018707D01*
X216857691Y-54012757D01*
X216859758Y-54006982D01*
X216862380Y-54001438D01*
X216865533Y-53996177D01*
X216869187Y-53991250D01*
X216873306Y-53986706D01*
X216877850Y-53982587D01*
X216882777Y-53978933D01*
X216888038Y-53975780D01*
X216893582Y-53973158D01*
X216899357Y-53971091D01*
X216905307Y-53969601D01*
X216911374Y-53968701D01*
X216917500Y-53968400D01*
X217042500Y-53968400D01*
X217048626Y-53968701D01*
X217048626Y-53968701D01*
G37*
D17*
X216980000Y-54405900D03*
D10*
G36*
X217548626Y-53968701D02*
X217554693Y-53969601D01*
X217560643Y-53971091D01*
X217566418Y-53973158D01*
X217571962Y-53975780D01*
X217577223Y-53978933D01*
X217582150Y-53982587D01*
X217586694Y-53986706D01*
X217590813Y-53991250D01*
X217594467Y-53996177D01*
X217597620Y-54001438D01*
X217600242Y-54006982D01*
X217602309Y-54012757D01*
X217603799Y-54018707D01*
X217604699Y-54024774D01*
X217605000Y-54030900D01*
X217605000Y-54780900D01*
X217604699Y-54787026D01*
X217603799Y-54793093D01*
X217602309Y-54799043D01*
X217600242Y-54804818D01*
X217597620Y-54810362D01*
X217594467Y-54815623D01*
X217590813Y-54820550D01*
X217586694Y-54825094D01*
X217582150Y-54829213D01*
X217577223Y-54832867D01*
X217571962Y-54836020D01*
X217566418Y-54838642D01*
X217560643Y-54840709D01*
X217554693Y-54842199D01*
X217548626Y-54843099D01*
X217542500Y-54843400D01*
X217417500Y-54843400D01*
X217411374Y-54843099D01*
X217405307Y-54842199D01*
X217399357Y-54840709D01*
X217393582Y-54838642D01*
X217388038Y-54836020D01*
X217382777Y-54832867D01*
X217377850Y-54829213D01*
X217373306Y-54825094D01*
X217369187Y-54820550D01*
X217365533Y-54815623D01*
X217362380Y-54810362D01*
X217359758Y-54804818D01*
X217357691Y-54799043D01*
X217356201Y-54793093D01*
X217355301Y-54787026D01*
X217355000Y-54780900D01*
X217355000Y-54030900D01*
X217355301Y-54024774D01*
X217356201Y-54018707D01*
X217357691Y-54012757D01*
X217359758Y-54006982D01*
X217362380Y-54001438D01*
X217365533Y-53996177D01*
X217369187Y-53991250D01*
X217373306Y-53986706D01*
X217377850Y-53982587D01*
X217382777Y-53978933D01*
X217388038Y-53975780D01*
X217393582Y-53973158D01*
X217399357Y-53971091D01*
X217405307Y-53969601D01*
X217411374Y-53968701D01*
X217417500Y-53968400D01*
X217542500Y-53968400D01*
X217548626Y-53968701D01*
X217548626Y-53968701D01*
G37*
D17*
X217480000Y-54405900D03*
D10*
G36*
X218048626Y-53968701D02*
X218054693Y-53969601D01*
X218060643Y-53971091D01*
X218066418Y-53973158D01*
X218071962Y-53975780D01*
X218077223Y-53978933D01*
X218082150Y-53982587D01*
X218086694Y-53986706D01*
X218090813Y-53991250D01*
X218094467Y-53996177D01*
X218097620Y-54001438D01*
X218100242Y-54006982D01*
X218102309Y-54012757D01*
X218103799Y-54018707D01*
X218104699Y-54024774D01*
X218105000Y-54030900D01*
X218105000Y-54780900D01*
X218104699Y-54787026D01*
X218103799Y-54793093D01*
X218102309Y-54799043D01*
X218100242Y-54804818D01*
X218097620Y-54810362D01*
X218094467Y-54815623D01*
X218090813Y-54820550D01*
X218086694Y-54825094D01*
X218082150Y-54829213D01*
X218077223Y-54832867D01*
X218071962Y-54836020D01*
X218066418Y-54838642D01*
X218060643Y-54840709D01*
X218054693Y-54842199D01*
X218048626Y-54843099D01*
X218042500Y-54843400D01*
X217917500Y-54843400D01*
X217911374Y-54843099D01*
X217905307Y-54842199D01*
X217899357Y-54840709D01*
X217893582Y-54838642D01*
X217888038Y-54836020D01*
X217882777Y-54832867D01*
X217877850Y-54829213D01*
X217873306Y-54825094D01*
X217869187Y-54820550D01*
X217865533Y-54815623D01*
X217862380Y-54810362D01*
X217859758Y-54804818D01*
X217857691Y-54799043D01*
X217856201Y-54793093D01*
X217855301Y-54787026D01*
X217855000Y-54780900D01*
X217855000Y-54030900D01*
X217855301Y-54024774D01*
X217856201Y-54018707D01*
X217857691Y-54012757D01*
X217859758Y-54006982D01*
X217862380Y-54001438D01*
X217865533Y-53996177D01*
X217869187Y-53991250D01*
X217873306Y-53986706D01*
X217877850Y-53982587D01*
X217882777Y-53978933D01*
X217888038Y-53975780D01*
X217893582Y-53973158D01*
X217899357Y-53971091D01*
X217905307Y-53969601D01*
X217911374Y-53968701D01*
X217917500Y-53968400D01*
X218042500Y-53968400D01*
X218048626Y-53968701D01*
X218048626Y-53968701D01*
G37*
D17*
X217980000Y-54405900D03*
D10*
G36*
X218548626Y-53968701D02*
X218554693Y-53969601D01*
X218560643Y-53971091D01*
X218566418Y-53973158D01*
X218571962Y-53975780D01*
X218577223Y-53978933D01*
X218582150Y-53982587D01*
X218586694Y-53986706D01*
X218590813Y-53991250D01*
X218594467Y-53996177D01*
X218597620Y-54001438D01*
X218600242Y-54006982D01*
X218602309Y-54012757D01*
X218603799Y-54018707D01*
X218604699Y-54024774D01*
X218605000Y-54030900D01*
X218605000Y-54780900D01*
X218604699Y-54787026D01*
X218603799Y-54793093D01*
X218602309Y-54799043D01*
X218600242Y-54804818D01*
X218597620Y-54810362D01*
X218594467Y-54815623D01*
X218590813Y-54820550D01*
X218586694Y-54825094D01*
X218582150Y-54829213D01*
X218577223Y-54832867D01*
X218571962Y-54836020D01*
X218566418Y-54838642D01*
X218560643Y-54840709D01*
X218554693Y-54842199D01*
X218548626Y-54843099D01*
X218542500Y-54843400D01*
X218417500Y-54843400D01*
X218411374Y-54843099D01*
X218405307Y-54842199D01*
X218399357Y-54840709D01*
X218393582Y-54838642D01*
X218388038Y-54836020D01*
X218382777Y-54832867D01*
X218377850Y-54829213D01*
X218373306Y-54825094D01*
X218369187Y-54820550D01*
X218365533Y-54815623D01*
X218362380Y-54810362D01*
X218359758Y-54804818D01*
X218357691Y-54799043D01*
X218356201Y-54793093D01*
X218355301Y-54787026D01*
X218355000Y-54780900D01*
X218355000Y-54030900D01*
X218355301Y-54024774D01*
X218356201Y-54018707D01*
X218357691Y-54012757D01*
X218359758Y-54006982D01*
X218362380Y-54001438D01*
X218365533Y-53996177D01*
X218369187Y-53991250D01*
X218373306Y-53986706D01*
X218377850Y-53982587D01*
X218382777Y-53978933D01*
X218388038Y-53975780D01*
X218393582Y-53973158D01*
X218399357Y-53971091D01*
X218405307Y-53969601D01*
X218411374Y-53968701D01*
X218417500Y-53968400D01*
X218542500Y-53968400D01*
X218548626Y-53968701D01*
X218548626Y-53968701D01*
G37*
D17*
X218480000Y-54405900D03*
D10*
G36*
X219048626Y-53968701D02*
X219054693Y-53969601D01*
X219060643Y-53971091D01*
X219066418Y-53973158D01*
X219071962Y-53975780D01*
X219077223Y-53978933D01*
X219082150Y-53982587D01*
X219086694Y-53986706D01*
X219090813Y-53991250D01*
X219094467Y-53996177D01*
X219097620Y-54001438D01*
X219100242Y-54006982D01*
X219102309Y-54012757D01*
X219103799Y-54018707D01*
X219104699Y-54024774D01*
X219105000Y-54030900D01*
X219105000Y-54780900D01*
X219104699Y-54787026D01*
X219103799Y-54793093D01*
X219102309Y-54799043D01*
X219100242Y-54804818D01*
X219097620Y-54810362D01*
X219094467Y-54815623D01*
X219090813Y-54820550D01*
X219086694Y-54825094D01*
X219082150Y-54829213D01*
X219077223Y-54832867D01*
X219071962Y-54836020D01*
X219066418Y-54838642D01*
X219060643Y-54840709D01*
X219054693Y-54842199D01*
X219048626Y-54843099D01*
X219042500Y-54843400D01*
X218917500Y-54843400D01*
X218911374Y-54843099D01*
X218905307Y-54842199D01*
X218899357Y-54840709D01*
X218893582Y-54838642D01*
X218888038Y-54836020D01*
X218882777Y-54832867D01*
X218877850Y-54829213D01*
X218873306Y-54825094D01*
X218869187Y-54820550D01*
X218865533Y-54815623D01*
X218862380Y-54810362D01*
X218859758Y-54804818D01*
X218857691Y-54799043D01*
X218856201Y-54793093D01*
X218855301Y-54787026D01*
X218855000Y-54780900D01*
X218855000Y-54030900D01*
X218855301Y-54024774D01*
X218856201Y-54018707D01*
X218857691Y-54012757D01*
X218859758Y-54006982D01*
X218862380Y-54001438D01*
X218865533Y-53996177D01*
X218869187Y-53991250D01*
X218873306Y-53986706D01*
X218877850Y-53982587D01*
X218882777Y-53978933D01*
X218888038Y-53975780D01*
X218893582Y-53973158D01*
X218899357Y-53971091D01*
X218905307Y-53969601D01*
X218911374Y-53968701D01*
X218917500Y-53968400D01*
X219042500Y-53968400D01*
X219048626Y-53968701D01*
X219048626Y-53968701D01*
G37*
D17*
X218980000Y-54405900D03*
D10*
G36*
X219548626Y-53968701D02*
X219554693Y-53969601D01*
X219560643Y-53971091D01*
X219566418Y-53973158D01*
X219571962Y-53975780D01*
X219577223Y-53978933D01*
X219582150Y-53982587D01*
X219586694Y-53986706D01*
X219590813Y-53991250D01*
X219594467Y-53996177D01*
X219597620Y-54001438D01*
X219600242Y-54006982D01*
X219602309Y-54012757D01*
X219603799Y-54018707D01*
X219604699Y-54024774D01*
X219605000Y-54030900D01*
X219605000Y-54780900D01*
X219604699Y-54787026D01*
X219603799Y-54793093D01*
X219602309Y-54799043D01*
X219600242Y-54804818D01*
X219597620Y-54810362D01*
X219594467Y-54815623D01*
X219590813Y-54820550D01*
X219586694Y-54825094D01*
X219582150Y-54829213D01*
X219577223Y-54832867D01*
X219571962Y-54836020D01*
X219566418Y-54838642D01*
X219560643Y-54840709D01*
X219554693Y-54842199D01*
X219548626Y-54843099D01*
X219542500Y-54843400D01*
X219417500Y-54843400D01*
X219411374Y-54843099D01*
X219405307Y-54842199D01*
X219399357Y-54840709D01*
X219393582Y-54838642D01*
X219388038Y-54836020D01*
X219382777Y-54832867D01*
X219377850Y-54829213D01*
X219373306Y-54825094D01*
X219369187Y-54820550D01*
X219365533Y-54815623D01*
X219362380Y-54810362D01*
X219359758Y-54804818D01*
X219357691Y-54799043D01*
X219356201Y-54793093D01*
X219355301Y-54787026D01*
X219355000Y-54780900D01*
X219355000Y-54030900D01*
X219355301Y-54024774D01*
X219356201Y-54018707D01*
X219357691Y-54012757D01*
X219359758Y-54006982D01*
X219362380Y-54001438D01*
X219365533Y-53996177D01*
X219369187Y-53991250D01*
X219373306Y-53986706D01*
X219377850Y-53982587D01*
X219382777Y-53978933D01*
X219388038Y-53975780D01*
X219393582Y-53973158D01*
X219399357Y-53971091D01*
X219405307Y-53969601D01*
X219411374Y-53968701D01*
X219417500Y-53968400D01*
X219542500Y-53968400D01*
X219548626Y-53968701D01*
X219548626Y-53968701D01*
G37*
D17*
X219480000Y-54405900D03*
D10*
G36*
X220048626Y-53968701D02*
X220054693Y-53969601D01*
X220060643Y-53971091D01*
X220066418Y-53973158D01*
X220071962Y-53975780D01*
X220077223Y-53978933D01*
X220082150Y-53982587D01*
X220086694Y-53986706D01*
X220090813Y-53991250D01*
X220094467Y-53996177D01*
X220097620Y-54001438D01*
X220100242Y-54006982D01*
X220102309Y-54012757D01*
X220103799Y-54018707D01*
X220104699Y-54024774D01*
X220105000Y-54030900D01*
X220105000Y-54780900D01*
X220104699Y-54787026D01*
X220103799Y-54793093D01*
X220102309Y-54799043D01*
X220100242Y-54804818D01*
X220097620Y-54810362D01*
X220094467Y-54815623D01*
X220090813Y-54820550D01*
X220086694Y-54825094D01*
X220082150Y-54829213D01*
X220077223Y-54832867D01*
X220071962Y-54836020D01*
X220066418Y-54838642D01*
X220060643Y-54840709D01*
X220054693Y-54842199D01*
X220048626Y-54843099D01*
X220042500Y-54843400D01*
X219917500Y-54843400D01*
X219911374Y-54843099D01*
X219905307Y-54842199D01*
X219899357Y-54840709D01*
X219893582Y-54838642D01*
X219888038Y-54836020D01*
X219882777Y-54832867D01*
X219877850Y-54829213D01*
X219873306Y-54825094D01*
X219869187Y-54820550D01*
X219865533Y-54815623D01*
X219862380Y-54810362D01*
X219859758Y-54804818D01*
X219857691Y-54799043D01*
X219856201Y-54793093D01*
X219855301Y-54787026D01*
X219855000Y-54780900D01*
X219855000Y-54030900D01*
X219855301Y-54024774D01*
X219856201Y-54018707D01*
X219857691Y-54012757D01*
X219859758Y-54006982D01*
X219862380Y-54001438D01*
X219865533Y-53996177D01*
X219869187Y-53991250D01*
X219873306Y-53986706D01*
X219877850Y-53982587D01*
X219882777Y-53978933D01*
X219888038Y-53975780D01*
X219893582Y-53973158D01*
X219899357Y-53971091D01*
X219905307Y-53969601D01*
X219911374Y-53968701D01*
X219917500Y-53968400D01*
X220042500Y-53968400D01*
X220048626Y-53968701D01*
X220048626Y-53968701D01*
G37*
D17*
X219980000Y-54405900D03*
D10*
G36*
X220548626Y-53968701D02*
X220554693Y-53969601D01*
X220560643Y-53971091D01*
X220566418Y-53973158D01*
X220571962Y-53975780D01*
X220577223Y-53978933D01*
X220582150Y-53982587D01*
X220586694Y-53986706D01*
X220590813Y-53991250D01*
X220594467Y-53996177D01*
X220597620Y-54001438D01*
X220600242Y-54006982D01*
X220602309Y-54012757D01*
X220603799Y-54018707D01*
X220604699Y-54024774D01*
X220605000Y-54030900D01*
X220605000Y-54780900D01*
X220604699Y-54787026D01*
X220603799Y-54793093D01*
X220602309Y-54799043D01*
X220600242Y-54804818D01*
X220597620Y-54810362D01*
X220594467Y-54815623D01*
X220590813Y-54820550D01*
X220586694Y-54825094D01*
X220582150Y-54829213D01*
X220577223Y-54832867D01*
X220571962Y-54836020D01*
X220566418Y-54838642D01*
X220560643Y-54840709D01*
X220554693Y-54842199D01*
X220548626Y-54843099D01*
X220542500Y-54843400D01*
X220417500Y-54843400D01*
X220411374Y-54843099D01*
X220405307Y-54842199D01*
X220399357Y-54840709D01*
X220393582Y-54838642D01*
X220388038Y-54836020D01*
X220382777Y-54832867D01*
X220377850Y-54829213D01*
X220373306Y-54825094D01*
X220369187Y-54820550D01*
X220365533Y-54815623D01*
X220362380Y-54810362D01*
X220359758Y-54804818D01*
X220357691Y-54799043D01*
X220356201Y-54793093D01*
X220355301Y-54787026D01*
X220355000Y-54780900D01*
X220355000Y-54030900D01*
X220355301Y-54024774D01*
X220356201Y-54018707D01*
X220357691Y-54012757D01*
X220359758Y-54006982D01*
X220362380Y-54001438D01*
X220365533Y-53996177D01*
X220369187Y-53991250D01*
X220373306Y-53986706D01*
X220377850Y-53982587D01*
X220382777Y-53978933D01*
X220388038Y-53975780D01*
X220393582Y-53973158D01*
X220399357Y-53971091D01*
X220405307Y-53969601D01*
X220411374Y-53968701D01*
X220417500Y-53968400D01*
X220542500Y-53968400D01*
X220548626Y-53968701D01*
X220548626Y-53968701D01*
G37*
D17*
X220480000Y-54405900D03*
D10*
G36*
X221548626Y-53593701D02*
X221554693Y-53594601D01*
X221560643Y-53596091D01*
X221566418Y-53598158D01*
X221571962Y-53600780D01*
X221577223Y-53603933D01*
X221582150Y-53607587D01*
X221586694Y-53611706D01*
X221590813Y-53616250D01*
X221594467Y-53621177D01*
X221597620Y-53626438D01*
X221600242Y-53631982D01*
X221602309Y-53637757D01*
X221603799Y-53643707D01*
X221604699Y-53649774D01*
X221605000Y-53655900D01*
X221605000Y-53780900D01*
X221604699Y-53787026D01*
X221603799Y-53793093D01*
X221602309Y-53799043D01*
X221600242Y-53804818D01*
X221597620Y-53810362D01*
X221594467Y-53815623D01*
X221590813Y-53820550D01*
X221586694Y-53825094D01*
X221582150Y-53829213D01*
X221577223Y-53832867D01*
X221571962Y-53836020D01*
X221566418Y-53838642D01*
X221560643Y-53840709D01*
X221554693Y-53842199D01*
X221548626Y-53843099D01*
X221542500Y-53843400D01*
X220792500Y-53843400D01*
X220786374Y-53843099D01*
X220780307Y-53842199D01*
X220774357Y-53840709D01*
X220768582Y-53838642D01*
X220763038Y-53836020D01*
X220757777Y-53832867D01*
X220752850Y-53829213D01*
X220748306Y-53825094D01*
X220744187Y-53820550D01*
X220740533Y-53815623D01*
X220737380Y-53810362D01*
X220734758Y-53804818D01*
X220732691Y-53799043D01*
X220731201Y-53793093D01*
X220730301Y-53787026D01*
X220730000Y-53780900D01*
X220730000Y-53655900D01*
X220730301Y-53649774D01*
X220731201Y-53643707D01*
X220732691Y-53637757D01*
X220734758Y-53631982D01*
X220737380Y-53626438D01*
X220740533Y-53621177D01*
X220744187Y-53616250D01*
X220748306Y-53611706D01*
X220752850Y-53607587D01*
X220757777Y-53603933D01*
X220763038Y-53600780D01*
X220768582Y-53598158D01*
X220774357Y-53596091D01*
X220780307Y-53594601D01*
X220786374Y-53593701D01*
X220792500Y-53593400D01*
X221542500Y-53593400D01*
X221548626Y-53593701D01*
X221548626Y-53593701D01*
G37*
D17*
X221167500Y-53718400D03*
D10*
G36*
X221548626Y-53093701D02*
X221554693Y-53094601D01*
X221560643Y-53096091D01*
X221566418Y-53098158D01*
X221571962Y-53100780D01*
X221577223Y-53103933D01*
X221582150Y-53107587D01*
X221586694Y-53111706D01*
X221590813Y-53116250D01*
X221594467Y-53121177D01*
X221597620Y-53126438D01*
X221600242Y-53131982D01*
X221602309Y-53137757D01*
X221603799Y-53143707D01*
X221604699Y-53149774D01*
X221605000Y-53155900D01*
X221605000Y-53280900D01*
X221604699Y-53287026D01*
X221603799Y-53293093D01*
X221602309Y-53299043D01*
X221600242Y-53304818D01*
X221597620Y-53310362D01*
X221594467Y-53315623D01*
X221590813Y-53320550D01*
X221586694Y-53325094D01*
X221582150Y-53329213D01*
X221577223Y-53332867D01*
X221571962Y-53336020D01*
X221566418Y-53338642D01*
X221560643Y-53340709D01*
X221554693Y-53342199D01*
X221548626Y-53343099D01*
X221542500Y-53343400D01*
X220792500Y-53343400D01*
X220786374Y-53343099D01*
X220780307Y-53342199D01*
X220774357Y-53340709D01*
X220768582Y-53338642D01*
X220763038Y-53336020D01*
X220757777Y-53332867D01*
X220752850Y-53329213D01*
X220748306Y-53325094D01*
X220744187Y-53320550D01*
X220740533Y-53315623D01*
X220737380Y-53310362D01*
X220734758Y-53304818D01*
X220732691Y-53299043D01*
X220731201Y-53293093D01*
X220730301Y-53287026D01*
X220730000Y-53280900D01*
X220730000Y-53155900D01*
X220730301Y-53149774D01*
X220731201Y-53143707D01*
X220732691Y-53137757D01*
X220734758Y-53131982D01*
X220737380Y-53126438D01*
X220740533Y-53121177D01*
X220744187Y-53116250D01*
X220748306Y-53111706D01*
X220752850Y-53107587D01*
X220757777Y-53103933D01*
X220763038Y-53100780D01*
X220768582Y-53098158D01*
X220774357Y-53096091D01*
X220780307Y-53094601D01*
X220786374Y-53093701D01*
X220792500Y-53093400D01*
X221542500Y-53093400D01*
X221548626Y-53093701D01*
X221548626Y-53093701D01*
G37*
D17*
X221167500Y-53218400D03*
D10*
G36*
X221548626Y-52593701D02*
X221554693Y-52594601D01*
X221560643Y-52596091D01*
X221566418Y-52598158D01*
X221571962Y-52600780D01*
X221577223Y-52603933D01*
X221582150Y-52607587D01*
X221586694Y-52611706D01*
X221590813Y-52616250D01*
X221594467Y-52621177D01*
X221597620Y-52626438D01*
X221600242Y-52631982D01*
X221602309Y-52637757D01*
X221603799Y-52643707D01*
X221604699Y-52649774D01*
X221605000Y-52655900D01*
X221605000Y-52780900D01*
X221604699Y-52787026D01*
X221603799Y-52793093D01*
X221602309Y-52799043D01*
X221600242Y-52804818D01*
X221597620Y-52810362D01*
X221594467Y-52815623D01*
X221590813Y-52820550D01*
X221586694Y-52825094D01*
X221582150Y-52829213D01*
X221577223Y-52832867D01*
X221571962Y-52836020D01*
X221566418Y-52838642D01*
X221560643Y-52840709D01*
X221554693Y-52842199D01*
X221548626Y-52843099D01*
X221542500Y-52843400D01*
X220792500Y-52843400D01*
X220786374Y-52843099D01*
X220780307Y-52842199D01*
X220774357Y-52840709D01*
X220768582Y-52838642D01*
X220763038Y-52836020D01*
X220757777Y-52832867D01*
X220752850Y-52829213D01*
X220748306Y-52825094D01*
X220744187Y-52820550D01*
X220740533Y-52815623D01*
X220737380Y-52810362D01*
X220734758Y-52804818D01*
X220732691Y-52799043D01*
X220731201Y-52793093D01*
X220730301Y-52787026D01*
X220730000Y-52780900D01*
X220730000Y-52655900D01*
X220730301Y-52649774D01*
X220731201Y-52643707D01*
X220732691Y-52637757D01*
X220734758Y-52631982D01*
X220737380Y-52626438D01*
X220740533Y-52621177D01*
X220744187Y-52616250D01*
X220748306Y-52611706D01*
X220752850Y-52607587D01*
X220757777Y-52603933D01*
X220763038Y-52600780D01*
X220768582Y-52598158D01*
X220774357Y-52596091D01*
X220780307Y-52594601D01*
X220786374Y-52593701D01*
X220792500Y-52593400D01*
X221542500Y-52593400D01*
X221548626Y-52593701D01*
X221548626Y-52593701D01*
G37*
D17*
X221167500Y-52718400D03*
D10*
G36*
X221548626Y-52093701D02*
X221554693Y-52094601D01*
X221560643Y-52096091D01*
X221566418Y-52098158D01*
X221571962Y-52100780D01*
X221577223Y-52103933D01*
X221582150Y-52107587D01*
X221586694Y-52111706D01*
X221590813Y-52116250D01*
X221594467Y-52121177D01*
X221597620Y-52126438D01*
X221600242Y-52131982D01*
X221602309Y-52137757D01*
X221603799Y-52143707D01*
X221604699Y-52149774D01*
X221605000Y-52155900D01*
X221605000Y-52280900D01*
X221604699Y-52287026D01*
X221603799Y-52293093D01*
X221602309Y-52299043D01*
X221600242Y-52304818D01*
X221597620Y-52310362D01*
X221594467Y-52315623D01*
X221590813Y-52320550D01*
X221586694Y-52325094D01*
X221582150Y-52329213D01*
X221577223Y-52332867D01*
X221571962Y-52336020D01*
X221566418Y-52338642D01*
X221560643Y-52340709D01*
X221554693Y-52342199D01*
X221548626Y-52343099D01*
X221542500Y-52343400D01*
X220792500Y-52343400D01*
X220786374Y-52343099D01*
X220780307Y-52342199D01*
X220774357Y-52340709D01*
X220768582Y-52338642D01*
X220763038Y-52336020D01*
X220757777Y-52332867D01*
X220752850Y-52329213D01*
X220748306Y-52325094D01*
X220744187Y-52320550D01*
X220740533Y-52315623D01*
X220737380Y-52310362D01*
X220734758Y-52304818D01*
X220732691Y-52299043D01*
X220731201Y-52293093D01*
X220730301Y-52287026D01*
X220730000Y-52280900D01*
X220730000Y-52155900D01*
X220730301Y-52149774D01*
X220731201Y-52143707D01*
X220732691Y-52137757D01*
X220734758Y-52131982D01*
X220737380Y-52126438D01*
X220740533Y-52121177D01*
X220744187Y-52116250D01*
X220748306Y-52111706D01*
X220752850Y-52107587D01*
X220757777Y-52103933D01*
X220763038Y-52100780D01*
X220768582Y-52098158D01*
X220774357Y-52096091D01*
X220780307Y-52094601D01*
X220786374Y-52093701D01*
X220792500Y-52093400D01*
X221542500Y-52093400D01*
X221548626Y-52093701D01*
X221548626Y-52093701D01*
G37*
D17*
X221167500Y-52218400D03*
D10*
G36*
X221548626Y-51593701D02*
X221554693Y-51594601D01*
X221560643Y-51596091D01*
X221566418Y-51598158D01*
X221571962Y-51600780D01*
X221577223Y-51603933D01*
X221582150Y-51607587D01*
X221586694Y-51611706D01*
X221590813Y-51616250D01*
X221594467Y-51621177D01*
X221597620Y-51626438D01*
X221600242Y-51631982D01*
X221602309Y-51637757D01*
X221603799Y-51643707D01*
X221604699Y-51649774D01*
X221605000Y-51655900D01*
X221605000Y-51780900D01*
X221604699Y-51787026D01*
X221603799Y-51793093D01*
X221602309Y-51799043D01*
X221600242Y-51804818D01*
X221597620Y-51810362D01*
X221594467Y-51815623D01*
X221590813Y-51820550D01*
X221586694Y-51825094D01*
X221582150Y-51829213D01*
X221577223Y-51832867D01*
X221571962Y-51836020D01*
X221566418Y-51838642D01*
X221560643Y-51840709D01*
X221554693Y-51842199D01*
X221548626Y-51843099D01*
X221542500Y-51843400D01*
X220792500Y-51843400D01*
X220786374Y-51843099D01*
X220780307Y-51842199D01*
X220774357Y-51840709D01*
X220768582Y-51838642D01*
X220763038Y-51836020D01*
X220757777Y-51832867D01*
X220752850Y-51829213D01*
X220748306Y-51825094D01*
X220744187Y-51820550D01*
X220740533Y-51815623D01*
X220737380Y-51810362D01*
X220734758Y-51804818D01*
X220732691Y-51799043D01*
X220731201Y-51793093D01*
X220730301Y-51787026D01*
X220730000Y-51780900D01*
X220730000Y-51655900D01*
X220730301Y-51649774D01*
X220731201Y-51643707D01*
X220732691Y-51637757D01*
X220734758Y-51631982D01*
X220737380Y-51626438D01*
X220740533Y-51621177D01*
X220744187Y-51616250D01*
X220748306Y-51611706D01*
X220752850Y-51607587D01*
X220757777Y-51603933D01*
X220763038Y-51600780D01*
X220768582Y-51598158D01*
X220774357Y-51596091D01*
X220780307Y-51594601D01*
X220786374Y-51593701D01*
X220792500Y-51593400D01*
X221542500Y-51593400D01*
X221548626Y-51593701D01*
X221548626Y-51593701D01*
G37*
D17*
X221167500Y-51718400D03*
D10*
G36*
X221548626Y-51093701D02*
X221554693Y-51094601D01*
X221560643Y-51096091D01*
X221566418Y-51098158D01*
X221571962Y-51100780D01*
X221577223Y-51103933D01*
X221582150Y-51107587D01*
X221586694Y-51111706D01*
X221590813Y-51116250D01*
X221594467Y-51121177D01*
X221597620Y-51126438D01*
X221600242Y-51131982D01*
X221602309Y-51137757D01*
X221603799Y-51143707D01*
X221604699Y-51149774D01*
X221605000Y-51155900D01*
X221605000Y-51280900D01*
X221604699Y-51287026D01*
X221603799Y-51293093D01*
X221602309Y-51299043D01*
X221600242Y-51304818D01*
X221597620Y-51310362D01*
X221594467Y-51315623D01*
X221590813Y-51320550D01*
X221586694Y-51325094D01*
X221582150Y-51329213D01*
X221577223Y-51332867D01*
X221571962Y-51336020D01*
X221566418Y-51338642D01*
X221560643Y-51340709D01*
X221554693Y-51342199D01*
X221548626Y-51343099D01*
X221542500Y-51343400D01*
X220792500Y-51343400D01*
X220786374Y-51343099D01*
X220780307Y-51342199D01*
X220774357Y-51340709D01*
X220768582Y-51338642D01*
X220763038Y-51336020D01*
X220757777Y-51332867D01*
X220752850Y-51329213D01*
X220748306Y-51325094D01*
X220744187Y-51320550D01*
X220740533Y-51315623D01*
X220737380Y-51310362D01*
X220734758Y-51304818D01*
X220732691Y-51299043D01*
X220731201Y-51293093D01*
X220730301Y-51287026D01*
X220730000Y-51280900D01*
X220730000Y-51155900D01*
X220730301Y-51149774D01*
X220731201Y-51143707D01*
X220732691Y-51137757D01*
X220734758Y-51131982D01*
X220737380Y-51126438D01*
X220740533Y-51121177D01*
X220744187Y-51116250D01*
X220748306Y-51111706D01*
X220752850Y-51107587D01*
X220757777Y-51103933D01*
X220763038Y-51100780D01*
X220768582Y-51098158D01*
X220774357Y-51096091D01*
X220780307Y-51094601D01*
X220786374Y-51093701D01*
X220792500Y-51093400D01*
X221542500Y-51093400D01*
X221548626Y-51093701D01*
X221548626Y-51093701D01*
G37*
D17*
X221167500Y-51218400D03*
D10*
G36*
X221548626Y-50593701D02*
X221554693Y-50594601D01*
X221560643Y-50596091D01*
X221566418Y-50598158D01*
X221571962Y-50600780D01*
X221577223Y-50603933D01*
X221582150Y-50607587D01*
X221586694Y-50611706D01*
X221590813Y-50616250D01*
X221594467Y-50621177D01*
X221597620Y-50626438D01*
X221600242Y-50631982D01*
X221602309Y-50637757D01*
X221603799Y-50643707D01*
X221604699Y-50649774D01*
X221605000Y-50655900D01*
X221605000Y-50780900D01*
X221604699Y-50787026D01*
X221603799Y-50793093D01*
X221602309Y-50799043D01*
X221600242Y-50804818D01*
X221597620Y-50810362D01*
X221594467Y-50815623D01*
X221590813Y-50820550D01*
X221586694Y-50825094D01*
X221582150Y-50829213D01*
X221577223Y-50832867D01*
X221571962Y-50836020D01*
X221566418Y-50838642D01*
X221560643Y-50840709D01*
X221554693Y-50842199D01*
X221548626Y-50843099D01*
X221542500Y-50843400D01*
X220792500Y-50843400D01*
X220786374Y-50843099D01*
X220780307Y-50842199D01*
X220774357Y-50840709D01*
X220768582Y-50838642D01*
X220763038Y-50836020D01*
X220757777Y-50832867D01*
X220752850Y-50829213D01*
X220748306Y-50825094D01*
X220744187Y-50820550D01*
X220740533Y-50815623D01*
X220737380Y-50810362D01*
X220734758Y-50804818D01*
X220732691Y-50799043D01*
X220731201Y-50793093D01*
X220730301Y-50787026D01*
X220730000Y-50780900D01*
X220730000Y-50655900D01*
X220730301Y-50649774D01*
X220731201Y-50643707D01*
X220732691Y-50637757D01*
X220734758Y-50631982D01*
X220737380Y-50626438D01*
X220740533Y-50621177D01*
X220744187Y-50616250D01*
X220748306Y-50611706D01*
X220752850Y-50607587D01*
X220757777Y-50603933D01*
X220763038Y-50600780D01*
X220768582Y-50598158D01*
X220774357Y-50596091D01*
X220780307Y-50594601D01*
X220786374Y-50593701D01*
X220792500Y-50593400D01*
X221542500Y-50593400D01*
X221548626Y-50593701D01*
X221548626Y-50593701D01*
G37*
D17*
X221167500Y-50718400D03*
D10*
G36*
X221548626Y-50093701D02*
X221554693Y-50094601D01*
X221560643Y-50096091D01*
X221566418Y-50098158D01*
X221571962Y-50100780D01*
X221577223Y-50103933D01*
X221582150Y-50107587D01*
X221586694Y-50111706D01*
X221590813Y-50116250D01*
X221594467Y-50121177D01*
X221597620Y-50126438D01*
X221600242Y-50131982D01*
X221602309Y-50137757D01*
X221603799Y-50143707D01*
X221604699Y-50149774D01*
X221605000Y-50155900D01*
X221605000Y-50280900D01*
X221604699Y-50287026D01*
X221603799Y-50293093D01*
X221602309Y-50299043D01*
X221600242Y-50304818D01*
X221597620Y-50310362D01*
X221594467Y-50315623D01*
X221590813Y-50320550D01*
X221586694Y-50325094D01*
X221582150Y-50329213D01*
X221577223Y-50332867D01*
X221571962Y-50336020D01*
X221566418Y-50338642D01*
X221560643Y-50340709D01*
X221554693Y-50342199D01*
X221548626Y-50343099D01*
X221542500Y-50343400D01*
X220792500Y-50343400D01*
X220786374Y-50343099D01*
X220780307Y-50342199D01*
X220774357Y-50340709D01*
X220768582Y-50338642D01*
X220763038Y-50336020D01*
X220757777Y-50332867D01*
X220752850Y-50329213D01*
X220748306Y-50325094D01*
X220744187Y-50320550D01*
X220740533Y-50315623D01*
X220737380Y-50310362D01*
X220734758Y-50304818D01*
X220732691Y-50299043D01*
X220731201Y-50293093D01*
X220730301Y-50287026D01*
X220730000Y-50280900D01*
X220730000Y-50155900D01*
X220730301Y-50149774D01*
X220731201Y-50143707D01*
X220732691Y-50137757D01*
X220734758Y-50131982D01*
X220737380Y-50126438D01*
X220740533Y-50121177D01*
X220744187Y-50116250D01*
X220748306Y-50111706D01*
X220752850Y-50107587D01*
X220757777Y-50103933D01*
X220763038Y-50100780D01*
X220768582Y-50098158D01*
X220774357Y-50096091D01*
X220780307Y-50094601D01*
X220786374Y-50093701D01*
X220792500Y-50093400D01*
X221542500Y-50093400D01*
X221548626Y-50093701D01*
X221548626Y-50093701D01*
G37*
D17*
X221167500Y-50218400D03*
D10*
G36*
X220548626Y-49093701D02*
X220554693Y-49094601D01*
X220560643Y-49096091D01*
X220566418Y-49098158D01*
X220571962Y-49100780D01*
X220577223Y-49103933D01*
X220582150Y-49107587D01*
X220586694Y-49111706D01*
X220590813Y-49116250D01*
X220594467Y-49121177D01*
X220597620Y-49126438D01*
X220600242Y-49131982D01*
X220602309Y-49137757D01*
X220603799Y-49143707D01*
X220604699Y-49149774D01*
X220605000Y-49155900D01*
X220605000Y-49905900D01*
X220604699Y-49912026D01*
X220603799Y-49918093D01*
X220602309Y-49924043D01*
X220600242Y-49929818D01*
X220597620Y-49935362D01*
X220594467Y-49940623D01*
X220590813Y-49945550D01*
X220586694Y-49950094D01*
X220582150Y-49954213D01*
X220577223Y-49957867D01*
X220571962Y-49961020D01*
X220566418Y-49963642D01*
X220560643Y-49965709D01*
X220554693Y-49967199D01*
X220548626Y-49968099D01*
X220542500Y-49968400D01*
X220417500Y-49968400D01*
X220411374Y-49968099D01*
X220405307Y-49967199D01*
X220399357Y-49965709D01*
X220393582Y-49963642D01*
X220388038Y-49961020D01*
X220382777Y-49957867D01*
X220377850Y-49954213D01*
X220373306Y-49950094D01*
X220369187Y-49945550D01*
X220365533Y-49940623D01*
X220362380Y-49935362D01*
X220359758Y-49929818D01*
X220357691Y-49924043D01*
X220356201Y-49918093D01*
X220355301Y-49912026D01*
X220355000Y-49905900D01*
X220355000Y-49155900D01*
X220355301Y-49149774D01*
X220356201Y-49143707D01*
X220357691Y-49137757D01*
X220359758Y-49131982D01*
X220362380Y-49126438D01*
X220365533Y-49121177D01*
X220369187Y-49116250D01*
X220373306Y-49111706D01*
X220377850Y-49107587D01*
X220382777Y-49103933D01*
X220388038Y-49100780D01*
X220393582Y-49098158D01*
X220399357Y-49096091D01*
X220405307Y-49094601D01*
X220411374Y-49093701D01*
X220417500Y-49093400D01*
X220542500Y-49093400D01*
X220548626Y-49093701D01*
X220548626Y-49093701D01*
G37*
D17*
X220480000Y-49530900D03*
D10*
G36*
X220048626Y-49093701D02*
X220054693Y-49094601D01*
X220060643Y-49096091D01*
X220066418Y-49098158D01*
X220071962Y-49100780D01*
X220077223Y-49103933D01*
X220082150Y-49107587D01*
X220086694Y-49111706D01*
X220090813Y-49116250D01*
X220094467Y-49121177D01*
X220097620Y-49126438D01*
X220100242Y-49131982D01*
X220102309Y-49137757D01*
X220103799Y-49143707D01*
X220104699Y-49149774D01*
X220105000Y-49155900D01*
X220105000Y-49905900D01*
X220104699Y-49912026D01*
X220103799Y-49918093D01*
X220102309Y-49924043D01*
X220100242Y-49929818D01*
X220097620Y-49935362D01*
X220094467Y-49940623D01*
X220090813Y-49945550D01*
X220086694Y-49950094D01*
X220082150Y-49954213D01*
X220077223Y-49957867D01*
X220071962Y-49961020D01*
X220066418Y-49963642D01*
X220060643Y-49965709D01*
X220054693Y-49967199D01*
X220048626Y-49968099D01*
X220042500Y-49968400D01*
X219917500Y-49968400D01*
X219911374Y-49968099D01*
X219905307Y-49967199D01*
X219899357Y-49965709D01*
X219893582Y-49963642D01*
X219888038Y-49961020D01*
X219882777Y-49957867D01*
X219877850Y-49954213D01*
X219873306Y-49950094D01*
X219869187Y-49945550D01*
X219865533Y-49940623D01*
X219862380Y-49935362D01*
X219859758Y-49929818D01*
X219857691Y-49924043D01*
X219856201Y-49918093D01*
X219855301Y-49912026D01*
X219855000Y-49905900D01*
X219855000Y-49155900D01*
X219855301Y-49149774D01*
X219856201Y-49143707D01*
X219857691Y-49137757D01*
X219859758Y-49131982D01*
X219862380Y-49126438D01*
X219865533Y-49121177D01*
X219869187Y-49116250D01*
X219873306Y-49111706D01*
X219877850Y-49107587D01*
X219882777Y-49103933D01*
X219888038Y-49100780D01*
X219893582Y-49098158D01*
X219899357Y-49096091D01*
X219905307Y-49094601D01*
X219911374Y-49093701D01*
X219917500Y-49093400D01*
X220042500Y-49093400D01*
X220048626Y-49093701D01*
X220048626Y-49093701D01*
G37*
D17*
X219980000Y-49530900D03*
D10*
G36*
X219548626Y-49093701D02*
X219554693Y-49094601D01*
X219560643Y-49096091D01*
X219566418Y-49098158D01*
X219571962Y-49100780D01*
X219577223Y-49103933D01*
X219582150Y-49107587D01*
X219586694Y-49111706D01*
X219590813Y-49116250D01*
X219594467Y-49121177D01*
X219597620Y-49126438D01*
X219600242Y-49131982D01*
X219602309Y-49137757D01*
X219603799Y-49143707D01*
X219604699Y-49149774D01*
X219605000Y-49155900D01*
X219605000Y-49905900D01*
X219604699Y-49912026D01*
X219603799Y-49918093D01*
X219602309Y-49924043D01*
X219600242Y-49929818D01*
X219597620Y-49935362D01*
X219594467Y-49940623D01*
X219590813Y-49945550D01*
X219586694Y-49950094D01*
X219582150Y-49954213D01*
X219577223Y-49957867D01*
X219571962Y-49961020D01*
X219566418Y-49963642D01*
X219560643Y-49965709D01*
X219554693Y-49967199D01*
X219548626Y-49968099D01*
X219542500Y-49968400D01*
X219417500Y-49968400D01*
X219411374Y-49968099D01*
X219405307Y-49967199D01*
X219399357Y-49965709D01*
X219393582Y-49963642D01*
X219388038Y-49961020D01*
X219382777Y-49957867D01*
X219377850Y-49954213D01*
X219373306Y-49950094D01*
X219369187Y-49945550D01*
X219365533Y-49940623D01*
X219362380Y-49935362D01*
X219359758Y-49929818D01*
X219357691Y-49924043D01*
X219356201Y-49918093D01*
X219355301Y-49912026D01*
X219355000Y-49905900D01*
X219355000Y-49155900D01*
X219355301Y-49149774D01*
X219356201Y-49143707D01*
X219357691Y-49137757D01*
X219359758Y-49131982D01*
X219362380Y-49126438D01*
X219365533Y-49121177D01*
X219369187Y-49116250D01*
X219373306Y-49111706D01*
X219377850Y-49107587D01*
X219382777Y-49103933D01*
X219388038Y-49100780D01*
X219393582Y-49098158D01*
X219399357Y-49096091D01*
X219405307Y-49094601D01*
X219411374Y-49093701D01*
X219417500Y-49093400D01*
X219542500Y-49093400D01*
X219548626Y-49093701D01*
X219548626Y-49093701D01*
G37*
D17*
X219480000Y-49530900D03*
D10*
G36*
X219048626Y-49093701D02*
X219054693Y-49094601D01*
X219060643Y-49096091D01*
X219066418Y-49098158D01*
X219071962Y-49100780D01*
X219077223Y-49103933D01*
X219082150Y-49107587D01*
X219086694Y-49111706D01*
X219090813Y-49116250D01*
X219094467Y-49121177D01*
X219097620Y-49126438D01*
X219100242Y-49131982D01*
X219102309Y-49137757D01*
X219103799Y-49143707D01*
X219104699Y-49149774D01*
X219105000Y-49155900D01*
X219105000Y-49905900D01*
X219104699Y-49912026D01*
X219103799Y-49918093D01*
X219102309Y-49924043D01*
X219100242Y-49929818D01*
X219097620Y-49935362D01*
X219094467Y-49940623D01*
X219090813Y-49945550D01*
X219086694Y-49950094D01*
X219082150Y-49954213D01*
X219077223Y-49957867D01*
X219071962Y-49961020D01*
X219066418Y-49963642D01*
X219060643Y-49965709D01*
X219054693Y-49967199D01*
X219048626Y-49968099D01*
X219042500Y-49968400D01*
X218917500Y-49968400D01*
X218911374Y-49968099D01*
X218905307Y-49967199D01*
X218899357Y-49965709D01*
X218893582Y-49963642D01*
X218888038Y-49961020D01*
X218882777Y-49957867D01*
X218877850Y-49954213D01*
X218873306Y-49950094D01*
X218869187Y-49945550D01*
X218865533Y-49940623D01*
X218862380Y-49935362D01*
X218859758Y-49929818D01*
X218857691Y-49924043D01*
X218856201Y-49918093D01*
X218855301Y-49912026D01*
X218855000Y-49905900D01*
X218855000Y-49155900D01*
X218855301Y-49149774D01*
X218856201Y-49143707D01*
X218857691Y-49137757D01*
X218859758Y-49131982D01*
X218862380Y-49126438D01*
X218865533Y-49121177D01*
X218869187Y-49116250D01*
X218873306Y-49111706D01*
X218877850Y-49107587D01*
X218882777Y-49103933D01*
X218888038Y-49100780D01*
X218893582Y-49098158D01*
X218899357Y-49096091D01*
X218905307Y-49094601D01*
X218911374Y-49093701D01*
X218917500Y-49093400D01*
X219042500Y-49093400D01*
X219048626Y-49093701D01*
X219048626Y-49093701D01*
G37*
D17*
X218980000Y-49530900D03*
D10*
G36*
X218548626Y-49093701D02*
X218554693Y-49094601D01*
X218560643Y-49096091D01*
X218566418Y-49098158D01*
X218571962Y-49100780D01*
X218577223Y-49103933D01*
X218582150Y-49107587D01*
X218586694Y-49111706D01*
X218590813Y-49116250D01*
X218594467Y-49121177D01*
X218597620Y-49126438D01*
X218600242Y-49131982D01*
X218602309Y-49137757D01*
X218603799Y-49143707D01*
X218604699Y-49149774D01*
X218605000Y-49155900D01*
X218605000Y-49905900D01*
X218604699Y-49912026D01*
X218603799Y-49918093D01*
X218602309Y-49924043D01*
X218600242Y-49929818D01*
X218597620Y-49935362D01*
X218594467Y-49940623D01*
X218590813Y-49945550D01*
X218586694Y-49950094D01*
X218582150Y-49954213D01*
X218577223Y-49957867D01*
X218571962Y-49961020D01*
X218566418Y-49963642D01*
X218560643Y-49965709D01*
X218554693Y-49967199D01*
X218548626Y-49968099D01*
X218542500Y-49968400D01*
X218417500Y-49968400D01*
X218411374Y-49968099D01*
X218405307Y-49967199D01*
X218399357Y-49965709D01*
X218393582Y-49963642D01*
X218388038Y-49961020D01*
X218382777Y-49957867D01*
X218377850Y-49954213D01*
X218373306Y-49950094D01*
X218369187Y-49945550D01*
X218365533Y-49940623D01*
X218362380Y-49935362D01*
X218359758Y-49929818D01*
X218357691Y-49924043D01*
X218356201Y-49918093D01*
X218355301Y-49912026D01*
X218355000Y-49905900D01*
X218355000Y-49155900D01*
X218355301Y-49149774D01*
X218356201Y-49143707D01*
X218357691Y-49137757D01*
X218359758Y-49131982D01*
X218362380Y-49126438D01*
X218365533Y-49121177D01*
X218369187Y-49116250D01*
X218373306Y-49111706D01*
X218377850Y-49107587D01*
X218382777Y-49103933D01*
X218388038Y-49100780D01*
X218393582Y-49098158D01*
X218399357Y-49096091D01*
X218405307Y-49094601D01*
X218411374Y-49093701D01*
X218417500Y-49093400D01*
X218542500Y-49093400D01*
X218548626Y-49093701D01*
X218548626Y-49093701D01*
G37*
D17*
X218480000Y-49530900D03*
D10*
G36*
X218048626Y-49093701D02*
X218054693Y-49094601D01*
X218060643Y-49096091D01*
X218066418Y-49098158D01*
X218071962Y-49100780D01*
X218077223Y-49103933D01*
X218082150Y-49107587D01*
X218086694Y-49111706D01*
X218090813Y-49116250D01*
X218094467Y-49121177D01*
X218097620Y-49126438D01*
X218100242Y-49131982D01*
X218102309Y-49137757D01*
X218103799Y-49143707D01*
X218104699Y-49149774D01*
X218105000Y-49155900D01*
X218105000Y-49905900D01*
X218104699Y-49912026D01*
X218103799Y-49918093D01*
X218102309Y-49924043D01*
X218100242Y-49929818D01*
X218097620Y-49935362D01*
X218094467Y-49940623D01*
X218090813Y-49945550D01*
X218086694Y-49950094D01*
X218082150Y-49954213D01*
X218077223Y-49957867D01*
X218071962Y-49961020D01*
X218066418Y-49963642D01*
X218060643Y-49965709D01*
X218054693Y-49967199D01*
X218048626Y-49968099D01*
X218042500Y-49968400D01*
X217917500Y-49968400D01*
X217911374Y-49968099D01*
X217905307Y-49967199D01*
X217899357Y-49965709D01*
X217893582Y-49963642D01*
X217888038Y-49961020D01*
X217882777Y-49957867D01*
X217877850Y-49954213D01*
X217873306Y-49950094D01*
X217869187Y-49945550D01*
X217865533Y-49940623D01*
X217862380Y-49935362D01*
X217859758Y-49929818D01*
X217857691Y-49924043D01*
X217856201Y-49918093D01*
X217855301Y-49912026D01*
X217855000Y-49905900D01*
X217855000Y-49155900D01*
X217855301Y-49149774D01*
X217856201Y-49143707D01*
X217857691Y-49137757D01*
X217859758Y-49131982D01*
X217862380Y-49126438D01*
X217865533Y-49121177D01*
X217869187Y-49116250D01*
X217873306Y-49111706D01*
X217877850Y-49107587D01*
X217882777Y-49103933D01*
X217888038Y-49100780D01*
X217893582Y-49098158D01*
X217899357Y-49096091D01*
X217905307Y-49094601D01*
X217911374Y-49093701D01*
X217917500Y-49093400D01*
X218042500Y-49093400D01*
X218048626Y-49093701D01*
X218048626Y-49093701D01*
G37*
D17*
X217980000Y-49530900D03*
D10*
G36*
X217548626Y-49093701D02*
X217554693Y-49094601D01*
X217560643Y-49096091D01*
X217566418Y-49098158D01*
X217571962Y-49100780D01*
X217577223Y-49103933D01*
X217582150Y-49107587D01*
X217586694Y-49111706D01*
X217590813Y-49116250D01*
X217594467Y-49121177D01*
X217597620Y-49126438D01*
X217600242Y-49131982D01*
X217602309Y-49137757D01*
X217603799Y-49143707D01*
X217604699Y-49149774D01*
X217605000Y-49155900D01*
X217605000Y-49905900D01*
X217604699Y-49912026D01*
X217603799Y-49918093D01*
X217602309Y-49924043D01*
X217600242Y-49929818D01*
X217597620Y-49935362D01*
X217594467Y-49940623D01*
X217590813Y-49945550D01*
X217586694Y-49950094D01*
X217582150Y-49954213D01*
X217577223Y-49957867D01*
X217571962Y-49961020D01*
X217566418Y-49963642D01*
X217560643Y-49965709D01*
X217554693Y-49967199D01*
X217548626Y-49968099D01*
X217542500Y-49968400D01*
X217417500Y-49968400D01*
X217411374Y-49968099D01*
X217405307Y-49967199D01*
X217399357Y-49965709D01*
X217393582Y-49963642D01*
X217388038Y-49961020D01*
X217382777Y-49957867D01*
X217377850Y-49954213D01*
X217373306Y-49950094D01*
X217369187Y-49945550D01*
X217365533Y-49940623D01*
X217362380Y-49935362D01*
X217359758Y-49929818D01*
X217357691Y-49924043D01*
X217356201Y-49918093D01*
X217355301Y-49912026D01*
X217355000Y-49905900D01*
X217355000Y-49155900D01*
X217355301Y-49149774D01*
X217356201Y-49143707D01*
X217357691Y-49137757D01*
X217359758Y-49131982D01*
X217362380Y-49126438D01*
X217365533Y-49121177D01*
X217369187Y-49116250D01*
X217373306Y-49111706D01*
X217377850Y-49107587D01*
X217382777Y-49103933D01*
X217388038Y-49100780D01*
X217393582Y-49098158D01*
X217399357Y-49096091D01*
X217405307Y-49094601D01*
X217411374Y-49093701D01*
X217417500Y-49093400D01*
X217542500Y-49093400D01*
X217548626Y-49093701D01*
X217548626Y-49093701D01*
G37*
D17*
X217480000Y-49530900D03*
D10*
G36*
X217048626Y-49093701D02*
X217054693Y-49094601D01*
X217060643Y-49096091D01*
X217066418Y-49098158D01*
X217071962Y-49100780D01*
X217077223Y-49103933D01*
X217082150Y-49107587D01*
X217086694Y-49111706D01*
X217090813Y-49116250D01*
X217094467Y-49121177D01*
X217097620Y-49126438D01*
X217100242Y-49131982D01*
X217102309Y-49137757D01*
X217103799Y-49143707D01*
X217104699Y-49149774D01*
X217105000Y-49155900D01*
X217105000Y-49905900D01*
X217104699Y-49912026D01*
X217103799Y-49918093D01*
X217102309Y-49924043D01*
X217100242Y-49929818D01*
X217097620Y-49935362D01*
X217094467Y-49940623D01*
X217090813Y-49945550D01*
X217086694Y-49950094D01*
X217082150Y-49954213D01*
X217077223Y-49957867D01*
X217071962Y-49961020D01*
X217066418Y-49963642D01*
X217060643Y-49965709D01*
X217054693Y-49967199D01*
X217048626Y-49968099D01*
X217042500Y-49968400D01*
X216917500Y-49968400D01*
X216911374Y-49968099D01*
X216905307Y-49967199D01*
X216899357Y-49965709D01*
X216893582Y-49963642D01*
X216888038Y-49961020D01*
X216882777Y-49957867D01*
X216877850Y-49954213D01*
X216873306Y-49950094D01*
X216869187Y-49945550D01*
X216865533Y-49940623D01*
X216862380Y-49935362D01*
X216859758Y-49929818D01*
X216857691Y-49924043D01*
X216856201Y-49918093D01*
X216855301Y-49912026D01*
X216855000Y-49905900D01*
X216855000Y-49155900D01*
X216855301Y-49149774D01*
X216856201Y-49143707D01*
X216857691Y-49137757D01*
X216859758Y-49131982D01*
X216862380Y-49126438D01*
X216865533Y-49121177D01*
X216869187Y-49116250D01*
X216873306Y-49111706D01*
X216877850Y-49107587D01*
X216882777Y-49103933D01*
X216888038Y-49100780D01*
X216893582Y-49098158D01*
X216899357Y-49096091D01*
X216905307Y-49094601D01*
X216911374Y-49093701D01*
X216917500Y-49093400D01*
X217042500Y-49093400D01*
X217048626Y-49093701D01*
X217048626Y-49093701D01*
G37*
D17*
X216980000Y-49530900D03*
G04 #@! TD*
D18*
G04 #@! TO.C,Y1*
X210691000Y-50599200D03*
X210691000Y-52799200D03*
X212291000Y-52799200D03*
X212291000Y-50599200D03*
G04 #@! TD*
M02*
