G04 #@! TF.GenerationSoftware,KiCad,Pcbnew,5.0.2-bee76a0~70~ubuntu18.04.1*
G04 #@! TF.CreationDate,2018-12-10T16:15:13+09:00*
G04 #@! TF.ProjectId,2019_01,32303139-5f30-4312-9e6b-696361645f70,rev?*
G04 #@! TF.SameCoordinates,Original*
G04 #@! TF.FileFunction,Soldermask,Bot*
G04 #@! TF.FilePolarity,Negative*
%FSLAX46Y46*%
G04 Gerber Fmt 4.6, Leading zero omitted, Abs format (unit mm)*
G04 Created by KiCad (PCBNEW 5.0.2-bee76a0~70~ubuntu18.04.1) date 2018年12月10日 16時15分13秒*
%MOMM*%
%LPD*%
G01*
G04 APERTURE LIST*
%ADD10C,0.100000*%
G04 APERTURE END LIST*
D10*
G36*
X151345603Y-100020568D02*
X151345606Y-100020569D01*
X151345605Y-100020569D01*
X151520678Y-100093086D01*
X151520679Y-100093087D01*
X151678241Y-100198367D01*
X151812233Y-100332359D01*
X151812234Y-100332361D01*
X151917514Y-100489922D01*
X151951119Y-100571052D01*
X151991457Y-100668436D01*
X152003009Y-100690047D01*
X152018554Y-100708989D01*
X152037496Y-100724534D01*
X152059107Y-100736085D01*
X152082556Y-100743198D01*
X152106942Y-100745600D01*
X152221360Y-100745600D01*
X152429784Y-100766128D01*
X152624304Y-100825135D01*
X152803566Y-100920953D01*
X152960696Y-101049904D01*
X153089647Y-101207034D01*
X153185465Y-101386296D01*
X153244472Y-101580816D01*
X153265000Y-101789240D01*
X153265000Y-104101960D01*
X153244472Y-104310384D01*
X153185465Y-104504904D01*
X153089647Y-104684166D01*
X152960696Y-104841296D01*
X152803566Y-104970247D01*
X152624304Y-105066065D01*
X152429784Y-105125072D01*
X152221360Y-105145600D01*
X149908640Y-105145600D01*
X149700216Y-105125072D01*
X149505696Y-105066065D01*
X149326434Y-104970247D01*
X149169304Y-104841296D01*
X149040353Y-104684166D01*
X148944535Y-104504904D01*
X148885528Y-104310384D01*
X148865000Y-104101960D01*
X148865000Y-101789240D01*
X148885528Y-101580816D01*
X148944535Y-101386296D01*
X149040353Y-101207034D01*
X149169304Y-101049904D01*
X149326434Y-100920953D01*
X149505696Y-100825135D01*
X149700216Y-100766128D01*
X149908640Y-100745600D01*
X150023058Y-100745600D01*
X150047444Y-100743198D01*
X150070893Y-100736085D01*
X150092504Y-100724534D01*
X150111446Y-100708988D01*
X150126992Y-100690046D01*
X150138543Y-100668436D01*
X150178881Y-100571052D01*
X150212486Y-100489922D01*
X150317766Y-100332361D01*
X150317767Y-100332359D01*
X150451759Y-100198367D01*
X150609321Y-100093087D01*
X150609322Y-100093086D01*
X150784395Y-100020569D01*
X150784394Y-100020569D01*
X150784397Y-100020568D01*
X150970250Y-99983600D01*
X151159750Y-99983600D01*
X151345603Y-100020568D01*
X151345603Y-100020568D01*
G37*
G36*
X165545603Y-100020568D02*
X165545606Y-100020569D01*
X165545605Y-100020569D01*
X165720678Y-100093086D01*
X165720679Y-100093087D01*
X165878241Y-100198367D01*
X166012233Y-100332359D01*
X166012234Y-100332361D01*
X166117514Y-100489922D01*
X166151119Y-100571052D01*
X166191457Y-100668436D01*
X166203009Y-100690047D01*
X166218554Y-100708989D01*
X166237496Y-100724534D01*
X166259107Y-100736085D01*
X166282556Y-100743198D01*
X166306942Y-100745600D01*
X166421360Y-100745600D01*
X166629784Y-100766128D01*
X166824304Y-100825135D01*
X167003566Y-100920953D01*
X167160696Y-101049904D01*
X167289647Y-101207034D01*
X167385465Y-101386296D01*
X167444472Y-101580816D01*
X167465000Y-101789240D01*
X167465000Y-104101960D01*
X167444472Y-104310384D01*
X167385465Y-104504904D01*
X167289647Y-104684166D01*
X167160696Y-104841296D01*
X167003566Y-104970247D01*
X166824304Y-105066065D01*
X166629784Y-105125072D01*
X166421360Y-105145600D01*
X164108640Y-105145600D01*
X163900216Y-105125072D01*
X163705696Y-105066065D01*
X163526434Y-104970247D01*
X163369304Y-104841296D01*
X163240353Y-104684166D01*
X163144535Y-104504904D01*
X163085528Y-104310384D01*
X163065000Y-104101960D01*
X163065000Y-101789240D01*
X163085528Y-101580816D01*
X163144535Y-101386296D01*
X163240353Y-101207034D01*
X163369304Y-101049904D01*
X163526434Y-100920953D01*
X163705696Y-100825135D01*
X163900216Y-100766128D01*
X164108640Y-100745600D01*
X164223058Y-100745600D01*
X164247444Y-100743198D01*
X164270893Y-100736085D01*
X164292504Y-100724534D01*
X164311446Y-100708988D01*
X164326992Y-100690046D01*
X164338543Y-100668436D01*
X164378881Y-100571052D01*
X164412486Y-100489922D01*
X164517766Y-100332361D01*
X164517767Y-100332359D01*
X164651759Y-100198367D01*
X164809321Y-100093087D01*
X164809322Y-100093086D01*
X164984395Y-100020569D01*
X164984394Y-100020569D01*
X164984397Y-100020568D01*
X165170250Y-99983600D01*
X165359750Y-99983600D01*
X165545603Y-100020568D01*
X165545603Y-100020568D01*
G37*
G36*
X222345603Y-100020568D02*
X222345606Y-100020569D01*
X222345605Y-100020569D01*
X222520678Y-100093086D01*
X222520679Y-100093087D01*
X222678241Y-100198367D01*
X222812233Y-100332359D01*
X222812234Y-100332361D01*
X222917514Y-100489922D01*
X222951119Y-100571052D01*
X222991457Y-100668436D01*
X223003009Y-100690047D01*
X223018554Y-100708989D01*
X223037496Y-100724534D01*
X223059107Y-100736085D01*
X223082556Y-100743198D01*
X223106942Y-100745600D01*
X223221360Y-100745600D01*
X223429784Y-100766128D01*
X223624304Y-100825135D01*
X223803566Y-100920953D01*
X223960696Y-101049904D01*
X224089647Y-101207034D01*
X224185465Y-101386296D01*
X224244472Y-101580816D01*
X224265000Y-101789240D01*
X224265000Y-104101960D01*
X224244472Y-104310384D01*
X224185465Y-104504904D01*
X224089647Y-104684166D01*
X223960696Y-104841296D01*
X223803566Y-104970247D01*
X223624304Y-105066065D01*
X223429784Y-105125072D01*
X223221360Y-105145600D01*
X220908640Y-105145600D01*
X220700216Y-105125072D01*
X220505696Y-105066065D01*
X220326434Y-104970247D01*
X220169304Y-104841296D01*
X220040353Y-104684166D01*
X219944535Y-104504904D01*
X219885528Y-104310384D01*
X219865000Y-104101960D01*
X219865000Y-101789240D01*
X219885528Y-101580816D01*
X219944535Y-101386296D01*
X220040353Y-101207034D01*
X220169304Y-101049904D01*
X220326434Y-100920953D01*
X220505696Y-100825135D01*
X220700216Y-100766128D01*
X220908640Y-100745600D01*
X221023058Y-100745600D01*
X221047444Y-100743198D01*
X221070893Y-100736085D01*
X221092504Y-100724534D01*
X221111446Y-100708988D01*
X221126992Y-100690046D01*
X221138543Y-100668436D01*
X221178881Y-100571052D01*
X221212486Y-100489922D01*
X221317766Y-100332361D01*
X221317767Y-100332359D01*
X221451759Y-100198367D01*
X221609321Y-100093087D01*
X221609322Y-100093086D01*
X221784395Y-100020569D01*
X221784394Y-100020569D01*
X221784397Y-100020568D01*
X221970250Y-99983600D01*
X222159750Y-99983600D01*
X222345603Y-100020568D01*
X222345603Y-100020568D01*
G37*
G36*
X179745603Y-100020568D02*
X179745606Y-100020569D01*
X179745605Y-100020569D01*
X179920678Y-100093086D01*
X179920679Y-100093087D01*
X180078241Y-100198367D01*
X180212233Y-100332359D01*
X180212234Y-100332361D01*
X180317514Y-100489922D01*
X180351119Y-100571052D01*
X180391457Y-100668436D01*
X180403009Y-100690047D01*
X180418554Y-100708989D01*
X180437496Y-100724534D01*
X180459107Y-100736085D01*
X180482556Y-100743198D01*
X180506942Y-100745600D01*
X180621360Y-100745600D01*
X180829784Y-100766128D01*
X181024304Y-100825135D01*
X181203566Y-100920953D01*
X181360696Y-101049904D01*
X181489647Y-101207034D01*
X181585465Y-101386296D01*
X181644472Y-101580816D01*
X181665000Y-101789240D01*
X181665000Y-104101960D01*
X181644472Y-104310384D01*
X181585465Y-104504904D01*
X181489647Y-104684166D01*
X181360696Y-104841296D01*
X181203566Y-104970247D01*
X181024304Y-105066065D01*
X180829784Y-105125072D01*
X180621360Y-105145600D01*
X178308640Y-105145600D01*
X178100216Y-105125072D01*
X177905696Y-105066065D01*
X177726434Y-104970247D01*
X177569304Y-104841296D01*
X177440353Y-104684166D01*
X177344535Y-104504904D01*
X177285528Y-104310384D01*
X177265000Y-104101960D01*
X177265000Y-101789240D01*
X177285528Y-101580816D01*
X177344535Y-101386296D01*
X177440353Y-101207034D01*
X177569304Y-101049904D01*
X177726434Y-100920953D01*
X177905696Y-100825135D01*
X178100216Y-100766128D01*
X178308640Y-100745600D01*
X178423058Y-100745600D01*
X178447444Y-100743198D01*
X178470893Y-100736085D01*
X178492504Y-100724534D01*
X178511446Y-100708988D01*
X178526992Y-100690046D01*
X178538543Y-100668436D01*
X178578881Y-100571052D01*
X178612486Y-100489922D01*
X178717766Y-100332361D01*
X178717767Y-100332359D01*
X178851759Y-100198367D01*
X179009321Y-100093087D01*
X179009322Y-100093086D01*
X179184395Y-100020569D01*
X179184394Y-100020569D01*
X179184397Y-100020568D01*
X179370250Y-99983600D01*
X179559750Y-99983600D01*
X179745603Y-100020568D01*
X179745603Y-100020568D01*
G37*
G36*
X193945603Y-100020568D02*
X193945606Y-100020569D01*
X193945605Y-100020569D01*
X194120678Y-100093086D01*
X194120679Y-100093087D01*
X194278241Y-100198367D01*
X194412233Y-100332359D01*
X194412234Y-100332361D01*
X194517514Y-100489922D01*
X194551119Y-100571052D01*
X194591457Y-100668436D01*
X194603009Y-100690047D01*
X194618554Y-100708989D01*
X194637496Y-100724534D01*
X194659107Y-100736085D01*
X194682556Y-100743198D01*
X194706942Y-100745600D01*
X194821360Y-100745600D01*
X195029784Y-100766128D01*
X195224304Y-100825135D01*
X195403566Y-100920953D01*
X195560696Y-101049904D01*
X195689647Y-101207034D01*
X195785465Y-101386296D01*
X195844472Y-101580816D01*
X195865000Y-101789240D01*
X195865000Y-104101960D01*
X195844472Y-104310384D01*
X195785465Y-104504904D01*
X195689647Y-104684166D01*
X195560696Y-104841296D01*
X195403566Y-104970247D01*
X195224304Y-105066065D01*
X195029784Y-105125072D01*
X194821360Y-105145600D01*
X192508640Y-105145600D01*
X192300216Y-105125072D01*
X192105696Y-105066065D01*
X191926434Y-104970247D01*
X191769304Y-104841296D01*
X191640353Y-104684166D01*
X191544535Y-104504904D01*
X191485528Y-104310384D01*
X191465000Y-104101960D01*
X191465000Y-101789240D01*
X191485528Y-101580816D01*
X191544535Y-101386296D01*
X191640353Y-101207034D01*
X191769304Y-101049904D01*
X191926434Y-100920953D01*
X192105696Y-100825135D01*
X192300216Y-100766128D01*
X192508640Y-100745600D01*
X192623058Y-100745600D01*
X192647444Y-100743198D01*
X192670893Y-100736085D01*
X192692504Y-100724534D01*
X192711446Y-100708988D01*
X192726992Y-100690046D01*
X192738543Y-100668436D01*
X192778881Y-100571052D01*
X192812486Y-100489922D01*
X192917766Y-100332361D01*
X192917767Y-100332359D01*
X193051759Y-100198367D01*
X193209321Y-100093087D01*
X193209322Y-100093086D01*
X193384395Y-100020569D01*
X193384394Y-100020569D01*
X193384397Y-100020568D01*
X193570250Y-99983600D01*
X193759750Y-99983600D01*
X193945603Y-100020568D01*
X193945603Y-100020568D01*
G37*
G36*
X208145603Y-100020568D02*
X208145606Y-100020569D01*
X208145605Y-100020569D01*
X208320678Y-100093086D01*
X208320679Y-100093087D01*
X208478241Y-100198367D01*
X208612233Y-100332359D01*
X208612234Y-100332361D01*
X208717514Y-100489922D01*
X208751119Y-100571052D01*
X208791457Y-100668436D01*
X208803009Y-100690047D01*
X208818554Y-100708989D01*
X208837496Y-100724534D01*
X208859107Y-100736085D01*
X208882556Y-100743198D01*
X208906942Y-100745600D01*
X209021360Y-100745600D01*
X209229784Y-100766128D01*
X209424304Y-100825135D01*
X209603566Y-100920953D01*
X209760696Y-101049904D01*
X209889647Y-101207034D01*
X209985465Y-101386296D01*
X210044472Y-101580816D01*
X210065000Y-101789240D01*
X210065000Y-104101960D01*
X210044472Y-104310384D01*
X209985465Y-104504904D01*
X209889647Y-104684166D01*
X209760696Y-104841296D01*
X209603566Y-104970247D01*
X209424304Y-105066065D01*
X209229784Y-105125072D01*
X209021360Y-105145600D01*
X206708640Y-105145600D01*
X206500216Y-105125072D01*
X206305696Y-105066065D01*
X206126434Y-104970247D01*
X205969304Y-104841296D01*
X205840353Y-104684166D01*
X205744535Y-104504904D01*
X205685528Y-104310384D01*
X205665000Y-104101960D01*
X205665000Y-101789240D01*
X205685528Y-101580816D01*
X205744535Y-101386296D01*
X205840353Y-101207034D01*
X205969304Y-101049904D01*
X206126434Y-100920953D01*
X206305696Y-100825135D01*
X206500216Y-100766128D01*
X206708640Y-100745600D01*
X206823058Y-100745600D01*
X206847444Y-100743198D01*
X206870893Y-100736085D01*
X206892504Y-100724534D01*
X206911446Y-100708988D01*
X206926992Y-100690046D01*
X206938543Y-100668436D01*
X206978881Y-100571052D01*
X207012486Y-100489922D01*
X207117766Y-100332361D01*
X207117767Y-100332359D01*
X207251759Y-100198367D01*
X207409321Y-100093087D01*
X207409322Y-100093086D01*
X207584395Y-100020569D01*
X207584394Y-100020569D01*
X207584397Y-100020568D01*
X207770250Y-99983600D01*
X207959750Y-99983600D01*
X208145603Y-100020568D01*
X208145603Y-100020568D01*
G37*
G36*
X235134707Y-52876697D02*
X235211836Y-52884293D01*
X235343787Y-52924320D01*
X235409763Y-52944333D01*
X235592172Y-53041833D01*
X235752054Y-53173046D01*
X235883267Y-53332928D01*
X235980767Y-53515337D01*
X235980767Y-53515338D01*
X236040807Y-53713264D01*
X236061080Y-53919100D01*
X236040807Y-54124936D01*
X236000780Y-54256887D01*
X235980767Y-54322863D01*
X235883267Y-54505272D01*
X235752054Y-54665154D01*
X235592172Y-54796367D01*
X235409763Y-54893867D01*
X235343787Y-54913880D01*
X235211836Y-54953907D01*
X235134707Y-54961503D01*
X235057580Y-54969100D01*
X234954420Y-54969100D01*
X234877293Y-54961503D01*
X234800164Y-54953907D01*
X234668213Y-54913880D01*
X234602237Y-54893867D01*
X234419828Y-54796367D01*
X234259946Y-54665154D01*
X234128733Y-54505272D01*
X234031233Y-54322863D01*
X234011220Y-54256887D01*
X233971193Y-54124936D01*
X233950920Y-53919100D01*
X233971193Y-53713264D01*
X234031233Y-53515338D01*
X234031233Y-53515337D01*
X234128733Y-53332928D01*
X234259946Y-53173046D01*
X234419828Y-53041833D01*
X234602237Y-52944333D01*
X234668213Y-52924320D01*
X234800164Y-52884293D01*
X234877293Y-52876697D01*
X234954420Y-52869100D01*
X235057580Y-52869100D01*
X235134707Y-52876697D01*
X235134707Y-52876697D01*
G37*
G36*
X138248707Y-52871596D02*
X138325836Y-52879193D01*
X138457787Y-52919220D01*
X138523763Y-52939233D01*
X138706172Y-53036733D01*
X138866054Y-53167946D01*
X138997267Y-53327828D01*
X139094767Y-53510237D01*
X139094767Y-53510238D01*
X139154807Y-53708164D01*
X139175080Y-53914000D01*
X139154807Y-54119836D01*
X139114780Y-54251787D01*
X139094767Y-54317763D01*
X138997267Y-54500172D01*
X138866054Y-54660054D01*
X138706172Y-54791267D01*
X138523763Y-54888767D01*
X138457787Y-54908780D01*
X138325836Y-54948807D01*
X138248707Y-54956404D01*
X138171580Y-54964000D01*
X138068420Y-54964000D01*
X137991293Y-54956404D01*
X137914164Y-54948807D01*
X137782213Y-54908780D01*
X137716237Y-54888767D01*
X137533828Y-54791267D01*
X137373946Y-54660054D01*
X137242733Y-54500172D01*
X137145233Y-54317763D01*
X137125220Y-54251787D01*
X137085193Y-54119836D01*
X137064920Y-53914000D01*
X137085193Y-53708164D01*
X137145233Y-53510238D01*
X137145233Y-53510237D01*
X137242733Y-53327828D01*
X137373946Y-53167946D01*
X137533828Y-53036733D01*
X137716237Y-52939233D01*
X137782213Y-52919220D01*
X137914164Y-52879193D01*
X137991293Y-52871596D01*
X138068420Y-52864000D01*
X138171580Y-52864000D01*
X138248707Y-52871596D01*
X138248707Y-52871596D01*
G37*
G36*
X235134707Y-50336696D02*
X235211836Y-50344293D01*
X235343787Y-50384320D01*
X235409763Y-50404333D01*
X235592172Y-50501833D01*
X235752054Y-50633046D01*
X235883267Y-50792928D01*
X235980767Y-50975337D01*
X235980767Y-50975338D01*
X236040807Y-51173264D01*
X236061080Y-51379100D01*
X236040807Y-51584936D01*
X236000780Y-51716887D01*
X235980767Y-51782863D01*
X235883267Y-51965272D01*
X235752054Y-52125154D01*
X235592172Y-52256367D01*
X235409763Y-52353867D01*
X235343787Y-52373880D01*
X235211836Y-52413907D01*
X235134707Y-52421503D01*
X235057580Y-52429100D01*
X234954420Y-52429100D01*
X234877293Y-52421504D01*
X234800164Y-52413907D01*
X234668213Y-52373880D01*
X234602237Y-52353867D01*
X234419828Y-52256367D01*
X234259946Y-52125154D01*
X234128733Y-51965272D01*
X234031233Y-51782863D01*
X234011220Y-51716887D01*
X233971193Y-51584936D01*
X233950920Y-51379100D01*
X233971193Y-51173264D01*
X234031233Y-50975338D01*
X234031233Y-50975337D01*
X234128733Y-50792928D01*
X234259946Y-50633046D01*
X234419828Y-50501833D01*
X234602237Y-50404333D01*
X234668213Y-50384320D01*
X234800164Y-50344293D01*
X234877293Y-50336696D01*
X234954420Y-50329100D01*
X235057580Y-50329100D01*
X235134707Y-50336696D01*
X235134707Y-50336696D01*
G37*
G36*
X138248707Y-50331597D02*
X138325836Y-50339193D01*
X138457787Y-50379220D01*
X138523763Y-50399233D01*
X138706172Y-50496733D01*
X138866054Y-50627946D01*
X138997267Y-50787828D01*
X139094767Y-50970237D01*
X139094767Y-50970238D01*
X139154807Y-51168164D01*
X139175080Y-51374000D01*
X139154807Y-51579836D01*
X139114780Y-51711787D01*
X139094767Y-51777763D01*
X138997267Y-51960172D01*
X138866054Y-52120054D01*
X138706172Y-52251267D01*
X138523763Y-52348767D01*
X138457787Y-52368780D01*
X138325836Y-52408807D01*
X138248707Y-52416403D01*
X138171580Y-52424000D01*
X138068420Y-52424000D01*
X137991293Y-52416404D01*
X137914164Y-52408807D01*
X137782213Y-52368780D01*
X137716237Y-52348767D01*
X137533828Y-52251267D01*
X137373946Y-52120054D01*
X137242733Y-51960172D01*
X137145233Y-51777763D01*
X137125220Y-51711787D01*
X137085193Y-51579836D01*
X137064920Y-51374000D01*
X137085193Y-51168164D01*
X137145233Y-50970238D01*
X137145233Y-50970237D01*
X137242733Y-50787828D01*
X137373946Y-50627946D01*
X137533828Y-50496733D01*
X137716237Y-50399233D01*
X137782213Y-50379220D01*
X137914164Y-50339193D01*
X137991293Y-50331597D01*
X138068420Y-50324000D01*
X138171580Y-50324000D01*
X138248707Y-50331597D01*
X138248707Y-50331597D01*
G37*
G36*
X235134707Y-47796696D02*
X235211836Y-47804293D01*
X235343787Y-47844320D01*
X235409763Y-47864333D01*
X235592172Y-47961833D01*
X235752054Y-48093046D01*
X235883267Y-48252928D01*
X235980767Y-48435337D01*
X235980767Y-48435338D01*
X236040807Y-48633264D01*
X236061080Y-48839100D01*
X236040807Y-49044936D01*
X236000780Y-49176887D01*
X235980767Y-49242863D01*
X235883267Y-49425272D01*
X235752054Y-49585154D01*
X235592172Y-49716367D01*
X235409763Y-49813867D01*
X235343787Y-49833880D01*
X235211836Y-49873907D01*
X235134707Y-49881504D01*
X235057580Y-49889100D01*
X234954420Y-49889100D01*
X234877293Y-49881503D01*
X234800164Y-49873907D01*
X234668213Y-49833880D01*
X234602237Y-49813867D01*
X234419828Y-49716367D01*
X234259946Y-49585154D01*
X234128733Y-49425272D01*
X234031233Y-49242863D01*
X234011220Y-49176887D01*
X233971193Y-49044936D01*
X233950920Y-48839100D01*
X233971193Y-48633264D01*
X234031233Y-48435338D01*
X234031233Y-48435337D01*
X234128733Y-48252928D01*
X234259946Y-48093046D01*
X234419828Y-47961833D01*
X234602237Y-47864333D01*
X234668213Y-47844320D01*
X234800164Y-47804293D01*
X234877293Y-47796696D01*
X234954420Y-47789100D01*
X235057580Y-47789100D01*
X235134707Y-47796696D01*
X235134707Y-47796696D01*
G37*
G36*
X138248707Y-47791596D02*
X138325836Y-47799193D01*
X138457787Y-47839220D01*
X138523763Y-47859233D01*
X138706172Y-47956733D01*
X138866054Y-48087946D01*
X138997267Y-48247828D01*
X139094767Y-48430237D01*
X139094767Y-48430238D01*
X139154807Y-48628164D01*
X139175080Y-48834000D01*
X139154807Y-49039836D01*
X139114780Y-49171787D01*
X139094767Y-49237763D01*
X138997267Y-49420172D01*
X138866054Y-49580054D01*
X138706172Y-49711267D01*
X138523763Y-49808767D01*
X138457787Y-49828780D01*
X138325836Y-49868807D01*
X138248707Y-49876404D01*
X138171580Y-49884000D01*
X138068420Y-49884000D01*
X137991293Y-49876404D01*
X137914164Y-49868807D01*
X137782213Y-49828780D01*
X137716237Y-49808767D01*
X137533828Y-49711267D01*
X137373946Y-49580054D01*
X137242733Y-49420172D01*
X137145233Y-49237763D01*
X137125220Y-49171787D01*
X137085193Y-49039836D01*
X137064920Y-48834000D01*
X137085193Y-48628164D01*
X137145233Y-48430238D01*
X137145233Y-48430237D01*
X137242733Y-48247828D01*
X137373946Y-48087946D01*
X137533828Y-47956733D01*
X137716237Y-47859233D01*
X137782213Y-47839220D01*
X137914164Y-47799193D01*
X137991293Y-47791596D01*
X138068420Y-47784000D01*
X138171580Y-47784000D01*
X138248707Y-47791596D01*
X138248707Y-47791596D01*
G37*
G36*
X235134707Y-45256696D02*
X235211836Y-45264293D01*
X235343787Y-45304320D01*
X235409763Y-45324333D01*
X235592172Y-45421833D01*
X235752054Y-45553046D01*
X235883267Y-45712928D01*
X235980767Y-45895337D01*
X235980767Y-45895338D01*
X236040807Y-46093264D01*
X236061080Y-46299100D01*
X236040807Y-46504936D01*
X236000780Y-46636887D01*
X235980767Y-46702863D01*
X235883267Y-46885272D01*
X235752054Y-47045154D01*
X235592172Y-47176367D01*
X235409763Y-47273867D01*
X235343787Y-47293880D01*
X235211836Y-47333907D01*
X235134707Y-47341503D01*
X235057580Y-47349100D01*
X234954420Y-47349100D01*
X234877293Y-47341503D01*
X234800164Y-47333907D01*
X234668213Y-47293880D01*
X234602237Y-47273867D01*
X234419828Y-47176367D01*
X234259946Y-47045154D01*
X234128733Y-46885272D01*
X234031233Y-46702863D01*
X234011220Y-46636887D01*
X233971193Y-46504936D01*
X233950920Y-46299100D01*
X233971193Y-46093264D01*
X234031233Y-45895338D01*
X234031233Y-45895337D01*
X234128733Y-45712928D01*
X234259946Y-45553046D01*
X234419828Y-45421833D01*
X234602237Y-45324333D01*
X234668213Y-45304320D01*
X234800164Y-45264293D01*
X234877293Y-45256696D01*
X234954420Y-45249100D01*
X235057580Y-45249100D01*
X235134707Y-45256696D01*
X235134707Y-45256696D01*
G37*
G36*
X138248707Y-45251596D02*
X138325836Y-45259193D01*
X138457787Y-45299220D01*
X138523763Y-45319233D01*
X138706172Y-45416733D01*
X138866054Y-45547946D01*
X138997267Y-45707828D01*
X139094767Y-45890237D01*
X139094767Y-45890238D01*
X139154807Y-46088164D01*
X139175080Y-46294000D01*
X139154807Y-46499836D01*
X139114780Y-46631787D01*
X139094767Y-46697763D01*
X138997267Y-46880172D01*
X138866054Y-47040054D01*
X138706172Y-47171267D01*
X138523763Y-47268767D01*
X138457787Y-47288780D01*
X138325836Y-47328807D01*
X138248707Y-47336403D01*
X138171580Y-47344000D01*
X138068420Y-47344000D01*
X137991293Y-47336404D01*
X137914164Y-47328807D01*
X137782213Y-47288780D01*
X137716237Y-47268767D01*
X137533828Y-47171267D01*
X137373946Y-47040054D01*
X137242733Y-46880172D01*
X137145233Y-46697763D01*
X137125220Y-46631787D01*
X137085193Y-46499836D01*
X137064920Y-46294000D01*
X137085193Y-46088164D01*
X137145233Y-45890238D01*
X137145233Y-45890237D01*
X137242733Y-45707828D01*
X137373946Y-45547946D01*
X137533828Y-45416733D01*
X137716237Y-45319233D01*
X137782213Y-45299220D01*
X137914164Y-45259193D01*
X137991293Y-45251596D01*
X138068420Y-45244000D01*
X138171580Y-45244000D01*
X138248707Y-45251596D01*
X138248707Y-45251596D01*
G37*
G36*
X235134707Y-42716697D02*
X235211836Y-42724293D01*
X235343787Y-42764320D01*
X235409763Y-42784333D01*
X235592172Y-42881833D01*
X235752054Y-43013046D01*
X235883267Y-43172928D01*
X235980767Y-43355337D01*
X235980767Y-43355338D01*
X236040807Y-43553264D01*
X236061080Y-43759100D01*
X236040807Y-43964936D01*
X236000780Y-44096887D01*
X235980767Y-44162863D01*
X235883267Y-44345272D01*
X235752054Y-44505154D01*
X235592172Y-44636367D01*
X235409763Y-44733867D01*
X235343787Y-44753880D01*
X235211836Y-44793907D01*
X235134707Y-44801504D01*
X235057580Y-44809100D01*
X234954420Y-44809100D01*
X234877293Y-44801504D01*
X234800164Y-44793907D01*
X234668213Y-44753880D01*
X234602237Y-44733867D01*
X234419828Y-44636367D01*
X234259946Y-44505154D01*
X234128733Y-44345272D01*
X234031233Y-44162863D01*
X234011220Y-44096887D01*
X233971193Y-43964936D01*
X233950920Y-43759100D01*
X233971193Y-43553264D01*
X234031233Y-43355338D01*
X234031233Y-43355337D01*
X234128733Y-43172928D01*
X234259946Y-43013046D01*
X234419828Y-42881833D01*
X234602237Y-42784333D01*
X234668213Y-42764320D01*
X234800164Y-42724293D01*
X234877293Y-42716697D01*
X234954420Y-42709100D01*
X235057580Y-42709100D01*
X235134707Y-42716697D01*
X235134707Y-42716697D01*
G37*
G36*
X138248707Y-42711596D02*
X138325836Y-42719193D01*
X138457787Y-42759220D01*
X138523763Y-42779233D01*
X138706172Y-42876733D01*
X138866054Y-43007946D01*
X138997267Y-43167828D01*
X139094767Y-43350237D01*
X139094767Y-43350238D01*
X139154807Y-43548164D01*
X139175080Y-43754000D01*
X139154807Y-43959836D01*
X139114780Y-44091787D01*
X139094767Y-44157763D01*
X138997267Y-44340172D01*
X138866054Y-44500054D01*
X138706172Y-44631267D01*
X138523763Y-44728767D01*
X138457787Y-44748780D01*
X138325836Y-44788807D01*
X138248707Y-44796403D01*
X138171580Y-44804000D01*
X138068420Y-44804000D01*
X137991293Y-44796404D01*
X137914164Y-44788807D01*
X137782213Y-44748780D01*
X137716237Y-44728767D01*
X137533828Y-44631267D01*
X137373946Y-44500054D01*
X137242733Y-44340172D01*
X137145233Y-44157763D01*
X137125220Y-44091787D01*
X137085193Y-43959836D01*
X137064920Y-43754000D01*
X137085193Y-43548164D01*
X137145233Y-43350238D01*
X137145233Y-43350237D01*
X137242733Y-43167828D01*
X137373946Y-43007946D01*
X137533828Y-42876733D01*
X137716237Y-42779233D01*
X137782213Y-42759220D01*
X137914164Y-42719193D01*
X137991293Y-42711597D01*
X138068420Y-42704000D01*
X138171580Y-42704000D01*
X138248707Y-42711596D01*
X138248707Y-42711596D01*
G37*
G36*
X236056000Y-42269100D02*
X233956000Y-42269100D01*
X233956000Y-40169100D01*
X236056000Y-40169100D01*
X236056000Y-42269100D01*
X236056000Y-42269100D01*
G37*
G36*
X139170000Y-42264000D02*
X137070000Y-42264000D01*
X137070000Y-40164000D01*
X139170000Y-40164000D01*
X139170000Y-42264000D01*
X139170000Y-42264000D01*
G37*
M02*
