G04 #@! TF.GenerationSoftware,KiCad,Pcbnew,5.0.2-bee76a0~70~ubuntu18.04.1*
G04 #@! TF.CreationDate,2018-12-10T16:15:13+09:00*
G04 #@! TF.ProjectId,2019_01,32303139-5f30-4312-9e6b-696361645f70,rev?*
G04 #@! TF.SameCoordinates,Original*
G04 #@! TF.FileFunction,Legend,Bot*
G04 #@! TF.FilePolarity,Positive*
%FSLAX46Y46*%
G04 Gerber Fmt 4.6, Leading zero omitted, Abs format (unit mm)*
G04 Created by KiCad (PCBNEW 5.0.2-bee76a0~70~ubuntu18.04.1) date 2018年12月10日 16時15分13秒*
%MOMM*%
%LPD*%
G01*
G04 APERTURE LIST*
%ADD10C,0.300000*%
%ADD11C,0.010000*%
G04 APERTURE END LIST*
D10*
X166188005Y-96665171D02*
X166188005Y-95165171D01*
X165545148Y-96665171D02*
X165545148Y-95879457D01*
X165616577Y-95736600D01*
X165759434Y-95665171D01*
X165973720Y-95665171D01*
X166116577Y-95736600D01*
X166188005Y-95808028D01*
X165045148Y-95665171D02*
X164473720Y-95665171D01*
X164830862Y-95165171D02*
X164830862Y-96450885D01*
X164759434Y-96593742D01*
X164616577Y-96665171D01*
X164473720Y-96665171D01*
X164188005Y-95665171D02*
X163616577Y-95665171D01*
X163973720Y-95165171D02*
X163973720Y-96450885D01*
X163902291Y-96593742D01*
X163759434Y-96665171D01*
X163616577Y-96665171D01*
X163116577Y-95665171D02*
X163116577Y-97165171D01*
X163116577Y-95736600D02*
X162973720Y-95665171D01*
X162688005Y-95665171D01*
X162545148Y-95736600D01*
X162473720Y-95808028D01*
X162402291Y-95950885D01*
X162402291Y-96379457D01*
X162473720Y-96522314D01*
X162545148Y-96593742D01*
X162688005Y-96665171D01*
X162973720Y-96665171D01*
X163116577Y-96593742D01*
X161759434Y-96522314D02*
X161688005Y-96593742D01*
X161759434Y-96665171D01*
X161830862Y-96593742D01*
X161759434Y-96522314D01*
X161759434Y-96665171D01*
X161759434Y-95736600D02*
X161688005Y-95808028D01*
X161759434Y-95879457D01*
X161830862Y-95808028D01*
X161759434Y-95736600D01*
X161759434Y-95879457D01*
X159973720Y-95093742D02*
X161259434Y-97022314D01*
X158402291Y-95093742D02*
X159688005Y-97022314D01*
X157902291Y-95665171D02*
X157902291Y-96665171D01*
X157902291Y-95808028D02*
X157830862Y-95736600D01*
X157688005Y-95665171D01*
X157473720Y-95665171D01*
X157330862Y-95736600D01*
X157259434Y-95879457D01*
X157259434Y-96665171D01*
X156688005Y-95665171D02*
X156330862Y-96665171D01*
X155973720Y-95665171D02*
X156330862Y-96665171D01*
X156473720Y-97022314D01*
X156545148Y-97093742D01*
X156688005Y-97165171D01*
X154759434Y-96665171D02*
X154759434Y-95879457D01*
X154830862Y-95736600D01*
X154973720Y-95665171D01*
X155259434Y-95665171D01*
X155402291Y-95736600D01*
X154759434Y-96593742D02*
X154902291Y-96665171D01*
X155259434Y-96665171D01*
X155402291Y-96593742D01*
X155473720Y-96450885D01*
X155473720Y-96308028D01*
X155402291Y-96165171D01*
X155259434Y-96093742D01*
X154902291Y-96093742D01*
X154759434Y-96022314D01*
X154045148Y-96665171D02*
X154045148Y-95665171D01*
X154045148Y-95808028D02*
X153973720Y-95736600D01*
X153830862Y-95665171D01*
X153616577Y-95665171D01*
X153473720Y-95736600D01*
X153402291Y-95879457D01*
X153402291Y-96665171D01*
X153402291Y-95879457D02*
X153330862Y-95736600D01*
X153188005Y-95665171D01*
X152973720Y-95665171D01*
X152830862Y-95736600D01*
X152759434Y-95879457D01*
X152759434Y-96665171D01*
X152045148Y-95665171D02*
X152045148Y-97165171D01*
X152045148Y-95736600D02*
X151902291Y-95665171D01*
X151616577Y-95665171D01*
X151473720Y-95736600D01*
X151402291Y-95808028D01*
X151330862Y-95950885D01*
X151330862Y-96379457D01*
X151402291Y-96522314D01*
X151473720Y-96593742D01*
X151616577Y-96665171D01*
X151902291Y-96665171D01*
X152045148Y-96593742D01*
X150045148Y-96665171D02*
X150045148Y-95879457D01*
X150116577Y-95736600D01*
X150259434Y-95665171D01*
X150545148Y-95665171D01*
X150688005Y-95736600D01*
X150045148Y-96593742D02*
X150188005Y-96665171D01*
X150545148Y-96665171D01*
X150688005Y-96593742D01*
X150759434Y-96450885D01*
X150759434Y-96308028D01*
X150688005Y-96165171D01*
X150545148Y-96093742D01*
X150188005Y-96093742D01*
X150045148Y-96022314D01*
X149402291Y-96593742D02*
X149259434Y-96665171D01*
X148973720Y-96665171D01*
X148830862Y-96593742D01*
X148759434Y-96450885D01*
X148759434Y-96379457D01*
X148830862Y-96236600D01*
X148973720Y-96165171D01*
X149188005Y-96165171D01*
X149330862Y-96093742D01*
X149402291Y-95950885D01*
X149402291Y-95879457D01*
X149330862Y-95736600D01*
X149188005Y-95665171D01*
X148973720Y-95665171D01*
X148830862Y-95736600D01*
X148188005Y-96593742D02*
X148045148Y-96665171D01*
X147759434Y-96665171D01*
X147616577Y-96593742D01*
X147545148Y-96450885D01*
X147545148Y-96379457D01*
X147616577Y-96236600D01*
X147759434Y-96165171D01*
X147973720Y-96165171D01*
X148116577Y-96093742D01*
X148188005Y-95950885D01*
X148188005Y-95879457D01*
X148116577Y-95736600D01*
X147973720Y-95665171D01*
X147759434Y-95665171D01*
X147616577Y-95736600D01*
X146902291Y-96522314D02*
X146830862Y-96593742D01*
X146902291Y-96665171D01*
X146973720Y-96593742D01*
X146902291Y-96522314D01*
X146902291Y-96665171D01*
X145545148Y-96593742D02*
X145688005Y-96665171D01*
X145973720Y-96665171D01*
X146116577Y-96593742D01*
X146188005Y-96522314D01*
X146259434Y-96379457D01*
X146259434Y-95950885D01*
X146188005Y-95808028D01*
X146116577Y-95736600D01*
X145973720Y-95665171D01*
X145688005Y-95665171D01*
X145545148Y-95736600D01*
X144688005Y-96665171D02*
X144830862Y-96593742D01*
X144902291Y-96522314D01*
X144973720Y-96379457D01*
X144973720Y-95950885D01*
X144902291Y-95808028D01*
X144830862Y-95736600D01*
X144688005Y-95665171D01*
X144473720Y-95665171D01*
X144330862Y-95736600D01*
X144259434Y-95808028D01*
X144188005Y-95950885D01*
X144188005Y-96379457D01*
X144259434Y-96522314D01*
X144330862Y-96593742D01*
X144473720Y-96665171D01*
X144688005Y-96665171D01*
X143545148Y-96665171D02*
X143545148Y-95665171D01*
X143545148Y-95808028D02*
X143473720Y-95736600D01*
X143330862Y-95665171D01*
X143116577Y-95665171D01*
X142973720Y-95736600D01*
X142902291Y-95879457D01*
X142902291Y-96665171D01*
X142902291Y-95879457D02*
X142830862Y-95736600D01*
X142688005Y-95665171D01*
X142473720Y-95665171D01*
X142330862Y-95736600D01*
X142259434Y-95879457D01*
X142259434Y-96665171D01*
D11*
G04 #@! TO.C,G\002A\002A\002A*
G36*
X164396793Y-88873489D02*
X164304202Y-88877424D01*
X164233977Y-88887299D01*
X164171906Y-88905540D01*
X164103777Y-88934573D01*
X164068760Y-88951133D01*
X163917641Y-89040276D01*
X163786737Y-89149759D01*
X163689161Y-89268035D01*
X163668162Y-89303860D01*
X163638354Y-89394668D01*
X163620818Y-89523241D01*
X163615851Y-89677977D01*
X163623746Y-89847273D01*
X163644799Y-90019526D01*
X163649306Y-90046010D01*
X163667082Y-90139354D01*
X163693824Y-90270928D01*
X163727367Y-90430845D01*
X163765548Y-90609220D01*
X163806203Y-90796166D01*
X163847167Y-90981795D01*
X163886276Y-91156222D01*
X163921365Y-91309561D01*
X163950272Y-91431923D01*
X163969189Y-91507310D01*
X163994519Y-91602560D01*
X164460722Y-91602560D01*
X164627908Y-91602050D01*
X164751104Y-91600142D01*
X164837112Y-91596264D01*
X164892734Y-91589847D01*
X164924774Y-91580319D01*
X164940034Y-91567111D01*
X164942425Y-91562167D01*
X164950683Y-91518307D01*
X164947660Y-91505017D01*
X164938419Y-91474176D01*
X164920614Y-91401140D01*
X164895862Y-91293481D01*
X164865781Y-91158774D01*
X164831986Y-91004593D01*
X164796095Y-90838511D01*
X164759723Y-90668103D01*
X164724488Y-90500941D01*
X164692005Y-90344601D01*
X164663892Y-90206656D01*
X164641765Y-90094679D01*
X164627241Y-90016244D01*
X164621935Y-89978940D01*
X164641992Y-89908591D01*
X164702779Y-89866808D01*
X164802249Y-89854761D01*
X164835667Y-89856777D01*
X164931016Y-89870413D01*
X164999671Y-89896785D01*
X165049137Y-89944445D01*
X165086917Y-90021945D01*
X165120516Y-90137840D01*
X165134607Y-90197482D01*
X165157732Y-90296721D01*
X165190406Y-90434026D01*
X165229918Y-90598167D01*
X165273562Y-90777910D01*
X165318628Y-90962024D01*
X165335627Y-91031060D01*
X165479741Y-91615260D01*
X165926366Y-91622181D01*
X166096261Y-91623967D01*
X166221736Y-91623065D01*
X166309121Y-91619110D01*
X166364743Y-91611740D01*
X166394931Y-91600590D01*
X166401377Y-91594901D01*
X166407385Y-91571432D01*
X166405651Y-91521573D01*
X166395512Y-91441230D01*
X166376306Y-91326309D01*
X166347372Y-91172715D01*
X166308048Y-90976355D01*
X166277044Y-90825979D01*
X166196627Y-90440223D01*
X166125694Y-90102432D01*
X166063833Y-89810743D01*
X166010630Y-89563295D01*
X165965671Y-89358226D01*
X165928545Y-89193674D01*
X165898837Y-89067778D01*
X165876135Y-88978674D01*
X165860026Y-88924502D01*
X165850601Y-88903840D01*
X165814506Y-88896757D01*
X165732019Y-88898800D01*
X165606681Y-88909753D01*
X165449903Y-88928373D01*
X165304721Y-88946972D01*
X165199832Y-88958970D01*
X165125152Y-88964310D01*
X165070598Y-88962940D01*
X165026086Y-88954804D01*
X164981533Y-88939846D01*
X164945779Y-88925635D01*
X164873424Y-88901099D01*
X164793377Y-88885313D01*
X164692143Y-88876587D01*
X164556229Y-88873233D01*
X164525960Y-88873065D01*
X164396793Y-88873489D01*
X164396793Y-88873489D01*
G37*
X164396793Y-88873489D02*
X164304202Y-88877424D01*
X164233977Y-88887299D01*
X164171906Y-88905540D01*
X164103777Y-88934573D01*
X164068760Y-88951133D01*
X163917641Y-89040276D01*
X163786737Y-89149759D01*
X163689161Y-89268035D01*
X163668162Y-89303860D01*
X163638354Y-89394668D01*
X163620818Y-89523241D01*
X163615851Y-89677977D01*
X163623746Y-89847273D01*
X163644799Y-90019526D01*
X163649306Y-90046010D01*
X163667082Y-90139354D01*
X163693824Y-90270928D01*
X163727367Y-90430845D01*
X163765548Y-90609220D01*
X163806203Y-90796166D01*
X163847167Y-90981795D01*
X163886276Y-91156222D01*
X163921365Y-91309561D01*
X163950272Y-91431923D01*
X163969189Y-91507310D01*
X163994519Y-91602560D01*
X164460722Y-91602560D01*
X164627908Y-91602050D01*
X164751104Y-91600142D01*
X164837112Y-91596264D01*
X164892734Y-91589847D01*
X164924774Y-91580319D01*
X164940034Y-91567111D01*
X164942425Y-91562167D01*
X164950683Y-91518307D01*
X164947660Y-91505017D01*
X164938419Y-91474176D01*
X164920614Y-91401140D01*
X164895862Y-91293481D01*
X164865781Y-91158774D01*
X164831986Y-91004593D01*
X164796095Y-90838511D01*
X164759723Y-90668103D01*
X164724488Y-90500941D01*
X164692005Y-90344601D01*
X164663892Y-90206656D01*
X164641765Y-90094679D01*
X164627241Y-90016244D01*
X164621935Y-89978940D01*
X164641992Y-89908591D01*
X164702779Y-89866808D01*
X164802249Y-89854761D01*
X164835667Y-89856777D01*
X164931016Y-89870413D01*
X164999671Y-89896785D01*
X165049137Y-89944445D01*
X165086917Y-90021945D01*
X165120516Y-90137840D01*
X165134607Y-90197482D01*
X165157732Y-90296721D01*
X165190406Y-90434026D01*
X165229918Y-90598167D01*
X165273562Y-90777910D01*
X165318628Y-90962024D01*
X165335627Y-91031060D01*
X165479741Y-91615260D01*
X165926366Y-91622181D01*
X166096261Y-91623967D01*
X166221736Y-91623065D01*
X166309121Y-91619110D01*
X166364743Y-91611740D01*
X166394931Y-91600590D01*
X166401377Y-91594901D01*
X166407385Y-91571432D01*
X166405651Y-91521573D01*
X166395512Y-91441230D01*
X166376306Y-91326309D01*
X166347372Y-91172715D01*
X166308048Y-90976355D01*
X166277044Y-90825979D01*
X166196627Y-90440223D01*
X166125694Y-90102432D01*
X166063833Y-89810743D01*
X166010630Y-89563295D01*
X165965671Y-89358226D01*
X165928545Y-89193674D01*
X165898837Y-89067778D01*
X165876135Y-88978674D01*
X165860026Y-88924502D01*
X165850601Y-88903840D01*
X165814506Y-88896757D01*
X165732019Y-88898800D01*
X165606681Y-88909753D01*
X165449903Y-88928373D01*
X165304721Y-88946972D01*
X165199832Y-88958970D01*
X165125152Y-88964310D01*
X165070598Y-88962940D01*
X165026086Y-88954804D01*
X164981533Y-88939846D01*
X164945779Y-88925635D01*
X164873424Y-88901099D01*
X164793377Y-88885313D01*
X164692143Y-88876587D01*
X164556229Y-88873233D01*
X164525960Y-88873065D01*
X164396793Y-88873489D01*
G36*
X158003899Y-88657953D02*
X157901525Y-88663232D01*
X157827207Y-88671703D01*
X157794960Y-88681185D01*
X157788056Y-88691516D01*
X157784907Y-88713979D01*
X157786133Y-88752154D01*
X157792354Y-88809617D01*
X157804189Y-88889949D01*
X157822259Y-88996728D01*
X157847183Y-89133533D01*
X157879581Y-89303943D01*
X157920073Y-89511535D01*
X157969278Y-89759890D01*
X158027817Y-90052585D01*
X158061590Y-90220703D01*
X158132802Y-90572655D01*
X158195107Y-90875933D01*
X158248791Y-91131823D01*
X158294142Y-91341613D01*
X158331446Y-91506589D01*
X158360988Y-91628039D01*
X158383055Y-91707249D01*
X158397933Y-91745506D01*
X158401729Y-91749561D01*
X158438320Y-91749727D01*
X158514672Y-91740907D01*
X158620827Y-91724539D01*
X158746826Y-91702061D01*
X158795499Y-91692677D01*
X159153860Y-91622205D01*
X159382460Y-91689997D01*
X159589559Y-91739355D01*
X159798492Y-91767259D01*
X159996445Y-91773088D01*
X160170605Y-91756218D01*
X160264807Y-91732844D01*
X160479960Y-91636693D01*
X160669449Y-91502935D01*
X160829017Y-91337897D01*
X160954408Y-91147906D01*
X161041366Y-90939290D01*
X161085634Y-90718376D01*
X161085336Y-90513029D01*
X161056391Y-90350694D01*
X159948303Y-90350694D01*
X159932766Y-90424007D01*
X159904793Y-90478842D01*
X159815237Y-90577705D01*
X159700209Y-90640784D01*
X159571939Y-90665432D01*
X159442659Y-90649002D01*
X159341187Y-90600811D01*
X159243002Y-90506598D01*
X159185504Y-90391715D01*
X159169101Y-90266446D01*
X159194200Y-90141073D01*
X159261206Y-90025881D01*
X159316254Y-89970434D01*
X159433115Y-89902219D01*
X159559818Y-89880546D01*
X159687573Y-89904697D01*
X159807588Y-89973955D01*
X159851440Y-90014110D01*
X159903734Y-90075552D01*
X159931846Y-90135738D01*
X159944955Y-90217215D01*
X159947370Y-90249727D01*
X159948303Y-90350694D01*
X161056391Y-90350694D01*
X161029552Y-90200177D01*
X160928007Y-89904661D01*
X160783524Y-89630973D01*
X160598931Y-89383609D01*
X160377054Y-89167063D01*
X160127420Y-88989829D01*
X159924283Y-88893670D01*
X159693006Y-88827625D01*
X159447673Y-88793557D01*
X159202365Y-88793330D01*
X158971164Y-88828808D01*
X158950660Y-88834047D01*
X158825884Y-88866553D01*
X158741261Y-88885184D01*
X158687883Y-88889237D01*
X158656844Y-88878012D01*
X158639235Y-88850810D01*
X158626578Y-88808560D01*
X158603748Y-88739877D01*
X158579264Y-88690915D01*
X158576961Y-88687909D01*
X158542634Y-88676064D01*
X158468825Y-88666831D01*
X158366791Y-88660306D01*
X158247788Y-88656587D01*
X158123072Y-88655771D01*
X158003899Y-88657953D01*
X158003899Y-88657953D01*
G37*
X158003899Y-88657953D02*
X157901525Y-88663232D01*
X157827207Y-88671703D01*
X157794960Y-88681185D01*
X157788056Y-88691516D01*
X157784907Y-88713979D01*
X157786133Y-88752154D01*
X157792354Y-88809617D01*
X157804189Y-88889949D01*
X157822259Y-88996728D01*
X157847183Y-89133533D01*
X157879581Y-89303943D01*
X157920073Y-89511535D01*
X157969278Y-89759890D01*
X158027817Y-90052585D01*
X158061590Y-90220703D01*
X158132802Y-90572655D01*
X158195107Y-90875933D01*
X158248791Y-91131823D01*
X158294142Y-91341613D01*
X158331446Y-91506589D01*
X158360988Y-91628039D01*
X158383055Y-91707249D01*
X158397933Y-91745506D01*
X158401729Y-91749561D01*
X158438320Y-91749727D01*
X158514672Y-91740907D01*
X158620827Y-91724539D01*
X158746826Y-91702061D01*
X158795499Y-91692677D01*
X159153860Y-91622205D01*
X159382460Y-91689997D01*
X159589559Y-91739355D01*
X159798492Y-91767259D01*
X159996445Y-91773088D01*
X160170605Y-91756218D01*
X160264807Y-91732844D01*
X160479960Y-91636693D01*
X160669449Y-91502935D01*
X160829017Y-91337897D01*
X160954408Y-91147906D01*
X161041366Y-90939290D01*
X161085634Y-90718376D01*
X161085336Y-90513029D01*
X161056391Y-90350694D01*
X159948303Y-90350694D01*
X159932766Y-90424007D01*
X159904793Y-90478842D01*
X159815237Y-90577705D01*
X159700209Y-90640784D01*
X159571939Y-90665432D01*
X159442659Y-90649002D01*
X159341187Y-90600811D01*
X159243002Y-90506598D01*
X159185504Y-90391715D01*
X159169101Y-90266446D01*
X159194200Y-90141073D01*
X159261206Y-90025881D01*
X159316254Y-89970434D01*
X159433115Y-89902219D01*
X159559818Y-89880546D01*
X159687573Y-89904697D01*
X159807588Y-89973955D01*
X159851440Y-90014110D01*
X159903734Y-90075552D01*
X159931846Y-90135738D01*
X159944955Y-90217215D01*
X159947370Y-90249727D01*
X159948303Y-90350694D01*
X161056391Y-90350694D01*
X161029552Y-90200177D01*
X160928007Y-89904661D01*
X160783524Y-89630973D01*
X160598931Y-89383609D01*
X160377054Y-89167063D01*
X160127420Y-88989829D01*
X159924283Y-88893670D01*
X159693006Y-88827625D01*
X159447673Y-88793557D01*
X159202365Y-88793330D01*
X158971164Y-88828808D01*
X158950660Y-88834047D01*
X158825884Y-88866553D01*
X158741261Y-88885184D01*
X158687883Y-88889237D01*
X158656844Y-88878012D01*
X158639235Y-88850810D01*
X158626578Y-88808560D01*
X158603748Y-88739877D01*
X158579264Y-88690915D01*
X158576961Y-88687909D01*
X158542634Y-88676064D01*
X158468825Y-88666831D01*
X158366791Y-88660306D01*
X158247788Y-88656587D01*
X158123072Y-88655771D01*
X158003899Y-88657953D01*
G36*
X155632655Y-88623497D02*
X155455545Y-88638041D01*
X155312665Y-88664795D01*
X155196154Y-88705261D01*
X155098147Y-88760937D01*
X155093309Y-88764347D01*
X155046691Y-88794709D01*
X155008890Y-88804014D01*
X154959602Y-88793048D01*
X154902248Y-88771747D01*
X154737485Y-88712956D01*
X154588299Y-88672045D01*
X154438390Y-88646246D01*
X154271456Y-88632791D01*
X154071197Y-88628913D01*
X154061160Y-88628919D01*
X153847787Y-88633352D01*
X153674824Y-88647249D01*
X153532461Y-88672421D01*
X153410889Y-88710683D01*
X153300298Y-88763846D01*
X153285810Y-88772183D01*
X153136890Y-88886068D01*
X153007664Y-89037650D01*
X152921594Y-89186511D01*
X152891355Y-89256175D01*
X152871941Y-89319547D01*
X152861116Y-89391074D01*
X152856644Y-89485198D01*
X152856243Y-89608660D01*
X152857661Y-89690606D01*
X152861699Y-89769348D01*
X152869488Y-89851736D01*
X152882160Y-89944616D01*
X152900845Y-90054838D01*
X152926676Y-90189250D01*
X152960784Y-90354699D01*
X153004301Y-90558036D01*
X153040896Y-90726260D01*
X153085911Y-90931665D01*
X153128896Y-91126505D01*
X153168302Y-91303847D01*
X153202577Y-91456760D01*
X153230169Y-91578310D01*
X153249529Y-91661565D01*
X153256858Y-91691460D01*
X153289749Y-91818460D01*
X153837041Y-91825295D01*
X154023844Y-91827069D01*
X154165961Y-91826913D01*
X154269480Y-91824518D01*
X154340491Y-91819577D01*
X154385082Y-91811785D01*
X154409342Y-91800834D01*
X154414159Y-91796194D01*
X154422647Y-91772027D01*
X154421690Y-91726404D01*
X154410218Y-91653181D01*
X154387163Y-91546211D01*
X154351454Y-91399349D01*
X154331189Y-91319458D01*
X154270636Y-91078595D01*
X154214232Y-90846069D01*
X154163281Y-90627852D01*
X154119086Y-90429915D01*
X154082952Y-90258231D01*
X154056184Y-90118769D01*
X154040085Y-90017501D01*
X154035760Y-89966920D01*
X154054659Y-89871012D01*
X154098106Y-89810705D01*
X154179340Y-89762539D01*
X154283881Y-89745892D01*
X154397817Y-89757706D01*
X154507236Y-89794926D01*
X154598226Y-89854495D01*
X154656874Y-89933357D01*
X154656923Y-89933469D01*
X154671790Y-89979359D01*
X154695885Y-90067479D01*
X154727370Y-90190478D01*
X154764403Y-90341006D01*
X154805145Y-90511712D01*
X154847756Y-90695246D01*
X154849040Y-90700860D01*
X154893355Y-90893710D01*
X154937040Y-91082253D01*
X154977927Y-91257251D01*
X155013849Y-91409463D01*
X155042638Y-91529652D01*
X155060596Y-91602560D01*
X155115260Y-91818460D01*
X155668317Y-91825307D01*
X155854564Y-91827107D01*
X155995936Y-91827090D01*
X156098338Y-91824955D01*
X156167671Y-91820401D01*
X156209840Y-91813125D01*
X156230748Y-91802828D01*
X156235104Y-91796371D01*
X156232982Y-91763960D01*
X156220771Y-91687930D01*
X156199643Y-91574198D01*
X156170765Y-91428684D01*
X156135309Y-91257304D01*
X156094444Y-91065976D01*
X156056698Y-90893747D01*
X156011504Y-90687364D01*
X155970094Y-90493467D01*
X155933752Y-90318450D01*
X155903765Y-90168708D01*
X155881420Y-90050636D01*
X155868003Y-89970627D01*
X155864560Y-89938432D01*
X155885544Y-89840551D01*
X155946687Y-89771552D01*
X156045279Y-89733062D01*
X156178613Y-89726709D01*
X156212062Y-89729755D01*
X156294912Y-89745098D01*
X156360085Y-89774603D01*
X156411972Y-89824982D01*
X156454966Y-89902948D01*
X156493459Y-90015211D01*
X156531842Y-90168485D01*
X156548336Y-90243660D01*
X156581631Y-90396741D01*
X156619860Y-90568142D01*
X156661401Y-90751014D01*
X156704633Y-90938509D01*
X156747934Y-91123779D01*
X156789682Y-91299977D01*
X156828256Y-91460253D01*
X156862035Y-91597760D01*
X156889396Y-91705650D01*
X156908718Y-91777073D01*
X156917961Y-91804628D01*
X156948317Y-91814442D01*
X157019980Y-91822137D01*
X157124027Y-91827755D01*
X157251538Y-91831337D01*
X157393589Y-91832923D01*
X157541258Y-91832554D01*
X157685625Y-91830272D01*
X157817766Y-91826117D01*
X157928760Y-91820130D01*
X158009684Y-91812352D01*
X158051617Y-91802825D01*
X158055344Y-91799410D01*
X158057729Y-91791583D01*
X158058983Y-91781579D01*
X158058279Y-91765618D01*
X158054791Y-91739922D01*
X158047693Y-91700710D01*
X158036157Y-91644204D01*
X158019357Y-91566624D01*
X157996466Y-91464191D01*
X157966658Y-91333125D01*
X157929105Y-91169648D01*
X157882982Y-90969979D01*
X157827462Y-90730340D01*
X157761717Y-90446952D01*
X157723380Y-90281760D01*
X157648158Y-89957718D01*
X157583537Y-89679618D01*
X157528660Y-89443911D01*
X157482672Y-89247048D01*
X157444718Y-89085478D01*
X157413942Y-88955653D01*
X157389487Y-88854024D01*
X157370499Y-88777040D01*
X157356121Y-88721154D01*
X157345498Y-88682814D01*
X157337774Y-88658473D01*
X157332094Y-88644580D01*
X157327602Y-88637586D01*
X157326781Y-88636714D01*
X157297400Y-88634328D01*
X157226465Y-88638034D01*
X157122763Y-88647102D01*
X156995081Y-88660799D01*
X156900302Y-88672225D01*
X156489891Y-88723805D01*
X156361376Y-88672538D01*
X156301472Y-88651710D01*
X156236635Y-88637144D01*
X156156240Y-88627736D01*
X156049662Y-88622384D01*
X155906274Y-88619985D01*
X155851860Y-88619665D01*
X155632655Y-88623497D01*
X155632655Y-88623497D01*
G37*
X155632655Y-88623497D02*
X155455545Y-88638041D01*
X155312665Y-88664795D01*
X155196154Y-88705261D01*
X155098147Y-88760937D01*
X155093309Y-88764347D01*
X155046691Y-88794709D01*
X155008890Y-88804014D01*
X154959602Y-88793048D01*
X154902248Y-88771747D01*
X154737485Y-88712956D01*
X154588299Y-88672045D01*
X154438390Y-88646246D01*
X154271456Y-88632791D01*
X154071197Y-88628913D01*
X154061160Y-88628919D01*
X153847787Y-88633352D01*
X153674824Y-88647249D01*
X153532461Y-88672421D01*
X153410889Y-88710683D01*
X153300298Y-88763846D01*
X153285810Y-88772183D01*
X153136890Y-88886068D01*
X153007664Y-89037650D01*
X152921594Y-89186511D01*
X152891355Y-89256175D01*
X152871941Y-89319547D01*
X152861116Y-89391074D01*
X152856644Y-89485198D01*
X152856243Y-89608660D01*
X152857661Y-89690606D01*
X152861699Y-89769348D01*
X152869488Y-89851736D01*
X152882160Y-89944616D01*
X152900845Y-90054838D01*
X152926676Y-90189250D01*
X152960784Y-90354699D01*
X153004301Y-90558036D01*
X153040896Y-90726260D01*
X153085911Y-90931665D01*
X153128896Y-91126505D01*
X153168302Y-91303847D01*
X153202577Y-91456760D01*
X153230169Y-91578310D01*
X153249529Y-91661565D01*
X153256858Y-91691460D01*
X153289749Y-91818460D01*
X153837041Y-91825295D01*
X154023844Y-91827069D01*
X154165961Y-91826913D01*
X154269480Y-91824518D01*
X154340491Y-91819577D01*
X154385082Y-91811785D01*
X154409342Y-91800834D01*
X154414159Y-91796194D01*
X154422647Y-91772027D01*
X154421690Y-91726404D01*
X154410218Y-91653181D01*
X154387163Y-91546211D01*
X154351454Y-91399349D01*
X154331189Y-91319458D01*
X154270636Y-91078595D01*
X154214232Y-90846069D01*
X154163281Y-90627852D01*
X154119086Y-90429915D01*
X154082952Y-90258231D01*
X154056184Y-90118769D01*
X154040085Y-90017501D01*
X154035760Y-89966920D01*
X154054659Y-89871012D01*
X154098106Y-89810705D01*
X154179340Y-89762539D01*
X154283881Y-89745892D01*
X154397817Y-89757706D01*
X154507236Y-89794926D01*
X154598226Y-89854495D01*
X154656874Y-89933357D01*
X154656923Y-89933469D01*
X154671790Y-89979359D01*
X154695885Y-90067479D01*
X154727370Y-90190478D01*
X154764403Y-90341006D01*
X154805145Y-90511712D01*
X154847756Y-90695246D01*
X154849040Y-90700860D01*
X154893355Y-90893710D01*
X154937040Y-91082253D01*
X154977927Y-91257251D01*
X155013849Y-91409463D01*
X155042638Y-91529652D01*
X155060596Y-91602560D01*
X155115260Y-91818460D01*
X155668317Y-91825307D01*
X155854564Y-91827107D01*
X155995936Y-91827090D01*
X156098338Y-91824955D01*
X156167671Y-91820401D01*
X156209840Y-91813125D01*
X156230748Y-91802828D01*
X156235104Y-91796371D01*
X156232982Y-91763960D01*
X156220771Y-91687930D01*
X156199643Y-91574198D01*
X156170765Y-91428684D01*
X156135309Y-91257304D01*
X156094444Y-91065976D01*
X156056698Y-90893747D01*
X156011504Y-90687364D01*
X155970094Y-90493467D01*
X155933752Y-90318450D01*
X155903765Y-90168708D01*
X155881420Y-90050636D01*
X155868003Y-89970627D01*
X155864560Y-89938432D01*
X155885544Y-89840551D01*
X155946687Y-89771552D01*
X156045279Y-89733062D01*
X156178613Y-89726709D01*
X156212062Y-89729755D01*
X156294912Y-89745098D01*
X156360085Y-89774603D01*
X156411972Y-89824982D01*
X156454966Y-89902948D01*
X156493459Y-90015211D01*
X156531842Y-90168485D01*
X156548336Y-90243660D01*
X156581631Y-90396741D01*
X156619860Y-90568142D01*
X156661401Y-90751014D01*
X156704633Y-90938509D01*
X156747934Y-91123779D01*
X156789682Y-91299977D01*
X156828256Y-91460253D01*
X156862035Y-91597760D01*
X156889396Y-91705650D01*
X156908718Y-91777073D01*
X156917961Y-91804628D01*
X156948317Y-91814442D01*
X157019980Y-91822137D01*
X157124027Y-91827755D01*
X157251538Y-91831337D01*
X157393589Y-91832923D01*
X157541258Y-91832554D01*
X157685625Y-91830272D01*
X157817766Y-91826117D01*
X157928760Y-91820130D01*
X158009684Y-91812352D01*
X158051617Y-91802825D01*
X158055344Y-91799410D01*
X158057729Y-91791583D01*
X158058983Y-91781579D01*
X158058279Y-91765618D01*
X158054791Y-91739922D01*
X158047693Y-91700710D01*
X158036157Y-91644204D01*
X158019357Y-91566624D01*
X157996466Y-91464191D01*
X157966658Y-91333125D01*
X157929105Y-91169648D01*
X157882982Y-90969979D01*
X157827462Y-90730340D01*
X157761717Y-90446952D01*
X157723380Y-90281760D01*
X157648158Y-89957718D01*
X157583537Y-89679618D01*
X157528660Y-89443911D01*
X157482672Y-89247048D01*
X157444718Y-89085478D01*
X157413942Y-88955653D01*
X157389487Y-88854024D01*
X157370499Y-88777040D01*
X157356121Y-88721154D01*
X157345498Y-88682814D01*
X157337774Y-88658473D01*
X157332094Y-88644580D01*
X157327602Y-88637586D01*
X157326781Y-88636714D01*
X157297400Y-88634328D01*
X157226465Y-88638034D01*
X157122763Y-88647102D01*
X156995081Y-88660799D01*
X156900302Y-88672225D01*
X156489891Y-88723805D01*
X156361376Y-88672538D01*
X156301472Y-88651710D01*
X156236635Y-88637144D01*
X156156240Y-88627736D01*
X156049662Y-88622384D01*
X155906274Y-88619985D01*
X155851860Y-88619665D01*
X155632655Y-88623497D01*
G36*
X145223126Y-88681552D02*
X145111519Y-88688827D01*
X145027223Y-88700287D01*
X144982036Y-88715513D01*
X144973891Y-88719795D01*
X144966465Y-88722445D01*
X144960319Y-88726411D01*
X144956016Y-88734642D01*
X144954118Y-88750088D01*
X144955187Y-88775695D01*
X144959785Y-88814414D01*
X144968475Y-88869192D01*
X144981818Y-88942979D01*
X145000378Y-89038722D01*
X145024716Y-89159372D01*
X145055394Y-89307875D01*
X145092974Y-89487181D01*
X145138020Y-89700239D01*
X145191092Y-89949997D01*
X145252754Y-90239404D01*
X145323568Y-90571408D01*
X145404095Y-90948958D01*
X145439991Y-91117331D01*
X145481072Y-91308780D01*
X145519263Y-91484322D01*
X145553174Y-91637760D01*
X145581416Y-91762900D01*
X145602600Y-91853544D01*
X145615336Y-91903497D01*
X145617961Y-91911081D01*
X145636397Y-91925060D01*
X145673786Y-91930691D01*
X145736532Y-91927375D01*
X145831043Y-91914512D01*
X145963723Y-91891503D01*
X146097109Y-91866267D01*
X146441171Y-91799775D01*
X146676116Y-91868890D01*
X146845075Y-91909106D01*
X147029763Y-91937092D01*
X147217415Y-91952270D01*
X147395262Y-91954060D01*
X147550536Y-91941882D01*
X147670471Y-91915159D01*
X147673392Y-91914125D01*
X147908440Y-91805471D01*
X148112105Y-91661695D01*
X148280990Y-91487409D01*
X148411703Y-91287226D01*
X148500847Y-91065759D01*
X148545029Y-90827619D01*
X148549360Y-90723944D01*
X148525561Y-90420266D01*
X148504045Y-90328535D01*
X147330160Y-90328535D01*
X147307645Y-90466518D01*
X147245887Y-90583775D01*
X147153572Y-90675264D01*
X147039385Y-90735945D01*
X146912010Y-90760776D01*
X146780132Y-90744717D01*
X146684419Y-90703350D01*
X146581711Y-90617987D01*
X146509081Y-90506581D01*
X146470701Y-90381584D01*
X146470740Y-90255447D01*
X146502393Y-90159848D01*
X146592026Y-90035544D01*
X146705796Y-89951286D01*
X146835839Y-89909703D01*
X146974290Y-89913424D01*
X147102576Y-89959249D01*
X147204882Y-90038700D01*
X147282431Y-90148356D01*
X147325068Y-90271736D01*
X147330160Y-90328535D01*
X148504045Y-90328535D01*
X148456658Y-90126512D01*
X148346397Y-89847447D01*
X148198521Y-89587839D01*
X148016777Y-89352453D01*
X147804908Y-89146056D01*
X147566659Y-88973415D01*
X147305775Y-88839295D01*
X147026000Y-88748464D01*
X146991254Y-88740682D01*
X146777913Y-88713795D01*
X146543789Y-88716048D01*
X146308855Y-88746249D01*
X146125525Y-88792334D01*
X146014082Y-88825941D01*
X145942038Y-88841158D01*
X145901484Y-88838110D01*
X145884514Y-88816922D01*
X145882360Y-88796175D01*
X145865693Y-88751273D01*
X145842446Y-88721474D01*
X145800916Y-88705257D01*
X145719856Y-88692762D01*
X145610408Y-88684067D01*
X145483710Y-88679249D01*
X145350902Y-88678385D01*
X145223126Y-88681552D01*
X145223126Y-88681552D01*
G37*
X145223126Y-88681552D02*
X145111519Y-88688827D01*
X145027223Y-88700287D01*
X144982036Y-88715513D01*
X144973891Y-88719795D01*
X144966465Y-88722445D01*
X144960319Y-88726411D01*
X144956016Y-88734642D01*
X144954118Y-88750088D01*
X144955187Y-88775695D01*
X144959785Y-88814414D01*
X144968475Y-88869192D01*
X144981818Y-88942979D01*
X145000378Y-89038722D01*
X145024716Y-89159372D01*
X145055394Y-89307875D01*
X145092974Y-89487181D01*
X145138020Y-89700239D01*
X145191092Y-89949997D01*
X145252754Y-90239404D01*
X145323568Y-90571408D01*
X145404095Y-90948958D01*
X145439991Y-91117331D01*
X145481072Y-91308780D01*
X145519263Y-91484322D01*
X145553174Y-91637760D01*
X145581416Y-91762900D01*
X145602600Y-91853544D01*
X145615336Y-91903497D01*
X145617961Y-91911081D01*
X145636397Y-91925060D01*
X145673786Y-91930691D01*
X145736532Y-91927375D01*
X145831043Y-91914512D01*
X145963723Y-91891503D01*
X146097109Y-91866267D01*
X146441171Y-91799775D01*
X146676116Y-91868890D01*
X146845075Y-91909106D01*
X147029763Y-91937092D01*
X147217415Y-91952270D01*
X147395262Y-91954060D01*
X147550536Y-91941882D01*
X147670471Y-91915159D01*
X147673392Y-91914125D01*
X147908440Y-91805471D01*
X148112105Y-91661695D01*
X148280990Y-91487409D01*
X148411703Y-91287226D01*
X148500847Y-91065759D01*
X148545029Y-90827619D01*
X148549360Y-90723944D01*
X148525561Y-90420266D01*
X148504045Y-90328535D01*
X147330160Y-90328535D01*
X147307645Y-90466518D01*
X147245887Y-90583775D01*
X147153572Y-90675264D01*
X147039385Y-90735945D01*
X146912010Y-90760776D01*
X146780132Y-90744717D01*
X146684419Y-90703350D01*
X146581711Y-90617987D01*
X146509081Y-90506581D01*
X146470701Y-90381584D01*
X146470740Y-90255447D01*
X146502393Y-90159848D01*
X146592026Y-90035544D01*
X146705796Y-89951286D01*
X146835839Y-89909703D01*
X146974290Y-89913424D01*
X147102576Y-89959249D01*
X147204882Y-90038700D01*
X147282431Y-90148356D01*
X147325068Y-90271736D01*
X147330160Y-90328535D01*
X148504045Y-90328535D01*
X148456658Y-90126512D01*
X148346397Y-89847447D01*
X148198521Y-89587839D01*
X148016777Y-89352453D01*
X147804908Y-89146056D01*
X147566659Y-88973415D01*
X147305775Y-88839295D01*
X147026000Y-88748464D01*
X146991254Y-88740682D01*
X146777913Y-88713795D01*
X146543789Y-88716048D01*
X146308855Y-88746249D01*
X146125525Y-88792334D01*
X146014082Y-88825941D01*
X145942038Y-88841158D01*
X145901484Y-88838110D01*
X145884514Y-88816922D01*
X145882360Y-88796175D01*
X145865693Y-88751273D01*
X145842446Y-88721474D01*
X145800916Y-88705257D01*
X145719856Y-88692762D01*
X145610408Y-88684067D01*
X145483710Y-88679249D01*
X145350902Y-88678385D01*
X145223126Y-88681552D01*
G36*
X141126537Y-88726584D02*
X140937643Y-88785642D01*
X140779127Y-88884883D01*
X140650076Y-89024754D01*
X140626198Y-89060008D01*
X140577908Y-89150298D01*
X140538647Y-89251349D01*
X140511778Y-89350049D01*
X140500667Y-89433288D01*
X140508679Y-89487953D01*
X140514335Y-89495894D01*
X140546222Y-89511322D01*
X140617239Y-89537478D01*
X140717607Y-89571360D01*
X140837550Y-89609964D01*
X140967287Y-89650287D01*
X141097041Y-89689326D01*
X141217033Y-89724077D01*
X141317485Y-89751537D01*
X141388619Y-89768703D01*
X141416599Y-89773012D01*
X141457977Y-89752450D01*
X141475460Y-89722960D01*
X141506694Y-89680753D01*
X141549597Y-89675352D01*
X141578223Y-89699440D01*
X141573958Y-89738698D01*
X141528542Y-89795975D01*
X141446417Y-89866884D01*
X141332024Y-89947041D01*
X141318803Y-89955510D01*
X141130108Y-90099167D01*
X140988274Y-90259944D01*
X140893887Y-90436610D01*
X140847534Y-90627937D01*
X140849802Y-90832693D01*
X140862996Y-90911201D01*
X140933538Y-91140926D01*
X141043342Y-91356898D01*
X141186051Y-91551332D01*
X141355308Y-91716444D01*
X141544755Y-91844451D01*
X141673066Y-91903085D01*
X141815848Y-91942679D01*
X141976957Y-91965658D01*
X142133965Y-91969900D01*
X142246814Y-91957322D01*
X142430993Y-91895819D01*
X142599759Y-91794679D01*
X142742382Y-91662163D01*
X142848127Y-91506531D01*
X142857598Y-91487186D01*
X142893948Y-91395516D01*
X142923655Y-91294462D01*
X142944003Y-91197542D01*
X142952278Y-91118275D01*
X142945763Y-91070177D01*
X142942326Y-91065365D01*
X142910190Y-91048350D01*
X142839766Y-91019010D01*
X142741023Y-90980894D01*
X142623927Y-90937552D01*
X142498447Y-90892533D01*
X142374552Y-90849387D01*
X142262208Y-90811662D01*
X142171384Y-90782908D01*
X142112048Y-90766675D01*
X142096991Y-90764359D01*
X142056767Y-90786277D01*
X142021463Y-90840798D01*
X142021158Y-90841530D01*
X141984171Y-90903544D01*
X141938758Y-90945367D01*
X141897921Y-90956651D01*
X141885200Y-90949732D01*
X141869550Y-90903434D01*
X141903172Y-90845263D01*
X141985977Y-90775357D01*
X142001907Y-90764360D01*
X142147196Y-90655873D01*
X142281743Y-90536411D01*
X142395261Y-90416220D01*
X142477465Y-90305547D01*
X142496661Y-90271497D01*
X142559095Y-90093217D01*
X142577448Y-89896123D01*
X142552093Y-89685982D01*
X142483405Y-89468561D01*
X142438064Y-89369093D01*
X142307115Y-89161401D01*
X142141990Y-88989437D01*
X141947074Y-88855861D01*
X141726753Y-88763334D01*
X141485414Y-88714515D01*
X141346721Y-88707261D01*
X141126537Y-88726584D01*
X141126537Y-88726584D01*
G37*
X141126537Y-88726584D02*
X140937643Y-88785642D01*
X140779127Y-88884883D01*
X140650076Y-89024754D01*
X140626198Y-89060008D01*
X140577908Y-89150298D01*
X140538647Y-89251349D01*
X140511778Y-89350049D01*
X140500667Y-89433288D01*
X140508679Y-89487953D01*
X140514335Y-89495894D01*
X140546222Y-89511322D01*
X140617239Y-89537478D01*
X140717607Y-89571360D01*
X140837550Y-89609964D01*
X140967287Y-89650287D01*
X141097041Y-89689326D01*
X141217033Y-89724077D01*
X141317485Y-89751537D01*
X141388619Y-89768703D01*
X141416599Y-89773012D01*
X141457977Y-89752450D01*
X141475460Y-89722960D01*
X141506694Y-89680753D01*
X141549597Y-89675352D01*
X141578223Y-89699440D01*
X141573958Y-89738698D01*
X141528542Y-89795975D01*
X141446417Y-89866884D01*
X141332024Y-89947041D01*
X141318803Y-89955510D01*
X141130108Y-90099167D01*
X140988274Y-90259944D01*
X140893887Y-90436610D01*
X140847534Y-90627937D01*
X140849802Y-90832693D01*
X140862996Y-90911201D01*
X140933538Y-91140926D01*
X141043342Y-91356898D01*
X141186051Y-91551332D01*
X141355308Y-91716444D01*
X141544755Y-91844451D01*
X141673066Y-91903085D01*
X141815848Y-91942679D01*
X141976957Y-91965658D01*
X142133965Y-91969900D01*
X142246814Y-91957322D01*
X142430993Y-91895819D01*
X142599759Y-91794679D01*
X142742382Y-91662163D01*
X142848127Y-91506531D01*
X142857598Y-91487186D01*
X142893948Y-91395516D01*
X142923655Y-91294462D01*
X142944003Y-91197542D01*
X142952278Y-91118275D01*
X142945763Y-91070177D01*
X142942326Y-91065365D01*
X142910190Y-91048350D01*
X142839766Y-91019010D01*
X142741023Y-90980894D01*
X142623927Y-90937552D01*
X142498447Y-90892533D01*
X142374552Y-90849387D01*
X142262208Y-90811662D01*
X142171384Y-90782908D01*
X142112048Y-90766675D01*
X142096991Y-90764359D01*
X142056767Y-90786277D01*
X142021463Y-90840798D01*
X142021158Y-90841530D01*
X141984171Y-90903544D01*
X141938758Y-90945367D01*
X141897921Y-90956651D01*
X141885200Y-90949732D01*
X141869550Y-90903434D01*
X141903172Y-90845263D01*
X141985977Y-90775357D01*
X142001907Y-90764360D01*
X142147196Y-90655873D01*
X142281743Y-90536411D01*
X142395261Y-90416220D01*
X142477465Y-90305547D01*
X142496661Y-90271497D01*
X142559095Y-90093217D01*
X142577448Y-89896123D01*
X142552093Y-89685982D01*
X142483405Y-89468561D01*
X142438064Y-89369093D01*
X142307115Y-89161401D01*
X142141990Y-88989437D01*
X141947074Y-88855861D01*
X141726753Y-88763334D01*
X141485414Y-88714515D01*
X141346721Y-88707261D01*
X141126537Y-88726584D01*
G36*
X143463362Y-88711569D02*
X143250024Y-88741793D01*
X143070360Y-88809215D01*
X142921899Y-88915335D01*
X142802174Y-89061651D01*
X142757404Y-89140242D01*
X142713987Y-89243872D01*
X142686144Y-89347860D01*
X142676435Y-89437940D01*
X142687421Y-89499842D01*
X142691645Y-89506692D01*
X142721728Y-89523028D01*
X142791054Y-89550381D01*
X142890051Y-89585695D01*
X143009151Y-89625913D01*
X143138785Y-89667977D01*
X143269382Y-89708830D01*
X143391373Y-89745416D01*
X143495189Y-89774677D01*
X143571260Y-89793557D01*
X143607168Y-89799160D01*
X143638709Y-89781070D01*
X143682556Y-89736773D01*
X143688700Y-89729310D01*
X143727263Y-89685856D01*
X143748410Y-89680069D01*
X143762222Y-89703910D01*
X143770740Y-89758353D01*
X143746415Y-89809981D01*
X143683528Y-89868035D01*
X143641999Y-89898111D01*
X143502243Y-89995996D01*
X143397271Y-90072875D01*
X143319317Y-90135492D01*
X143260616Y-90190593D01*
X143213402Y-90244923D01*
X143169910Y-90305226D01*
X143165182Y-90312271D01*
X143070381Y-90496265D01*
X143024671Y-90691191D01*
X143028045Y-90897641D01*
X143080496Y-91116205D01*
X143154504Y-91293499D01*
X143279261Y-91501188D01*
X143433627Y-91681004D01*
X143611300Y-91829551D01*
X143805977Y-91943435D01*
X144011357Y-92019261D01*
X144221138Y-92053634D01*
X144429016Y-92043161D01*
X144512555Y-92025028D01*
X144698445Y-91950731D01*
X144862742Y-91837813D01*
X144999134Y-91693839D01*
X145101309Y-91526377D01*
X145162953Y-91342990D01*
X145177903Y-91227602D01*
X145183860Y-91110645D01*
X144777460Y-90963923D01*
X144639661Y-90915164D01*
X144515683Y-90873147D01*
X144414584Y-90840797D01*
X144345423Y-90821040D01*
X144320260Y-90816249D01*
X144268988Y-90840209D01*
X144218611Y-90910478D01*
X144173112Y-90975378D01*
X144130155Y-91003248D01*
X144097791Y-90991408D01*
X144085313Y-90954860D01*
X144095565Y-90916710D01*
X144139348Y-90870314D01*
X144222674Y-90809481D01*
X144233270Y-90802460D01*
X144381032Y-90691440D01*
X144519222Y-90562236D01*
X144637908Y-90425839D01*
X144727160Y-90293241D01*
X144764672Y-90214327D01*
X144806612Y-90033483D01*
X144804222Y-89835505D01*
X144758617Y-89625963D01*
X144670912Y-89410423D01*
X144568094Y-89232705D01*
X144415654Y-89044880D01*
X144233455Y-88897533D01*
X144023834Y-88791766D01*
X143789131Y-88728683D01*
X143531685Y-88709387D01*
X143463362Y-88711569D01*
X143463362Y-88711569D01*
G37*
X143463362Y-88711569D02*
X143250024Y-88741793D01*
X143070360Y-88809215D01*
X142921899Y-88915335D01*
X142802174Y-89061651D01*
X142757404Y-89140242D01*
X142713987Y-89243872D01*
X142686144Y-89347860D01*
X142676435Y-89437940D01*
X142687421Y-89499842D01*
X142691645Y-89506692D01*
X142721728Y-89523028D01*
X142791054Y-89550381D01*
X142890051Y-89585695D01*
X143009151Y-89625913D01*
X143138785Y-89667977D01*
X143269382Y-89708830D01*
X143391373Y-89745416D01*
X143495189Y-89774677D01*
X143571260Y-89793557D01*
X143607168Y-89799160D01*
X143638709Y-89781070D01*
X143682556Y-89736773D01*
X143688700Y-89729310D01*
X143727263Y-89685856D01*
X143748410Y-89680069D01*
X143762222Y-89703910D01*
X143770740Y-89758353D01*
X143746415Y-89809981D01*
X143683528Y-89868035D01*
X143641999Y-89898111D01*
X143502243Y-89995996D01*
X143397271Y-90072875D01*
X143319317Y-90135492D01*
X143260616Y-90190593D01*
X143213402Y-90244923D01*
X143169910Y-90305226D01*
X143165182Y-90312271D01*
X143070381Y-90496265D01*
X143024671Y-90691191D01*
X143028045Y-90897641D01*
X143080496Y-91116205D01*
X143154504Y-91293499D01*
X143279261Y-91501188D01*
X143433627Y-91681004D01*
X143611300Y-91829551D01*
X143805977Y-91943435D01*
X144011357Y-92019261D01*
X144221138Y-92053634D01*
X144429016Y-92043161D01*
X144512555Y-92025028D01*
X144698445Y-91950731D01*
X144862742Y-91837813D01*
X144999134Y-91693839D01*
X145101309Y-91526377D01*
X145162953Y-91342990D01*
X145177903Y-91227602D01*
X145183860Y-91110645D01*
X144777460Y-90963923D01*
X144639661Y-90915164D01*
X144515683Y-90873147D01*
X144414584Y-90840797D01*
X144345423Y-90821040D01*
X144320260Y-90816249D01*
X144268988Y-90840209D01*
X144218611Y-90910478D01*
X144173112Y-90975378D01*
X144130155Y-91003248D01*
X144097791Y-90991408D01*
X144085313Y-90954860D01*
X144095565Y-90916710D01*
X144139348Y-90870314D01*
X144222674Y-90809481D01*
X144233270Y-90802460D01*
X144381032Y-90691440D01*
X144519222Y-90562236D01*
X144637908Y-90425839D01*
X144727160Y-90293241D01*
X144764672Y-90214327D01*
X144806612Y-90033483D01*
X144804222Y-89835505D01*
X144758617Y-89625963D01*
X144670912Y-89410423D01*
X144568094Y-89232705D01*
X144415654Y-89044880D01*
X144233455Y-88897533D01*
X144023834Y-88791766D01*
X143789131Y-88728683D01*
X143531685Y-88709387D01*
X143463362Y-88711569D01*
G36*
X161190442Y-88865190D02*
X161013610Y-88868065D01*
X160881355Y-88871650D01*
X160787456Y-88876489D01*
X160725690Y-88883124D01*
X160689835Y-88892098D01*
X160673670Y-88903952D01*
X160671143Y-88910463D01*
X160682137Y-88938732D01*
X160716356Y-89007170D01*
X160771678Y-89111923D01*
X160845980Y-89249134D01*
X160937142Y-89414948D01*
X161043040Y-89605510D01*
X161161552Y-89816965D01*
X161290558Y-90045456D01*
X161427934Y-90287130D01*
X161454032Y-90332863D01*
X161596025Y-90581692D01*
X161732911Y-90821874D01*
X161862199Y-91049019D01*
X161981397Y-91258734D01*
X162088015Y-91446628D01*
X162179560Y-91608311D01*
X162253540Y-91739391D01*
X162307465Y-91835478D01*
X162338843Y-91892179D01*
X162340185Y-91894660D01*
X162397046Y-92000246D01*
X162465968Y-92128444D01*
X162535032Y-92257081D01*
X162558617Y-92301060D01*
X162612688Y-92398956D01*
X162660347Y-92479861D01*
X162695220Y-92533237D01*
X162708213Y-92548321D01*
X162740947Y-92553987D01*
X162814383Y-92558519D01*
X162918434Y-92561889D01*
X163043014Y-92564070D01*
X163178037Y-92565032D01*
X163313415Y-92564749D01*
X163439063Y-92563193D01*
X163544894Y-92560335D01*
X163620821Y-92556148D01*
X163656010Y-92550938D01*
X163683167Y-92517808D01*
X163687760Y-92492271D01*
X163675495Y-92458988D01*
X163640871Y-92387925D01*
X163587141Y-92285170D01*
X163517562Y-92156810D01*
X163435390Y-92008936D01*
X163343878Y-91847635D01*
X163332407Y-91827637D01*
X163239903Y-91664761D01*
X163156350Y-91514194D01*
X163085015Y-91382101D01*
X163029164Y-91274650D01*
X162992065Y-91198004D01*
X162976982Y-91158330D01*
X162976807Y-91156423D01*
X162981572Y-91121098D01*
X162995297Y-91041329D01*
X163016970Y-90922482D01*
X163045578Y-90769925D01*
X163080107Y-90589025D01*
X163119545Y-90385149D01*
X163162879Y-90163664D01*
X163192531Y-90013423D01*
X163237484Y-89784345D01*
X163278721Y-89570159D01*
X163315291Y-89376102D01*
X163346243Y-89207411D01*
X163370627Y-89069325D01*
X163387492Y-88967080D01*
X163395888Y-88905913D01*
X163396317Y-88890559D01*
X163380224Y-88878953D01*
X163338414Y-88870757D01*
X163265419Y-88865696D01*
X163155773Y-88863492D01*
X163004009Y-88863868D01*
X162894596Y-88865159D01*
X162405060Y-88872060D01*
X162362553Y-89049860D01*
X162337404Y-89157051D01*
X162306665Y-89290958D01*
X162275578Y-89428664D01*
X162264124Y-89480112D01*
X162242865Y-89577152D01*
X162225411Y-89645545D01*
X162207734Y-89683065D01*
X162185807Y-89687487D01*
X162155600Y-89656586D01*
X162113087Y-89588135D01*
X162054240Y-89479909D01*
X161975029Y-89329684D01*
X161968102Y-89316560D01*
X161903140Y-89195131D01*
X161842341Y-89084326D01*
X161791625Y-88994741D01*
X161756912Y-88936972D01*
X161751392Y-88928690D01*
X161702362Y-88858321D01*
X161190442Y-88865190D01*
X161190442Y-88865190D01*
G37*
X161190442Y-88865190D02*
X161013610Y-88868065D01*
X160881355Y-88871650D01*
X160787456Y-88876489D01*
X160725690Y-88883124D01*
X160689835Y-88892098D01*
X160673670Y-88903952D01*
X160671143Y-88910463D01*
X160682137Y-88938732D01*
X160716356Y-89007170D01*
X160771678Y-89111923D01*
X160845980Y-89249134D01*
X160937142Y-89414948D01*
X161043040Y-89605510D01*
X161161552Y-89816965D01*
X161290558Y-90045456D01*
X161427934Y-90287130D01*
X161454032Y-90332863D01*
X161596025Y-90581692D01*
X161732911Y-90821874D01*
X161862199Y-91049019D01*
X161981397Y-91258734D01*
X162088015Y-91446628D01*
X162179560Y-91608311D01*
X162253540Y-91739391D01*
X162307465Y-91835478D01*
X162338843Y-91892179D01*
X162340185Y-91894660D01*
X162397046Y-92000246D01*
X162465968Y-92128444D01*
X162535032Y-92257081D01*
X162558617Y-92301060D01*
X162612688Y-92398956D01*
X162660347Y-92479861D01*
X162695220Y-92533237D01*
X162708213Y-92548321D01*
X162740947Y-92553987D01*
X162814383Y-92558519D01*
X162918434Y-92561889D01*
X163043014Y-92564070D01*
X163178037Y-92565032D01*
X163313415Y-92564749D01*
X163439063Y-92563193D01*
X163544894Y-92560335D01*
X163620821Y-92556148D01*
X163656010Y-92550938D01*
X163683167Y-92517808D01*
X163687760Y-92492271D01*
X163675495Y-92458988D01*
X163640871Y-92387925D01*
X163587141Y-92285170D01*
X163517562Y-92156810D01*
X163435390Y-92008936D01*
X163343878Y-91847635D01*
X163332407Y-91827637D01*
X163239903Y-91664761D01*
X163156350Y-91514194D01*
X163085015Y-91382101D01*
X163029164Y-91274650D01*
X162992065Y-91198004D01*
X162976982Y-91158330D01*
X162976807Y-91156423D01*
X162981572Y-91121098D01*
X162995297Y-91041329D01*
X163016970Y-90922482D01*
X163045578Y-90769925D01*
X163080107Y-90589025D01*
X163119545Y-90385149D01*
X163162879Y-90163664D01*
X163192531Y-90013423D01*
X163237484Y-89784345D01*
X163278721Y-89570159D01*
X163315291Y-89376102D01*
X163346243Y-89207411D01*
X163370627Y-89069325D01*
X163387492Y-88967080D01*
X163395888Y-88905913D01*
X163396317Y-88890559D01*
X163380224Y-88878953D01*
X163338414Y-88870757D01*
X163265419Y-88865696D01*
X163155773Y-88863492D01*
X163004009Y-88863868D01*
X162894596Y-88865159D01*
X162405060Y-88872060D01*
X162362553Y-89049860D01*
X162337404Y-89157051D01*
X162306665Y-89290958D01*
X162275578Y-89428664D01*
X162264124Y-89480112D01*
X162242865Y-89577152D01*
X162225411Y-89645545D01*
X162207734Y-89683065D01*
X162185807Y-89687487D01*
X162155600Y-89656586D01*
X162113087Y-89588135D01*
X162054240Y-89479909D01*
X161975029Y-89329684D01*
X161968102Y-89316560D01*
X161903140Y-89195131D01*
X161842341Y-89084326D01*
X161791625Y-88994741D01*
X161756912Y-88936972D01*
X161751392Y-88928690D01*
X161702362Y-88858321D01*
X161190442Y-88865190D01*
G36*
X152098557Y-88402058D02*
X152017553Y-88412628D01*
X151899238Y-88434096D01*
X151737855Y-88467228D01*
X151724360Y-88470097D01*
X151305260Y-88559356D01*
X151140160Y-88515604D01*
X150977786Y-88483691D01*
X150788482Y-88463867D01*
X150592912Y-88457100D01*
X150411735Y-88464356D01*
X150312455Y-88476880D01*
X150026787Y-88551107D01*
X149763480Y-88667730D01*
X149525634Y-88822199D01*
X149316348Y-89009967D01*
X149138722Y-89226485D01*
X148995855Y-89467204D01*
X148890847Y-89727576D01*
X148826798Y-90003053D01*
X148806807Y-90289086D01*
X148833975Y-90581128D01*
X148843719Y-90632080D01*
X148925678Y-90907513D01*
X149052156Y-91166187D01*
X149218251Y-91401685D01*
X149419060Y-91607587D01*
X149649679Y-91777475D01*
X149769874Y-91844521D01*
X149974767Y-91935757D01*
X150173496Y-91996823D01*
X150383133Y-92031554D01*
X150620744Y-92043782D01*
X150657560Y-92043916D01*
X150984099Y-92024777D01*
X151277790Y-91968397D01*
X151537834Y-91874992D01*
X151757573Y-91748931D01*
X151808138Y-91718245D01*
X151838536Y-91709026D01*
X151840247Y-91709980D01*
X151848780Y-91737404D01*
X151865345Y-91806338D01*
X151888078Y-91908462D01*
X151915119Y-92035458D01*
X151938914Y-92150901D01*
X151976251Y-92331213D01*
X152018504Y-92529459D01*
X152064308Y-92739751D01*
X152112303Y-92956202D01*
X152161124Y-93172922D01*
X152209410Y-93384023D01*
X152255798Y-93583618D01*
X152298926Y-93765817D01*
X152337430Y-93924733D01*
X152369948Y-94054478D01*
X152395118Y-94149163D01*
X152411576Y-94202900D01*
X152415973Y-94212410D01*
X152456739Y-94232115D01*
X152522997Y-94238946D01*
X152533921Y-94238503D01*
X152591364Y-94236038D01*
X152688141Y-94233020D01*
X152812793Y-94229762D01*
X152953862Y-94226575D01*
X153023636Y-94225170D01*
X153189967Y-94220600D01*
X153309665Y-94214001D01*
X153386869Y-94204982D01*
X153425719Y-94193148D01*
X153431951Y-94186377D01*
X153430011Y-94152997D01*
X153418319Y-94078128D01*
X153398370Y-93969819D01*
X153371658Y-93836120D01*
X153339678Y-93685081D01*
X153334198Y-93659960D01*
X153301456Y-93510336D01*
X153260247Y-93321779D01*
X153212907Y-93104994D01*
X153161772Y-92870686D01*
X153109179Y-92629559D01*
X153057465Y-92392318D01*
X153034815Y-92288360D01*
X152983774Y-92054219D01*
X152924618Y-91783136D01*
X152860118Y-91487788D01*
X152793043Y-91180853D01*
X152788160Y-91158522D01*
X150114404Y-91158522D01*
X150099451Y-91166425D01*
X150060184Y-91169038D01*
X149990185Y-91166332D01*
X149883039Y-91158274D01*
X149732328Y-91144835D01*
X149717760Y-91143486D01*
X149600771Y-91131350D01*
X149502895Y-91118785D01*
X149434925Y-91107338D01*
X149408087Y-91099123D01*
X149406223Y-91069960D01*
X149411941Y-91002437D01*
X149423508Y-90908135D01*
X149439186Y-90798631D01*
X149457243Y-90685506D01*
X149475941Y-90580337D01*
X149493547Y-90494704D01*
X149505631Y-90448194D01*
X149518249Y-90432232D01*
X149536991Y-90454769D01*
X149564951Y-90520326D01*
X149576648Y-90551949D01*
X149615680Y-90647647D01*
X149658865Y-90735644D01*
X149687400Y-90782793D01*
X149737592Y-90843770D01*
X149806406Y-90915374D01*
X149883409Y-90988193D01*
X149958162Y-91052813D01*
X150020232Y-91099822D01*
X150059183Y-91119808D01*
X150061208Y-91119960D01*
X150103581Y-91136303D01*
X150111460Y-91145360D01*
X150114404Y-91158522D01*
X152788160Y-91158522D01*
X152726165Y-90875009D01*
X152662254Y-90582933D01*
X152612987Y-90357960D01*
X152559487Y-90113361D01*
X152505723Y-89866821D01*
X152453493Y-89626626D01*
X152411051Y-89430860D01*
X151821109Y-89430860D01*
X151817431Y-89638278D01*
X151788652Y-89871517D01*
X151737341Y-90113793D01*
X151692838Y-90269060D01*
X151611766Y-90523060D01*
X151593883Y-90421460D01*
X151580268Y-90340139D01*
X151563566Y-90234993D01*
X151551308Y-90154760D01*
X151533337Y-90076945D01*
X151291254Y-90076945D01*
X151255774Y-90206645D01*
X151187162Y-90320226D01*
X151090807Y-90410443D01*
X150972099Y-90470048D01*
X150836428Y-90491796D01*
X150733760Y-90480505D01*
X150669810Y-90467188D01*
X150629361Y-90460365D01*
X150626694Y-90460165D01*
X150587944Y-90440886D01*
X150531971Y-90393419D01*
X150471344Y-90330721D01*
X150418631Y-90265752D01*
X150387077Y-90213122D01*
X150352754Y-90069826D01*
X150362943Y-89924278D01*
X150414121Y-89788332D01*
X150502769Y-89673840D01*
X150560957Y-89627738D01*
X150636466Y-89585203D01*
X150711675Y-89564064D01*
X150810630Y-89557900D01*
X150822660Y-89557860D01*
X150925283Y-89562888D01*
X151001774Y-89582255D01*
X151076178Y-89622380D01*
X151084364Y-89627738D01*
X151160505Y-89692406D01*
X151225237Y-89771062D01*
X151241259Y-89798176D01*
X151288212Y-89938374D01*
X151291254Y-90076945D01*
X151533337Y-90076945D01*
X151495974Y-89915167D01*
X151406026Y-89712182D01*
X151279482Y-89543483D01*
X151114360Y-89406743D01*
X150908679Y-89299638D01*
X150783637Y-89254439D01*
X150694581Y-89224390D01*
X150625083Y-89197578D01*
X150589075Y-89179418D01*
X150587955Y-89178394D01*
X150600550Y-89168888D01*
X150655300Y-89163635D01*
X150743775Y-89162210D01*
X150857547Y-89164186D01*
X150988187Y-89169135D01*
X151127266Y-89176631D01*
X151266354Y-89186247D01*
X151397023Y-89197556D01*
X151510843Y-89210131D01*
X151599386Y-89223545D01*
X151635460Y-89231442D01*
X151813260Y-89278460D01*
X151821109Y-89430860D01*
X152411051Y-89430860D01*
X152404591Y-89401064D01*
X152360815Y-89198423D01*
X152323959Y-89026990D01*
X152295821Y-88895053D01*
X152290960Y-88872060D01*
X152259562Y-88728983D01*
X152229495Y-88602430D01*
X152203025Y-88501159D01*
X152182416Y-88433934D01*
X152171666Y-88410548D01*
X152148009Y-88401621D01*
X152098557Y-88402058D01*
X152098557Y-88402058D01*
G37*
X152098557Y-88402058D02*
X152017553Y-88412628D01*
X151899238Y-88434096D01*
X151737855Y-88467228D01*
X151724360Y-88470097D01*
X151305260Y-88559356D01*
X151140160Y-88515604D01*
X150977786Y-88483691D01*
X150788482Y-88463867D01*
X150592912Y-88457100D01*
X150411735Y-88464356D01*
X150312455Y-88476880D01*
X150026787Y-88551107D01*
X149763480Y-88667730D01*
X149525634Y-88822199D01*
X149316348Y-89009967D01*
X149138722Y-89226485D01*
X148995855Y-89467204D01*
X148890847Y-89727576D01*
X148826798Y-90003053D01*
X148806807Y-90289086D01*
X148833975Y-90581128D01*
X148843719Y-90632080D01*
X148925678Y-90907513D01*
X149052156Y-91166187D01*
X149218251Y-91401685D01*
X149419060Y-91607587D01*
X149649679Y-91777475D01*
X149769874Y-91844521D01*
X149974767Y-91935757D01*
X150173496Y-91996823D01*
X150383133Y-92031554D01*
X150620744Y-92043782D01*
X150657560Y-92043916D01*
X150984099Y-92024777D01*
X151277790Y-91968397D01*
X151537834Y-91874992D01*
X151757573Y-91748931D01*
X151808138Y-91718245D01*
X151838536Y-91709026D01*
X151840247Y-91709980D01*
X151848780Y-91737404D01*
X151865345Y-91806338D01*
X151888078Y-91908462D01*
X151915119Y-92035458D01*
X151938914Y-92150901D01*
X151976251Y-92331213D01*
X152018504Y-92529459D01*
X152064308Y-92739751D01*
X152112303Y-92956202D01*
X152161124Y-93172922D01*
X152209410Y-93384023D01*
X152255798Y-93583618D01*
X152298926Y-93765817D01*
X152337430Y-93924733D01*
X152369948Y-94054478D01*
X152395118Y-94149163D01*
X152411576Y-94202900D01*
X152415973Y-94212410D01*
X152456739Y-94232115D01*
X152522997Y-94238946D01*
X152533921Y-94238503D01*
X152591364Y-94236038D01*
X152688141Y-94233020D01*
X152812793Y-94229762D01*
X152953862Y-94226575D01*
X153023636Y-94225170D01*
X153189967Y-94220600D01*
X153309665Y-94214001D01*
X153386869Y-94204982D01*
X153425719Y-94193148D01*
X153431951Y-94186377D01*
X153430011Y-94152997D01*
X153418319Y-94078128D01*
X153398370Y-93969819D01*
X153371658Y-93836120D01*
X153339678Y-93685081D01*
X153334198Y-93659960D01*
X153301456Y-93510336D01*
X153260247Y-93321779D01*
X153212907Y-93104994D01*
X153161772Y-92870686D01*
X153109179Y-92629559D01*
X153057465Y-92392318D01*
X153034815Y-92288360D01*
X152983774Y-92054219D01*
X152924618Y-91783136D01*
X152860118Y-91487788D01*
X152793043Y-91180853D01*
X152788160Y-91158522D01*
X150114404Y-91158522D01*
X150099451Y-91166425D01*
X150060184Y-91169038D01*
X149990185Y-91166332D01*
X149883039Y-91158274D01*
X149732328Y-91144835D01*
X149717760Y-91143486D01*
X149600771Y-91131350D01*
X149502895Y-91118785D01*
X149434925Y-91107338D01*
X149408087Y-91099123D01*
X149406223Y-91069960D01*
X149411941Y-91002437D01*
X149423508Y-90908135D01*
X149439186Y-90798631D01*
X149457243Y-90685506D01*
X149475941Y-90580337D01*
X149493547Y-90494704D01*
X149505631Y-90448194D01*
X149518249Y-90432232D01*
X149536991Y-90454769D01*
X149564951Y-90520326D01*
X149576648Y-90551949D01*
X149615680Y-90647647D01*
X149658865Y-90735644D01*
X149687400Y-90782793D01*
X149737592Y-90843770D01*
X149806406Y-90915374D01*
X149883409Y-90988193D01*
X149958162Y-91052813D01*
X150020232Y-91099822D01*
X150059183Y-91119808D01*
X150061208Y-91119960D01*
X150103581Y-91136303D01*
X150111460Y-91145360D01*
X150114404Y-91158522D01*
X152788160Y-91158522D01*
X152726165Y-90875009D01*
X152662254Y-90582933D01*
X152612987Y-90357960D01*
X152559487Y-90113361D01*
X152505723Y-89866821D01*
X152453493Y-89626626D01*
X152411051Y-89430860D01*
X151821109Y-89430860D01*
X151817431Y-89638278D01*
X151788652Y-89871517D01*
X151737341Y-90113793D01*
X151692838Y-90269060D01*
X151611766Y-90523060D01*
X151593883Y-90421460D01*
X151580268Y-90340139D01*
X151563566Y-90234993D01*
X151551308Y-90154760D01*
X151533337Y-90076945D01*
X151291254Y-90076945D01*
X151255774Y-90206645D01*
X151187162Y-90320226D01*
X151090807Y-90410443D01*
X150972099Y-90470048D01*
X150836428Y-90491796D01*
X150733760Y-90480505D01*
X150669810Y-90467188D01*
X150629361Y-90460365D01*
X150626694Y-90460165D01*
X150587944Y-90440886D01*
X150531971Y-90393419D01*
X150471344Y-90330721D01*
X150418631Y-90265752D01*
X150387077Y-90213122D01*
X150352754Y-90069826D01*
X150362943Y-89924278D01*
X150414121Y-89788332D01*
X150502769Y-89673840D01*
X150560957Y-89627738D01*
X150636466Y-89585203D01*
X150711675Y-89564064D01*
X150810630Y-89557900D01*
X150822660Y-89557860D01*
X150925283Y-89562888D01*
X151001774Y-89582255D01*
X151076178Y-89622380D01*
X151084364Y-89627738D01*
X151160505Y-89692406D01*
X151225237Y-89771062D01*
X151241259Y-89798176D01*
X151288212Y-89938374D01*
X151291254Y-90076945D01*
X151533337Y-90076945D01*
X151495974Y-89915167D01*
X151406026Y-89712182D01*
X151279482Y-89543483D01*
X151114360Y-89406743D01*
X150908679Y-89299638D01*
X150783637Y-89254439D01*
X150694581Y-89224390D01*
X150625083Y-89197578D01*
X150589075Y-89179418D01*
X150587955Y-89178394D01*
X150600550Y-89168888D01*
X150655300Y-89163635D01*
X150743775Y-89162210D01*
X150857547Y-89164186D01*
X150988187Y-89169135D01*
X151127266Y-89176631D01*
X151266354Y-89186247D01*
X151397023Y-89197556D01*
X151510843Y-89210131D01*
X151599386Y-89223545D01*
X151635460Y-89231442D01*
X151813260Y-89278460D01*
X151821109Y-89430860D01*
X152411051Y-89430860D01*
X152404591Y-89401064D01*
X152360815Y-89198423D01*
X152323959Y-89026990D01*
X152295821Y-88895053D01*
X152290960Y-88872060D01*
X152259562Y-88728983D01*
X152229495Y-88602430D01*
X152203025Y-88501159D01*
X152182416Y-88433934D01*
X152171666Y-88410548D01*
X152148009Y-88401621D01*
X152098557Y-88402058D01*
G04 #@! TD*
M02*
