M48
;DRILL file {KiCad 5.0.2-bee76a0~70~ubuntu18.04.1} date 2018年12月10日 16時15分18秒
;FORMAT={-:-/ absolute / inch / decimal}
FMAT,2
INCH,TZ
T1C0.0157
T2C0.0300
T3C0.0394
%
G90
G05
T1
X5.695Y-1.9672
X5.8638Y-1.6658
X5.871Y-1.8798
X6.413Y-3.9038
X6.9982Y-3.903
X7.5558Y-3.9018
X7.835Y-2.6366
X8.1143Y-3.9011
X8.1195Y-2.8006
X8.2469Y-2.0741
X8.4544Y-1.9895
X8.4664Y-2.0359
X8.635Y-2.5282
X8.6398Y-2.1836
X8.6711Y-2.2639
X8.7483Y-2.084
X8.7695Y-1.9889
X8.8816Y-2.1171
T2
X6.5065Y-3.9742
X8.7427Y-3.9742
X8.1837Y-3.9742
X7.0656Y-3.9742
X5.9474Y-3.9742
X7.6246Y-3.9742
T3
X5.4378Y-1.6226
X5.4378Y-1.7226
X5.4378Y-1.8226
X5.4378Y-1.9226
X5.4378Y-2.0226
X5.4378Y-2.1226
X9.2522Y-1.6228
X9.2522Y-1.7228
X9.2522Y-1.8228
X9.2522Y-1.9228
X9.2522Y-2.0228
X9.2522Y-2.1228
T0
M30
