G04 #@! TF.GenerationSoftware,KiCad,Pcbnew,5.0.2-bee76a0~70~ubuntu18.04.1*
G04 #@! TF.CreationDate,2018-12-10T16:15:13+09:00*
G04 #@! TF.ProjectId,2019_01,32303139-5f30-4312-9e6b-696361645f70,rev?*
G04 #@! TF.SameCoordinates,Original*
G04 #@! TF.FileFunction,Paste,Bot*
G04 #@! TF.FilePolarity,Positive*
%FSLAX46Y46*%
G04 Gerber Fmt 4.6, Leading zero omitted, Abs format (unit mm)*
G04 Created by KiCad (PCBNEW 5.0.2-bee76a0~70~ubuntu18.04.1) date 2018年12月10日 16時15分13秒*
%MOMM*%
%LPD*%
G01*
G04 APERTURE LIST*
%ADD10C,0.100000*%
%ADD11C,4.000000*%
G04 APERTURE END LIST*
D10*
G04 #@! TO.C,J3*
G36*
X152163017Y-100950415D02*
X152260090Y-100964815D01*
X152355285Y-100988660D01*
X152447683Y-101021720D01*
X152536397Y-101063679D01*
X152620570Y-101114130D01*
X152699393Y-101172590D01*
X152772107Y-101238493D01*
X152838010Y-101311207D01*
X152896470Y-101390030D01*
X152946921Y-101474203D01*
X152988880Y-101562917D01*
X153021940Y-101655315D01*
X153045785Y-101750510D01*
X153060185Y-101847583D01*
X153065000Y-101945600D01*
X153065000Y-103945600D01*
X153060185Y-104043617D01*
X153045785Y-104140690D01*
X153021940Y-104235885D01*
X152988880Y-104328283D01*
X152946921Y-104416997D01*
X152896470Y-104501170D01*
X152838010Y-104579993D01*
X152772107Y-104652707D01*
X152699393Y-104718610D01*
X152620570Y-104777070D01*
X152536397Y-104827521D01*
X152447683Y-104869480D01*
X152355285Y-104902540D01*
X152260090Y-104926385D01*
X152163017Y-104940785D01*
X152065000Y-104945600D01*
X150065000Y-104945600D01*
X149966983Y-104940785D01*
X149869910Y-104926385D01*
X149774715Y-104902540D01*
X149682317Y-104869480D01*
X149593603Y-104827521D01*
X149509430Y-104777070D01*
X149430607Y-104718610D01*
X149357893Y-104652707D01*
X149291990Y-104579993D01*
X149233530Y-104501170D01*
X149183079Y-104416997D01*
X149141120Y-104328283D01*
X149108060Y-104235885D01*
X149084215Y-104140690D01*
X149069815Y-104043617D01*
X149065000Y-103945600D01*
X149065000Y-101945600D01*
X149069815Y-101847583D01*
X149084215Y-101750510D01*
X149108060Y-101655315D01*
X149141120Y-101562917D01*
X149183079Y-101474203D01*
X149233530Y-101390030D01*
X149291990Y-101311207D01*
X149357893Y-101238493D01*
X149430607Y-101172590D01*
X149509430Y-101114130D01*
X149593603Y-101063679D01*
X149682317Y-101021720D01*
X149774715Y-100988660D01*
X149869910Y-100964815D01*
X149966983Y-100950415D01*
X150065000Y-100945600D01*
X152065000Y-100945600D01*
X152163017Y-100950415D01*
X152163017Y-100950415D01*
G37*
D11*
X151065000Y-102945600D03*
G04 #@! TD*
D10*
G04 #@! TO.C,J4*
G36*
X166363017Y-100950415D02*
X166460090Y-100964815D01*
X166555285Y-100988660D01*
X166647683Y-101021720D01*
X166736397Y-101063679D01*
X166820570Y-101114130D01*
X166899393Y-101172590D01*
X166972107Y-101238493D01*
X167038010Y-101311207D01*
X167096470Y-101390030D01*
X167146921Y-101474203D01*
X167188880Y-101562917D01*
X167221940Y-101655315D01*
X167245785Y-101750510D01*
X167260185Y-101847583D01*
X167265000Y-101945600D01*
X167265000Y-103945600D01*
X167260185Y-104043617D01*
X167245785Y-104140690D01*
X167221940Y-104235885D01*
X167188880Y-104328283D01*
X167146921Y-104416997D01*
X167096470Y-104501170D01*
X167038010Y-104579993D01*
X166972107Y-104652707D01*
X166899393Y-104718610D01*
X166820570Y-104777070D01*
X166736397Y-104827521D01*
X166647683Y-104869480D01*
X166555285Y-104902540D01*
X166460090Y-104926385D01*
X166363017Y-104940785D01*
X166265000Y-104945600D01*
X164265000Y-104945600D01*
X164166983Y-104940785D01*
X164069910Y-104926385D01*
X163974715Y-104902540D01*
X163882317Y-104869480D01*
X163793603Y-104827521D01*
X163709430Y-104777070D01*
X163630607Y-104718610D01*
X163557893Y-104652707D01*
X163491990Y-104579993D01*
X163433530Y-104501170D01*
X163383079Y-104416997D01*
X163341120Y-104328283D01*
X163308060Y-104235885D01*
X163284215Y-104140690D01*
X163269815Y-104043617D01*
X163265000Y-103945600D01*
X163265000Y-101945600D01*
X163269815Y-101847583D01*
X163284215Y-101750510D01*
X163308060Y-101655315D01*
X163341120Y-101562917D01*
X163383079Y-101474203D01*
X163433530Y-101390030D01*
X163491990Y-101311207D01*
X163557893Y-101238493D01*
X163630607Y-101172590D01*
X163709430Y-101114130D01*
X163793603Y-101063679D01*
X163882317Y-101021720D01*
X163974715Y-100988660D01*
X164069910Y-100964815D01*
X164166983Y-100950415D01*
X164265000Y-100945600D01*
X166265000Y-100945600D01*
X166363017Y-100950415D01*
X166363017Y-100950415D01*
G37*
D11*
X165265000Y-102945600D03*
G04 #@! TD*
D10*
G04 #@! TO.C,J5*
G36*
X180563017Y-100950415D02*
X180660090Y-100964815D01*
X180755285Y-100988660D01*
X180847683Y-101021720D01*
X180936397Y-101063679D01*
X181020570Y-101114130D01*
X181099393Y-101172590D01*
X181172107Y-101238493D01*
X181238010Y-101311207D01*
X181296470Y-101390030D01*
X181346921Y-101474203D01*
X181388880Y-101562917D01*
X181421940Y-101655315D01*
X181445785Y-101750510D01*
X181460185Y-101847583D01*
X181465000Y-101945600D01*
X181465000Y-103945600D01*
X181460185Y-104043617D01*
X181445785Y-104140690D01*
X181421940Y-104235885D01*
X181388880Y-104328283D01*
X181346921Y-104416997D01*
X181296470Y-104501170D01*
X181238010Y-104579993D01*
X181172107Y-104652707D01*
X181099393Y-104718610D01*
X181020570Y-104777070D01*
X180936397Y-104827521D01*
X180847683Y-104869480D01*
X180755285Y-104902540D01*
X180660090Y-104926385D01*
X180563017Y-104940785D01*
X180465000Y-104945600D01*
X178465000Y-104945600D01*
X178366983Y-104940785D01*
X178269910Y-104926385D01*
X178174715Y-104902540D01*
X178082317Y-104869480D01*
X177993603Y-104827521D01*
X177909430Y-104777070D01*
X177830607Y-104718610D01*
X177757893Y-104652707D01*
X177691990Y-104579993D01*
X177633530Y-104501170D01*
X177583079Y-104416997D01*
X177541120Y-104328283D01*
X177508060Y-104235885D01*
X177484215Y-104140690D01*
X177469815Y-104043617D01*
X177465000Y-103945600D01*
X177465000Y-101945600D01*
X177469815Y-101847583D01*
X177484215Y-101750510D01*
X177508060Y-101655315D01*
X177541120Y-101562917D01*
X177583079Y-101474203D01*
X177633530Y-101390030D01*
X177691990Y-101311207D01*
X177757893Y-101238493D01*
X177830607Y-101172590D01*
X177909430Y-101114130D01*
X177993603Y-101063679D01*
X178082317Y-101021720D01*
X178174715Y-100988660D01*
X178269910Y-100964815D01*
X178366983Y-100950415D01*
X178465000Y-100945600D01*
X180465000Y-100945600D01*
X180563017Y-100950415D01*
X180563017Y-100950415D01*
G37*
D11*
X179465000Y-102945600D03*
G04 #@! TD*
D10*
G04 #@! TO.C,J6*
G36*
X194763017Y-100950415D02*
X194860090Y-100964815D01*
X194955285Y-100988660D01*
X195047683Y-101021720D01*
X195136397Y-101063679D01*
X195220570Y-101114130D01*
X195299393Y-101172590D01*
X195372107Y-101238493D01*
X195438010Y-101311207D01*
X195496470Y-101390030D01*
X195546921Y-101474203D01*
X195588880Y-101562917D01*
X195621940Y-101655315D01*
X195645785Y-101750510D01*
X195660185Y-101847583D01*
X195665000Y-101945600D01*
X195665000Y-103945600D01*
X195660185Y-104043617D01*
X195645785Y-104140690D01*
X195621940Y-104235885D01*
X195588880Y-104328283D01*
X195546921Y-104416997D01*
X195496470Y-104501170D01*
X195438010Y-104579993D01*
X195372107Y-104652707D01*
X195299393Y-104718610D01*
X195220570Y-104777070D01*
X195136397Y-104827521D01*
X195047683Y-104869480D01*
X194955285Y-104902540D01*
X194860090Y-104926385D01*
X194763017Y-104940785D01*
X194665000Y-104945600D01*
X192665000Y-104945600D01*
X192566983Y-104940785D01*
X192469910Y-104926385D01*
X192374715Y-104902540D01*
X192282317Y-104869480D01*
X192193603Y-104827521D01*
X192109430Y-104777070D01*
X192030607Y-104718610D01*
X191957893Y-104652707D01*
X191891990Y-104579993D01*
X191833530Y-104501170D01*
X191783079Y-104416997D01*
X191741120Y-104328283D01*
X191708060Y-104235885D01*
X191684215Y-104140690D01*
X191669815Y-104043617D01*
X191665000Y-103945600D01*
X191665000Y-101945600D01*
X191669815Y-101847583D01*
X191684215Y-101750510D01*
X191708060Y-101655315D01*
X191741120Y-101562917D01*
X191783079Y-101474203D01*
X191833530Y-101390030D01*
X191891990Y-101311207D01*
X191957893Y-101238493D01*
X192030607Y-101172590D01*
X192109430Y-101114130D01*
X192193603Y-101063679D01*
X192282317Y-101021720D01*
X192374715Y-100988660D01*
X192469910Y-100964815D01*
X192566983Y-100950415D01*
X192665000Y-100945600D01*
X194665000Y-100945600D01*
X194763017Y-100950415D01*
X194763017Y-100950415D01*
G37*
D11*
X193665000Y-102945600D03*
G04 #@! TD*
D10*
G04 #@! TO.C,J7*
G36*
X208963017Y-100950415D02*
X209060090Y-100964815D01*
X209155285Y-100988660D01*
X209247683Y-101021720D01*
X209336397Y-101063679D01*
X209420570Y-101114130D01*
X209499393Y-101172590D01*
X209572107Y-101238493D01*
X209638010Y-101311207D01*
X209696470Y-101390030D01*
X209746921Y-101474203D01*
X209788880Y-101562917D01*
X209821940Y-101655315D01*
X209845785Y-101750510D01*
X209860185Y-101847583D01*
X209865000Y-101945600D01*
X209865000Y-103945600D01*
X209860185Y-104043617D01*
X209845785Y-104140690D01*
X209821940Y-104235885D01*
X209788880Y-104328283D01*
X209746921Y-104416997D01*
X209696470Y-104501170D01*
X209638010Y-104579993D01*
X209572107Y-104652707D01*
X209499393Y-104718610D01*
X209420570Y-104777070D01*
X209336397Y-104827521D01*
X209247683Y-104869480D01*
X209155285Y-104902540D01*
X209060090Y-104926385D01*
X208963017Y-104940785D01*
X208865000Y-104945600D01*
X206865000Y-104945600D01*
X206766983Y-104940785D01*
X206669910Y-104926385D01*
X206574715Y-104902540D01*
X206482317Y-104869480D01*
X206393603Y-104827521D01*
X206309430Y-104777070D01*
X206230607Y-104718610D01*
X206157893Y-104652707D01*
X206091990Y-104579993D01*
X206033530Y-104501170D01*
X205983079Y-104416997D01*
X205941120Y-104328283D01*
X205908060Y-104235885D01*
X205884215Y-104140690D01*
X205869815Y-104043617D01*
X205865000Y-103945600D01*
X205865000Y-101945600D01*
X205869815Y-101847583D01*
X205884215Y-101750510D01*
X205908060Y-101655315D01*
X205941120Y-101562917D01*
X205983079Y-101474203D01*
X206033530Y-101390030D01*
X206091990Y-101311207D01*
X206157893Y-101238493D01*
X206230607Y-101172590D01*
X206309430Y-101114130D01*
X206393603Y-101063679D01*
X206482317Y-101021720D01*
X206574715Y-100988660D01*
X206669910Y-100964815D01*
X206766983Y-100950415D01*
X206865000Y-100945600D01*
X208865000Y-100945600D01*
X208963017Y-100950415D01*
X208963017Y-100950415D01*
G37*
D11*
X207865000Y-102945600D03*
G04 #@! TD*
D10*
G04 #@! TO.C,J8*
G36*
X223163017Y-100950415D02*
X223260090Y-100964815D01*
X223355285Y-100988660D01*
X223447683Y-101021720D01*
X223536397Y-101063679D01*
X223620570Y-101114130D01*
X223699393Y-101172590D01*
X223772107Y-101238493D01*
X223838010Y-101311207D01*
X223896470Y-101390030D01*
X223946921Y-101474203D01*
X223988880Y-101562917D01*
X224021940Y-101655315D01*
X224045785Y-101750510D01*
X224060185Y-101847583D01*
X224065000Y-101945600D01*
X224065000Y-103945600D01*
X224060185Y-104043617D01*
X224045785Y-104140690D01*
X224021940Y-104235885D01*
X223988880Y-104328283D01*
X223946921Y-104416997D01*
X223896470Y-104501170D01*
X223838010Y-104579993D01*
X223772107Y-104652707D01*
X223699393Y-104718610D01*
X223620570Y-104777070D01*
X223536397Y-104827521D01*
X223447683Y-104869480D01*
X223355285Y-104902540D01*
X223260090Y-104926385D01*
X223163017Y-104940785D01*
X223065000Y-104945600D01*
X221065000Y-104945600D01*
X220966983Y-104940785D01*
X220869910Y-104926385D01*
X220774715Y-104902540D01*
X220682317Y-104869480D01*
X220593603Y-104827521D01*
X220509430Y-104777070D01*
X220430607Y-104718610D01*
X220357893Y-104652707D01*
X220291990Y-104579993D01*
X220233530Y-104501170D01*
X220183079Y-104416997D01*
X220141120Y-104328283D01*
X220108060Y-104235885D01*
X220084215Y-104140690D01*
X220069815Y-104043617D01*
X220065000Y-103945600D01*
X220065000Y-101945600D01*
X220069815Y-101847583D01*
X220084215Y-101750510D01*
X220108060Y-101655315D01*
X220141120Y-101562917D01*
X220183079Y-101474203D01*
X220233530Y-101390030D01*
X220291990Y-101311207D01*
X220357893Y-101238493D01*
X220430607Y-101172590D01*
X220509430Y-101114130D01*
X220593603Y-101063679D01*
X220682317Y-101021720D01*
X220774715Y-100988660D01*
X220869910Y-100964815D01*
X220966983Y-100950415D01*
X221065000Y-100945600D01*
X223065000Y-100945600D01*
X223163017Y-100950415D01*
X223163017Y-100950415D01*
G37*
D11*
X222065000Y-102945600D03*
G04 #@! TD*
M02*
